<?xml version="1.0" encoding="utf-8"?>
<!-- Generator: Adobe Illustrator 16.0.0, SVG Export Plug-In . SVG Version: 6.00 Build 0)  -->
<!DOCTYPE svg PUBLIC "-//W3C//DTD SVG 1.1//EN" "http://www.w3.org/Graphics/SVG/1.1/DTD/svg11.dtd">
<svg version="1.1" id="Layer_1" xmlns="http://www.w3.org/2000/svg" xmlns:xlink="http://www.w3.org/1999/xlink" x="0px" y="0px"
	 width="216px" height="176.601px" viewBox="0 0 216 176.601" enable-background="new 0 0 216 176.601" xml:space="preserve">
<g>
	
		<polygon fill-rule="evenodd" clip-rule="evenodd" fill="none" stroke="#050606" stroke-width="0.4165" stroke-miterlimit="10" points="
		-138.772,221.037 -163.971,221.023 -151.347,175.175 	"/>
	<polyline fill-rule="evenodd" clip-rule="evenodd" points="-151.347,174.981 -163.919,220.842 -151.413,220.835 	"/>
</g>
<g>
	
		<polygon fill-rule="evenodd" clip-rule="evenodd" fill="none" stroke="#050606" stroke-width="0.4165" stroke-miterlimit="10" points="
		-116.394,241.203 -134.366,223.54 -93.237,199.667 	"/>
	<polyline fill-rule="evenodd" clip-rule="evenodd" points="-93.103,199.529 -134.204,223.446 -125.274,232.203 	"/>
</g>
<g>
	
		<polygon fill-rule="evenodd" clip-rule="evenodd" fill="none" stroke="#050606" stroke-width="0.4165" stroke-miterlimit="10" points="
		-115.21,270.153 -115.233,244.955 -69.368,257.512 	"/>
	<polyline fill-rule="evenodd" clip-rule="evenodd" points="-69.173,257.512 -115.052,245.005 -115.026,257.512 	"/>
</g>
<g>
	
		<polygon fill-rule="evenodd" clip-rule="evenodd" fill="none" stroke="#050606" stroke-width="0.4165" stroke-miterlimit="10" points="
		-134.497,291.461 -116.563,273.763 -93.321,315.25 	"/>
	<polyline fill-rule="evenodd" clip-rule="evenodd" points="-93.185,315.388 -116.47,273.928 -125.364,282.722 	"/>
</g>
<g>
	
		<polygon fill-rule="evenodd" clip-rule="evenodd" fill="none" stroke="#050606" stroke-width="0.4165" stroke-miterlimit="10" points="
		-163.639,293.405 -138.44,293.419 -151.065,339.266 	"/>
	<polyline fill-rule="evenodd" clip-rule="evenodd" points="-151.065,339.46 -138.491,293.6 -150.999,293.607 	"/>
</g>
<g>
	
		<polygon fill-rule="evenodd" clip-rule="evenodd" fill="none" stroke="#050606" stroke-width="0.4165" stroke-miterlimit="10" points="
		-185.436,274.04 -167.636,291.875 -208.993,315.348 	"/>
	<polyline fill-rule="evenodd" clip-rule="evenodd" points="-209.13,315.486 -167.8,291.967 -176.646,283.125 	"/>
</g>
<g>
	
		<polygon fill-rule="evenodd" clip-rule="evenodd" fill="none" stroke="#050606" stroke-width="0.4165" stroke-miterlimit="10" points="
		-187.257,244.85 -187.234,270.047 -233.1,257.492 	"/>
	<polyline fill-rule="evenodd" clip-rule="evenodd" points="-233.294,257.492 -187.415,269.999 -187.44,257.492 	"/>
</g>
<g>
	
		<polygon fill-rule="evenodd" clip-rule="evenodd" fill="none" stroke="#050606" stroke-width="0.4165" stroke-miterlimit="10" points="
		-167.823,223.087 -185.675,240.87 -209.109,199.492 	"/>
	<polyline fill-rule="evenodd" clip-rule="evenodd" points="-209.248,199.354 -185.768,240.706 -176.917,231.87 	"/>
</g>
<circle fill="#EFEFEF" stroke="#000000" stroke-width="0.9024" stroke-miterlimit="10" cx="-150.569" cy="257.211" r="42.791"/>
<circle fill="none" stroke="#000000" stroke-width="0.833" stroke-miterlimit="10" cx="-150.647" cy="257.36" r="39.128"/>
<text transform="matrix(1 0 0 1 -394.2227 73.4136)" font-family="'Semakin-Regular'" font-size="33.4969">CREATIONS</text>
<text transform="matrix(1 0 0 1 -369.3027 29.3247)" font-family="'Semakin-Regular'" font-size="33.4969">KAOTIC</text>
<path fill="#020202" d="M181.022,20.698c0.017,0.108,0.013,0.236,0.18,0.226c0.02,0,0.046-0.029,0.05-0.048
	c0.008-0.163-0.123-0.159-0.229-0.181c-0.021-0.107-0.015-0.233-0.185-0.224c-0.017,0-0.046,0.028-0.046,0.044
	C180.782,20.68,180.911,20.678,181.022,20.698z M93.661,143.986c-0.847-3.131-1.41-6.325-1.095-9.552
	c0.376-3.846,0.252-7.737,1.113-11.533c0.035-0.171,0.069-0.35,0.058-0.521c-0.183-2.76,0.008-5.537-0.535-8.282
	c-0.24-1.216-0.229-2.478-0.334-3.725c0.179,0.115,0.245,0.012,0.334-0.14c1.564-2.596,3.55-4.891,5.395-7.285
	c2.194-2.851,4.365-5.72,6.365-8.71c0.761-1.131,1.77-1.812,3.108-2.027c0.681-0.109,1.212,0.086,1.623,0.683
	c0.56,0.813,0.869,1.729,1.177,2.647c0.398,1.182,0.683,2.397,1.271,3.517c1.06,2.008,2.073,4.04,3.102,6.063
	c0.679,1.333,1.223,2.751,2.056,3.983c1.002,1.482,2.126,2.893,3.09,4.409c-0.217,0.895-0.431,1.791-0.656,2.684
	c-0.513,2.036-1.063,4.069-0.671,6.202c0.162,0.908,0.31,1.81,0.205,2.75c-0.146,1.371-0.683,2.617-1.288,3.815
	c-1.018,2.002-1.292,4.059-0.928,6.254c0.267,1.597,0.568,3.192,0.514,4.828c-0.103,3.224-0.765,6.396-0.869,9.623
	c-0.078,2.47-0.423,4.93-0.343,7.406c0.05,1.523,0.537,2.813,2.026,3.59c0.709,0.366,1.318,0.913,1.979,1.369
	c1.563,1.073,3.18,1.961,5.187,2.005c1.429,0.031,2.857,0.285,4.122,1.062c-0.209,0.356,0.063,0.78-0.167,1.134
	c-0.326,0.573-0.889,0.772-1.486,0.898c-0.268,0.057-0.548,0.052-0.746,0.28c-0.263,0.016-0.523,0.032-0.787,0.046
	c-0.811-0.004-1.626-0.004-2.437-0.004c-0.931,0.071-1.788-0.363-2.705-0.396c-0.672-0.023-1.344-0.15-2.011-0.232
	c-0.434-0.201-0.902-0.222-1.373-0.263c-1.699-0.146-3.309,0.341-4.939,0.695c-0.059,0.056-0.124,0.112-0.187,0.169
	c-1.116-0.027-2.228,0.29-3.341-0.004c-0.072-0.188-0.212-0.277-0.407-0.299c-0.714-0.815-0.617-1.786-0.393-2.709
	c0.444-1.83,0.839-3.651,0.629-5.553c-0.384-3.449-0.985-6.86-1.89-10.216c-0.76-2.827-1.471-5.663-1.529-8.607
	c-0.058-3.154,0.736-6.18,1.443-9.22c0.539-2.315,0.928-4.661,0.477-7.047c-0.295-1.55-0.221-3.079,0.133-4.611
	c0.205-0.877,0.305-1.777,0.279-2.678c-0.101-3.808-1.055-7.523-1.223-11.332c-0.292,1.009-0.527,2.028-0.798,3.036
	c-0.896,3.367-1.6,6.745-1.409,10.271c0.14,2.593-0.368,5.134-1.098,7.609c-1.009,3.43-1.132,6.919-0.508,10.383
	c0.515,2.854,0.392,5.655,0.159,8.502c-0.155,1.863-0.186,3.74-0.198,5.617c-0.017,3.258,1.21,6.345,1.145,9.628
	c-0.028,1.396,0.403,2.895,0.714,4.319c0.216,0.974,0.255,1.854-0.06,2.773c-0.712,0.683-1.574,0.507-2.417,0.423
	c-0.517-0.57-0.854-0.11-1.215,0.206c-0.055-0.012-0.104-0.021-0.159-0.034c-0.123-0.151-0.283-0.137-0.452-0.11
	c-0.102-0.005-0.202-0.005-0.305-0.005c-0.608-0.002-1.21-0.005-1.818-0.008c-0.914-0.056-1.859,0.068-2.728-0.353
	c-0.237-0.304-0.383-0.643-0.459-1.014c0.233-1.065,0.636-2.044,1.311-2.918c0.276-0.357,0.416-0.796,0.513-1.242
	c0.172-0.778,0.312-1.555,0.64-2.298c0.304-0.694,0.028-1.423-0.069-2.14c-0.456-3.497-1.684-6.769-2.938-10.041
	c-0.182-0.487-0.322-0.992-0.48-1.488c0.438-0.041,0.927,0.112,1.264-0.317c0.123-0.155,0.319-0.321,0.116-0.513
	c-0.166-0.157-0.333-0.017-0.457,0.109c-0.238,0.243-0.564,0.388-0.808,0.191s-0.349-0.558-0.205-0.914
	c0.324,0.057,0.108,0.601,0.484,0.479c0.314-0.104,0.145-0.435,0.174-0.663c0.042-0.353-0.13-0.517-0.485-0.482
	C94.175,144.189,93.913,144.119,93.661,143.986z M59.319,148.732c0.042-0.029,0.081-0.059,0.12-0.088
	c0.051,0.01,0.104,0.006,0.147,0.026c0.706,0.32,0.699,0.32,0.886-0.327c0.03-0.1,0.193-0.152,0.263-0.249
	c0.172-0.232,0.56-0.275,0.57-0.646v0.005c0.496-0.104,1.238,0.155,1.173-0.781l0.012-0.003c0.244,0.046,0.341-0.055,0.302-0.295
	c0.699-0.026,1.21-0.492,1.288-1.047c0.121-0.865,0.714-1.626,0.543-2.541l-0.004,0.008c0.218-0.091,0.171-0.28,0.164-0.453h-0.008
	c0.364,0.01,0.701,0,0.522-0.521c-0.058-0.155-0.022-0.31,0.063-0.429c0.566-0.804,0.453-1.804,0.791-2.676
	c0.108-0.271,0.345-0.483,0.315-0.821c-0.129-1.694,0.457-3.293,0.829-4.899c0.157-0.679,0.194-1.311,0.211-1.972
	c-0.028-0.026-0.028-0.056,0-0.082c0.403-0.04,0.371-0.4,0.519-0.645c0.144-0.235-0.08-0.473,0.097-0.704
	c0.646-0.862,0.528-2.001,1.044-2.917c0.024-0.042-0.084-0.16-0.129-0.241c0-0.122,0.028-0.232,0.137-0.307
	c0.05-0.053,0.1-0.108,0.15-0.163c0,0-0.011,0.001-0.007,0.001c0.039-0.025,0.093-0.041,0.125-0.074
	c0.726-0.739,0.765-1.998,1.894-2.443c0.188-0.073,0.088-0.375,0.151-0.557c0.084-0.24,0.047-0.63,0.403-0.637
	c0.509-0.013,0.581-0.374,0.613-0.7c0.083-0.802,1.091-0.956,1.188-1.729c0.004-0.018,0.039-0.033,0.065-0.038
	c0.721-0.183,0.729-0.183,0.893-0.908c0.042-0.189,0.216-0.281,0.283-0.419c0.227-0.473,0.908-0.443,1.059-0.923
	c0.205-0.647,0.395-1.278,0.854-1.817c0.5-0.586,0.729-1.3,0.826-2.057l0,0c0.259,0.006,0.453-0.135,0.539-0.344
	c0.352-0.873,0.933-1.568,1.637-2.178c0.205-0.18,0.304-0.392,0.207-0.665l0.007-0.007c0.313,0.016,0.629,0.031,0.942,0.044
	c0.215,0.207,0.247,0.483,0.315,0.748c-0.248,0.423,0.097,0.712,0.302,0.951c0.785,0.917,2.158,1.856,3.031,1.299
	c0.149,0.003,0.3,0.011,0.451,0.014c0.201,0.419,0.403,0.419,0.605-0.002c0.403-0.053,0.806-0.109,1.211-0.16
	c0.251,0.25,0.395,0.176,0.453-0.152c0.064-0.122,0.176-0.146,0.301-0.153c0.934,0.454,1.586-0.148,2.283-0.593
	c0.292,0.01,0.417-0.24,0.618-0.377c0.675-0.458,0.78-1.279,1.227-1.878c0.026,0.251,0.051,0.503,0.077,0.756
	c-0.155,0.202-0.155,0.401,0.009,0.598c0.163,0.631-0.089,1.09-0.533,1.535c-2.836,2.851-5.052,6.205-7.621,9.271
	c-0.892,1.062-1.333,2.456-1.839,3.761c-0.689,1.771-1.319,3.561-2.006,5.331c-0.644,1.651-1.73,3.034-2.857,4.383
	c-2.23,2.672-4.5,5.313-6.278,8.319c-0.732,1.235-1.288,2.538-1.714,3.898c-0.067,0.217-0.085,0.473-0.218,0.636
	c-1.3,1.612-1.759,3.7-3.088,5.301c-0.516,0.63-0.839,1.42-1.553,1.892c-1.311-0.192-2.176-1.22-3.291-1.783
	c-1.38-0.703-2.848-1.365-3.907-2.583c-0.078-0.092-0.147-0.196-0.222-0.291l-0.016-0.024c0.897-0.247,1.185-1.254,2.037-1.604
	C58.95,149.537,59.356,149.155,59.319,148.732z M32.544,42.309c1.595-0.557,3.252-0.595,4.916-0.577
	c0.303,0,0.606,0.017,0.911,0.006c0.241-0.009,0.582,0.027,0.603-0.294c0.026-0.34-0.302-0.425-0.585-0.456
	c-0.897-0.109-1.798-0.198-2.695-0.301c-0.5-0.056-1.008-0.078-1.49-0.208c-0.387-0.103-0.934-0.185-0.898-0.747
	c0.037-0.588,0.582-0.651,1.02-0.688c0.678-0.056,1.357-0.015,2.04,0.053c1.5,0.146,2.982,0.516,4.509,0.397
	c0.656-0.052,1.309-0.107,1.922-0.353c0.582-0.232,0.636-0.597,0.162-0.994c-0.361-0.305-0.761-0.571-1.145-0.854
	c-0.756-0.564-1.052-1.303-0.85-1.993c0.157-0.539,0.462-0.607,0.908-0.371c0.218,0.118,0.435,0.255,0.622,0.417
	c0.761,0.666,1.568,1.238,2.511,1.635c0.482,0.197,0.784,0.606,1.013,1.071c1.077,2.188,2.94,3.153,5.309,3.197
	c3.558,0.07,7.09-0.31,10.625-0.682c2.42-0.254,4.847-0.116,7.216,0.45c3.124,0.743,6.235,0.695,9.368,0.157
	c0.224-0.039,0.449-0.021,0.675-0.027c0.962,0.492,1.996,0.82,2.98,1.254c0.923,0.409,1.945,0.501,2.835,1.009
	c0.719,0.408,1.558,0.568,2.268,1.011c1.311,0.824,2.025,2.133,2.771,3.399c0.515,0.871,1.063,1.739,1.253,2.76
	c-1.274-1.445-2.896-1.472-4.577-1.021c-2.33,0.625-4.645,0.337-6.973,0.041c-2.98-0.376-5.971-0.462-8.979-0.27
	c-2.868,0.185-5.743,0.125-8.611-0.182c-3.487-0.377-6.771-1.526-10.084-2.551c-1.207-0.372-2.448-0.584-3.69-0.793
	c-0.843-0.145-1.579,0.262-2.358,0.432c-1.46,0.318-2.958,0.253-4.432,0.381c-1.364,0.118-2.449,0.882-3.68,1.293
	c-0.36,0.119-0.71,0.255-1.078,0.35c-0.333,0.085-0.684,0.072-0.831-0.305c-0.144-0.362,0.067-0.66,0.366-0.817
	c0.555-0.292,1.145-0.521,1.715-0.783c0.528-0.241,1.052-0.485,1.572-0.736c0.197-0.1,0.31-0.275,0.231-0.499
	c-0.094-0.26-0.291-0.202-0.504-0.15c-1.414,0.346-2.828,0.689-4.25,1.011c-0.52,0.114-1.214,0.388-1.44-0.318
	c-0.229-0.714,0.54-0.803,0.991-0.939c1.179-0.364,2.383-0.64,3.573-0.965c0.233-0.063,0.505-0.085,0.738-0.458
	c-2.225-0.266-4.347,0.346-6.478,0.236C32.337,43.127,32.341,42.715,32.544,42.309z M39.14,18.066
	c-0.287-0.207-0.403-0.559-0.136-0.743c0.749-0.514,0.183-0.809-0.131-1.161c0.445-1.003,0.5-1.038,1.447-0.573
	c0.268,0.129,0.406,0.053,0.578-0.111c0.269-0.258,0.567-0.273,0.876-0.066c-0.478,0.577-0.614,1.135,0.06,1.674
	c0.189,0.148,0.284,0.337,0.177,0.595c-0.089,0.22-0.245,0.543,0.172,0.564c0.319,0.016,0.344-0.305,0.344-0.564
	c0-0.221,0.051-0.473-0.143-0.635c-0.513-0.426-0.47-0.941-0.28-1.49c0.513-0.125,0.656,0.606,1.164,0.497
	c1.104,0.289,2,1.013,3.032,1.458c0.116-0.195-0.027-0.312-0.078-0.439c-0.144-0.344-0.082-0.644,0.194-0.883
	c0.257-0.226,0.544-0.192,0.846-0.067c0.847,0.355,1.518,0.984,2.316,1.412c1.921,1.037,2.926,2.743,3.557,4.729
	c0.1,0.317,0.317,0.482,0.6,0.622c1.35,0.661,2.822,0.923,4.268,1.249c3.435,0.772,6.928,1.326,10.144,2.865
	c1.602,0.765,3.112,1.698,4.412,2.87c1.615,1.462,3.531,2.044,5.592,2.38c2.32,0.377,4.458,1.263,6.487,2.39
	c0.882,0.491,1.693,0.732,2.716,0.514c3.702-0.784,7.144,0.103,10.442,1.75c0.423,0.213,0.846,0.425,1.367,0.687
	c-0.642,0.273-1.212,0.366-1.805,0.368c-1.583,0.005-3.178-0.087-4.695,0.545c-0.284,0.117-0.649,0.085-0.971,0.07
	c-3.914-0.177-7.759,0.399-11.528,1.312c-2.081,0.506-3.804,0.089-5.51-0.958c-1.571-0.966-3.222-1.674-5.068-2.04
	c-3.431-0.68-6.52-2.253-9.416-4.149c-2.825-1.851-5.758-3.495-8.76-5.039c-1.151-0.593-2.344-0.993-3.571-1.376
	c-1.68-0.527-3.282-1.217-4.455-2.669c-0.671-0.828-1.564-1.482-2.375-2.192c-0.345-0.303-0.671-0.617-0.908-0.998
	c-0.278-0.456-0.328-0.891,0.416-1.046c-0.279-0.292-0.517-0.54-0.757-0.789c0.171-0.677,0.365-0.754,0.869-0.324
	c0.187,0.159,0.319,0.384,0.501,0.549c0.097,0.09,0.249,0.22,0.396,0.1c0.144-0.121,0.047-0.274-0.026-0.405
	C40.937,17.477,40.065,17.299,39.14,18.066z M42.104,15.557c-0.19,0.549-0.233,1.064,0.28,1.49c0.194,0.162,0.143,0.414,0.143,0.635
	c0,0.259-0.025,0.58-0.344,0.564c-0.417-0.021-0.261-0.344-0.172-0.564c0.106-0.258,0.012-0.447-0.177-0.595
	c-0.673-0.539-0.537-1.098-0.06-1.674C41.884,15.46,41.992,15.508,42.104,15.557z M123.034,91.14
	c-0.003-0.105-0.006-0.211-0.014-0.315c0.271-0.27-0.044-0.688,0.287-1.005c0.209,0.257,0.353,0.49,0.46,0.81
	c0.187,0.563,0.358,1.194,1.066,1.393v-0.011c0.018,1.257,1.057,1.942,1.644,2.877l0,0c-0.043,0.311,0.064,0.584,0.189,0.861
	c0.858,1.899,1.523,3.867,2.044,5.877c0.299,1.154,0.474,2.338,0.757,3.489c0.362,1.476,0.754,2.881-0.298,4.237
	c-0.222,0.287-0.233,0.688,0.158,0.812c1.133,0.359,1.511,1.177,1.727,2.257c0.125,0.618,0.346,1.33,1.017,1.696l0.006,0.008
	c-0.028,0.918,0.733,1.471,1.085,2.212c0.334,0.697,0.707,1.335,0.742,2.135c0.055,1.142,0.213,2.275,0.248,3.415
	c0.054,1.7,0.779,3.187,1.501,4.654c0.27,0.551,0.443,1.258,1.156,1.514l-0.004,0.004c0.004,0.306,0.124,0.557,0.304,0.816
	c0.629,0.907,1.289,1.807,1.82,2.771c1.097,1.999,1.4,4.288,2.287,6.377c0.541,1.269,0.891,2.602,1.53,3.859
	c0.5,0.988,0.962,2.037,1.327,3.109c0.137,0.401,0.105,0.985,0.715,1.124c0,0,0.007,0.021,0.007,0.017
	c-0.09,0.466,0.381,0.998-0.209,1.423c-0.113,0.083,0.128,0.215,0.28,0.156c0.185-0.071,0.31-0.264,0.531-0.248
	c0.407,0.654,0.729,1.36,1.229,1.96c0.509,0.618,1.131,1.101,1.949,1.16c2.053,0.155,4.089,0.492,6.151,0.497
	c1.168,0.003,2.305-0.134,3.44-0.354c1.539-0.295,1.68-0.213,2.103,1.279c-0.224,0.662-0.79,1.001-1.314,1.365
	c-1.622,1.127-3.416,1.921-5.254,2.624l-0.066-0.02l-0.046,0.056l0.015-0.009c-0.346,0.053-0.689,0.109-1.036,0.159
	c-1.955,0.286-3.674,0.985-4.808,2.704c-1.176,0.96-2.329,1.959-4.016,1.796c-0.869-0.431-1.35-1.15-1.591-2.063
	c-0.213-0.798-0.335-1.607-0.45-2.424c-0.242-1.724-1.332-3.05-2.209-4.462c-1.993-3.19-4.396-6.085-6.821-8.951
	c-3.346-3.953-5.395-8.486-6.383-13.542c-0.408-2.077-0.94-4.141-1.917-6.058c-0.466-0.922-1.159-1.687-1.713-2.549
	c-1.058-1.666-1.154-3.594-1.535-5.437c-0.07-0.333,0.046-0.747,0.252-1.08c0.445-0.342,0.756-0.867,0.785-1.341
	c0.05-0.885,0-1.742,0.708-2.425c0.075-0.074,0.105-0.229,0.105-0.345c-0.008-1.269,0.218-2.504,0.423-3.753
	c0.292-1.807,0.383-3.655,0.35-5.502c-0.027-1.52-0.024-3.038,0-4.558c0.022-1.423-0.296-2.815-0.348-4.231
	C123.396,91.708,123.445,91.284,123.034,91.14z M123.445,117.569c0.405,0.005,0.777-0.133,0.958-0.487
	c0.173-0.337,0.173-0.724-0.05-1.07c-0.406-0.641-1.143-0.978-1.532-1.635c-0.062-0.104-0.221-0.129-0.335-0.03
	c-0.096,0.084-0.058,0.189,0,0.271c0.148,0.198,0.283,0.417,0.467,0.578c0.358,0.316,0.699,0.639,0.955,1.046
	c0.259,0.416-0.066,0.613-0.322,0.783c-0.353,0.226-0.578-0.032-0.706-0.317c-0.074-0.171-0.032-0.394-0.051-0.589
	c-0.012-0.186,0.076-0.456-0.232-0.451c-0.244,0.001-0.3,0.245-0.341,0.435C122.124,116.732,122.809,117.561,123.445,117.569z
	 M126.086,113.008c0.367-0.073,0.162,0.885,0.629,0.314c0.184-0.224,0.247-0.816-0.168-1.076c-0.389-0.236-0.656,0.086-0.877,0.362
	c-0.252,0.317-0.312,0.649-0.121,1.044c0.458,0.948,1.522,1.021,2.236,0.132c0.111-0.14,0.275-0.285,0.136-0.451
	c-0.187-0.224-0.354-0.043-0.506,0.089c-0.097,0.081-0.193,0.165-0.274,0.259c-0.25,0.301-0.527,0.348-0.856,0.123
	C125.953,113.577,125.961,113.307,126.086,113.008z M129.931,111.637c-0.247-0.517-0.628-0.875-1.075-1.123
	c-0.396-0.215-0.858-0.326-1.226,0.11c-0.396,0.467-0.381,1.012-0.035,1.447c0.302,0.382,0.754,0.683,1.32,0.448
	c0.204-0.082,0.487-0.198,0.384-0.465c-0.129-0.325-0.347-0.101-0.537,0.002c-0.497,0.265-0.697-0.146-0.877-0.445
	c-0.162-0.272-0.019-0.584,0.262-0.689c0.407-0.154,0.716,0.142,0.98,0.39C129.349,111.519,129.518,111.759,129.931,111.637z
	 M124.564,113.738c-0.201,0.114-0.331,0.276-0.362,0.524c-0.082,0.62,0.327,0.953,0.75,1.273c0.162,0.12,0.302,0.473,0.524,0.268
	c0.244-0.229-0.021-0.426-0.226-0.588c-0.399-0.321-0.78-0.654-0.481-1.253C124.827,113.84,124.744,113.723,124.564,113.738z
	 M147.761,158.887c1.134-1.719,2.853-2.418,4.808-2.704c0.347-0.05,0.69-0.106,1.036-0.159
	C151.72,157.109,149.842,158.199,147.761,158.887z M153.59,156.033l0.046-0.056l0.066,0.02
	C153.666,156.011,153.627,156.024,153.59,156.033z M127.426,50.188c-0.406,0.52-0.624,1.136-0.895,1.723
	c-1.152,2.515-2.689,4.892-3.03,7.708c-0.279,2.314-0.814,4.569-1.374,6.826c-0.366,1.48-0.785,2.979-0.698,4.505
	c0.247,4.284-0.105,8.6,0.695,12.858c0.24,1.275,0.226,2.592-0.012,3.884c-0.404,2.208-0.006,4.384,0.198,6.57
	c0.612,6.536,0.134,12.971-1.922,19.25c-0.964-1.517-2.088-2.927-3.09-4.409c-0.833-1.232-1.377-2.65-2.056-3.983
	c-1.028-2.022-2.042-4.055-3.102-6.063c-0.589-1.119-0.873-2.335-1.271-3.517c-0.308-0.919-0.617-1.835-1.177-2.647
	c-0.41-0.597-0.942-0.792-1.623-0.683c-1.338,0.216-2.347,0.896-3.108,2.027c-2,2.99-4.171,5.859-6.365,8.71
	c-1.845,2.395-3.831,4.689-5.395,7.285c-0.089,0.151-0.155,0.255-0.334,0.14c-0.065-2.646,0.04-5.298,0.05-7.945
	c0.015-2.8,0.008-5.597,0.199-8.393c0.265-3.857,1.067-7.6,2.457-11.218c0.712-1.854,0.791-3.806,0.844-5.75
	c0.051-1.773,0.18-3.54,0.288-5.312c0.097-1.66-0.19-3.286-0.539-4.898c-0.555-2.564-1.02-5.142-1.357-7.743
	c-0.149-1.147-0.621-2.205-1.011-3.288c0.53,0.209,1.054,0.538,1.632,0.148c0.201-0.137,0.518-0.311,0.371-0.569
	c-0.202-0.353-0.42-0.035-0.597,0.109c-0.308,0.257-0.61,0.238-0.857-0.057c-0.238-0.285-0.28-0.592,0.05-0.876
	c0.209,0.236-0.022,0.813,0.41,0.676c0.33-0.104,0.114-0.621,0.125-0.954c0.008-0.266-0.147-0.38-0.453-0.333
	c-0.667,0.107-0.828,0.629-1.029,1.136c-0.808-1.342-1.249-2.85-1.986-4.226c0.015-0.129-0.024-0.233-0.144-0.296l-0.003-0.003
	c-0.191-1.021-0.739-1.889-1.253-2.76c-0.746-1.266-1.46-2.575-2.771-3.399c-0.71-0.443-1.549-0.603-2.268-1.011
	c-0.891-0.508-1.913-0.601-2.835-1.009c-0.984-0.434-2.018-0.763-2.98-1.254c2.596-0.628,5.22-1.079,7.869-1.396
	c1.432-0.168,2.872-0.14,4.308-0.12c0.764,0.011,1.51-0.048,2.224-0.34c0.818-0.336,1.68-0.305,2.538-0.289
	c1.114,0.022,2.23-0.02,3.297-0.353c2.018-0.63,3.769-1.591,4.307-3.89c1.191,0.865,2.308,1.678,3.604,2.188
	c1.174,0.465,2.38,0.461,3.528-0.052c1.31-0.588,2.535-1.329,3.562-2.333c0.27,0.061,0.193,0.289,0.238,0.435
	c0.849,2.534,2.941,3.392,5.307,3.865c0.692,0.14,1.403,0.167,2.112,0.135c1.091-0.044,2.163,0.016,3.189,0.449
	c0.327,0.141,0.683,0.185,1.041,0.168c4.043-0.205,7.983,0.486,11.917,1.285c0.316,0.067,0.666,0.008,0.941,0.233
	c-1.582,0.796-3.216,1.48-4.877,2.099c-1.079,0.399-2.154,0.821-3.183,1.331c-1.898,0.943-2.638,2.792-3.431,4.568
	C127.56,49.457,127.279,49.779,127.426,50.188z M82.648,104.512c0.492-2.043,1.307-3.972,2.126-5.897
	c1.316-3.091,3-5.97,5.122-8.587c1.052-1.299,2.201-2.517,3.392-3.693l-0.004-0.004c-0.253,1.269-0.539,2.528-0.753,3.801
	c-0.625,3.65-0.632,7.34-0.644,11.026c-0.003,2.07-0.074,4.136-0.117,6.205c-0.065-0.132-0.147-0.257-0.19-0.395
	c-0.808-2.38-2.965-3.727-5.428-3.655C84.867,103.35,83.715,103.819,82.648,104.512z M82.648,104.512
	c1.067-0.693,2.219-1.162,3.504-1.199c2.463-0.071,4.62,1.275,5.428,3.655c0.042,0.138,0.125,0.263,0.19,0.395
	c0.012,0.949,0.021,1.899,0.031,2.848c-0.447,0.599-0.552,1.42-1.227,1.878c-0.201,0.137-0.326,0.387-0.618,0.377
	c-0.011-0.325,0.036-0.613,0.204-0.926c1.265-2.32,0.802-4.571-1.169-5.968c-1.467-1.035-3.064-1.092-4.57-0.363
	c-1.514,0.732-2.267,2.09-2.042,3.834c0.362,2.772,2.739,3.778,4.889,2.721c1.184-0.585,1.443-1.613,1.334-2.835
	c-0.078-0.854-0.606-1.285-1.299-1.593c-0.761-0.338-1.882,0.015-2.283,0.676c-0.388,0.64-0.267,1.54,0.25,1.999
	c0.285,0.256,0.604,0.27,0.915,0.159c0.372-0.129,0.244-0.416,0.163-0.691c-0.104-0.343,0.075-0.593,0.385-0.721
	c0.387-0.162,0.555,0.155,0.689,0.41c0.232,0.447,0.117,0.884-0.194,1.254c-0.712,0.841-2.6,0.706-3.192-0.229
	c-0.747-1.187-0.574-2.14,0.093-3.23c0.478-0.784,2.201-1.296,3.134-1.01c2.57,0.785,3.601,3.672,1.712,6.001
	c-0.369,0.457-0.933,0.665-1.303,1.105c-0.125,0.007-0.237,0.031-0.301,0.153c-0.162,0.016-0.341-0.018-0.453,0.152
	c-0.405,0.051-0.808,0.107-1.211,0.16c-0.203,0-0.404,0-0.605,0.002c-0.151-0.003-0.302-0.011-0.451-0.014
	c-1.412-0.311-2.506-1.087-3.333-2.25c-0.068-0.265-0.1-0.541-0.315-0.748c-0.081-0.355-0.19-0.71-0.147-1.084
	C81.669,107.867,82.023,106.14,82.648,104.512z M77.673,113.664c-0.097,0.757-0.327,1.471-0.826,2.057
	c-0.459,0.539-0.649,1.17-0.854,1.817c-0.151,0.479-0.832,0.45-1.059,0.923c-0.067,0.138-0.241,0.229-0.283,0.419
	c-0.165,0.726-0.172,0.726-0.893,0.908c-0.026,0.005-0.062,0.021-0.065,0.038c-0.098,0.772-1.105,0.927-1.188,1.729
	c-0.032,0.326-0.104,0.688-0.613,0.7c-0.356,0.007-0.319,0.396-0.403,0.637c-0.063,0.182,0.037,0.483-0.151,0.557
	c-1.129,0.445-1.168,1.704-1.894,2.443c-0.032,0.033-0.085,0.049-0.125,0.074c0.311-1.313,1.137-2.363,1.844-3.472
	c1.35-2.111,3.238-3.799,4.694-5.834C76.543,115.704,76.905,114.565,77.673,113.664z M67.507,131.023
	c-0.017,0.661-0.054,1.293-0.211,1.972c-0.373,1.606-0.958,3.205-0.829,4.899c0.029,0.338-0.207,0.551-0.315,0.821
	c-0.337,0.872-0.224,1.872-0.791,2.676c-0.085,0.119-0.122,0.273-0.063,0.429c0.179,0.521-0.158,0.531-0.522,0.521
	c0.527-1.978,1.02-3.959,1.423-5.963c0.312-1.562,0.688-3.116,1.03-4.673C67.281,131.462,67.324,131.214,67.507,131.023z
	 M93.45,55.106c0.202-0.507,0.362-1.028,1.029-1.136c0.306-0.047,0.461,0.067,0.453,0.333c-0.011,0.333,0.205,0.85-0.125,0.954
	c-0.433,0.137-0.201-0.439-0.41-0.676c-0.33,0.284-0.288,0.591-0.05,0.876c0.247,0.295,0.549,0.314,0.857,0.057
	c0.177-0.145,0.395-0.462,0.597-0.109c0.147,0.259-0.17,0.433-0.371,0.569c-0.578,0.39-1.102,0.061-1.632-0.148
	C93.607,55.624,93.532,55.361,93.45,55.106z M93.661,143.986c0.251,0.133,0.514,0.203,0.802,0.175
	c0.354-0.034,0.527,0.13,0.485,0.482c-0.03,0.229,0.14,0.559-0.174,0.663c-0.376,0.122-0.16-0.422-0.484-0.479
	c-0.144,0.356-0.04,0.718,0.205,0.914s0.57,0.052,0.808-0.191c0.123-0.126,0.291-0.267,0.457-0.109
	c0.203,0.191,0.007,0.357-0.116,0.513c-0.337,0.43-0.826,0.276-1.264,0.317C94.036,145.542,93.866,144.758,93.661,143.986z
	 M64.623,142.787c0.171,0.915-0.422,1.676-0.543,2.541c-0.078,0.555-0.589,1.021-1.288,1.047
	C63.401,145.176,64.011,143.982,64.623,142.787z M69.038,126.434c0.045,0.081,0.153,0.199,0.129,0.241
	c-0.517,0.916-0.399,2.055-1.044,2.917c-0.177,0.231,0.047,0.469-0.097,0.704c-0.147,0.244-0.116,0.604-0.519,0.645
	C67.82,129.374,68.309,127.861,69.038,126.434z M59.319,148.732c0.038,0.423-0.369,0.805-0.537,0.873
	c-0.852,0.351-1.14,1.357-2.037,1.604c-0.031-0.481,0.295-0.772,0.601-1.051C57.949,149.612,58.558,149.069,59.319,148.732z
	 M80.056,110.477c0.097,0.273-0.002,0.485-0.207,0.665c-0.705,0.609-1.285,1.305-1.637,2.178c-0.085,0.209-0.279,0.35-0.539,0.344
	C78.24,112.433,78.973,111.327,80.056,110.477z M61.305,147.449c-0.011,0.37-0.398,0.413-0.57,0.646
	c-0.069,0.097-0.233,0.149-0.263,0.249c-0.187,0.647-0.18,0.647-0.886,0.327c-0.043-0.021-0.097-0.017-0.147-0.026
	C59.998,148.15,60.587,147.705,61.305,147.449z M80.858,109.43c-0.043,0.374,0.066,0.729,0.147,1.084
	c-0.313-0.013-0.628-0.028-0.942-0.044C80.226,110.047,80.428,109.652,80.858,109.43z M62.478,146.672
	c0.065,0.937-0.677,0.677-1.173,0.781C61.686,147.176,62.038,146.855,62.478,146.672z M62.792,146.375
	c0.039,0.24-0.058,0.341-0.302,0.295C62.508,146.491,62.597,146.38,62.792,146.375z M91.887,111.564
	c-0.164-0.196-0.164-0.396-0.009-0.598C91.882,111.167,91.884,111.365,91.887,111.564z M64.783,142.341
	c0.007,0.173,0.054,0.362-0.164,0.453C64.611,142.623,64.607,142.449,64.783,142.341z M91.321,50.585
	c0.12,0.063,0.158,0.167,0.144,0.296C91.332,50.824,91.292,50.722,91.321,50.585z M69.325,125.964
	c-0.05,0.055-0.101,0.11-0.15,0.163C69.224,126.075,69.274,126.019,69.325,125.964z M93.284,86.331
	c0.012-0.015,0.022-0.032,0.035-0.046c-0.009,0.017-0.021,0.031-0.031,0.05L93.284,86.331z M105.406,15.291
	c0.334,0.632,0.356,1.049-0.523,1.288c-0.657,0.18-1.286,0.583-1.502,1.345c-0.028,0.109-0.109,0.243-0.207,0.294
	c-0.854,0.462-0.942,1.3-0.884,2.076c0.076,1.048,0.15,2.081-0.032,3.121c-0.054,0.307-0.163,0.681,0.128,0.92
	c0.291,0.241,0.46-0.245,0.744-0.188l0.012,0.011c-0.049,0.112-0.077,0.236-0.142,0.34c-0.265,0.435-0.8,0.739-0.521,1.416
	c0.094,0.229-0.201,0.304-0.478,0.248c-0.581-0.122-0.756,0.154-0.535,0.671c0.112,0.261,0.084,0.553,0.178,0.793
	c0.183,0.466-0.115,1.208,0.498,1.392c0.772,0.232,0.848,0.776,1.016,1.388c0.546,1.975,1.322,3.793,3.476,4.588
	c0.383,0.14,0.834,0.144,1.133,0.51c0.265,0.329,2.196,0.599,2.345,0.285c0.449-0.96,1.458-0.558,2.11-0.978
	c0.024,0.028,0.047,0.057,0.071,0.087c-0.622,0.473-1.285,0.872-2.02,1.144c-0.658,0.246-1.368,0.346-2.005,0.115
	c-1.913-0.693-3.7-1.596-4.699-3.514c-0.304-0.586-0.437-1.224-0.56-1.858c-0.093-0.456-0.288-0.778-0.695-1.001
	c-0.625-0.336-0.938-0.865-0.998-1.573c-0.058-0.691-0.332-1.357-0.291-2.07c0.017-0.318,0.056-0.694,0.39-0.728
	c0.628-0.067,0.511-0.458,0.503-0.847c-0.028-1.323-0.169-2.643-0.065-3.97c0.159-2.061,1.117-3.59,3.006-4.514
	c0.089-0.044,0.175-0.096,0.257-0.148c0.022-0.013,0.03-0.041,0.131-0.185 M127.426,50.188c-0.146-0.408,0.134-0.73,0.276-1.056
	c0.793-1.776,1.532-3.625,3.431-4.568c1.028-0.51,2.104-0.932,3.183-1.331c1.661-0.619,3.295-1.303,4.877-2.099
	c0.896,0.099,1.798,0.176,2.692,0.303c2.686,0.377,5.309,0.037,7.94-0.525c2.786-0.594,5.596-0.491,8.421-0.15
	c3.076,0.368,6.175,0.63,9.272,0.471c2.034-0.103,3.729-0.996,4.716-2.9c0.406-0.778,0.951-1.366,1.827-1.683
	c0.836-0.3,1.433-1.002,2.15-1.51c0.772-0.551,1.006-0.464,1.35,0.425c-0.054,0.301-0.112,0.601-0.165,0.9
	c-0.029,0.033-0.035,0.069-0.029,0.108c-0.553,0.628-1.31,1.003-1.924,1.552c-0.509,0.451-0.448,0.782,0.191,1.024
	c0.209,0.082,0.435,0.118,0.651,0.177c2.065,0.547,4.075-0.011,6.101-0.303c0.153-0.011,0.309-0.021,0.461-0.031
	c0.598,0.087,1.214-0.055,1.796,0.176c0.248,0.1,0.442,0.244,0.467,0.528c0.03,0.297-0.151,0.466-0.397,0.569
	c-0.255,0.1-0.516,0.209-0.779,0.26c-1.017,0.19-2.04,0.287-3.068,0.313c-0.442,0.011-0.841,0.15-1.247,0.283
	c-0.163,0.055-0.254,0.156-0.239,0.331c0.022,0.185,0.161,0.236,0.317,0.252c0.178,0.015,0.353,0.033,0.528,0.025
	c1.792-0.072,3.562,0.092,5.32,0.411c0.574,0.518,0.616,1.033,0,1.548c-1.964-0.303-3.93-0.552-5.923-0.41
	c-0.062,0.004-0.119,0.08-0.221,0.152c0.831,0.517,1.778,0.569,2.654,0.824c0.697,0.207,1.418,0.349,2.083,0.662
	c0.304,0.141,0.73,0.241,0.595,0.715c-0.126,0.457-0.536,0.523-0.923,0.449c-1.285-0.238-2.568-0.469-3.819-0.866
	c-0.286-0.09-0.585-0.145-0.879-0.206c-0.211-0.044-0.483-0.207-0.592,0.092c-0.116,0.313,0.114,0.529,0.377,0.645
	c0.761,0.334,1.525,0.651,2.293,0.974c0.326,0.137,0.652,0.261,0.923,0.499c0.257,0.222,0.389,0.484,0.241,0.795
	c-0.14,0.293-0.45,0.329-0.722,0.263c-0.438-0.104-0.915-0.182-1.288-0.411c-2.044-1.261-4.333-1.372-6.631-1.461
	c-0.66-0.025-1.316-0.086-1.93-0.328c-1.039-0.415-2.068-0.254-3.115-0.046c-2.053,0.408-4.026,1.096-6.02,1.721
	c-3.259,1.028-6.592,1.575-10.018,1.663c-3.029,0.078-6.048-0.236-9.074-0.18c-2.474,0.044-4.915,0.414-7.366,0.65
	c-1.501,0.144-2.966,0.011-4.43-0.292c-0.88-0.181-1.748-0.434-2.681-0.233C128.437,49.496,127.946,49.854,127.426,50.188z
	 M170.183,26.528c-0.126,0.007-0.249,0.015-0.373,0.02c-0.508,0.042-1.013,0.093-1.427,0.437l-0.047-0.009l-0.043,0.022
	c-0.37,0.027-0.648,0.232-0.922,0.451c-3.693,1.742-7.136,3.907-10.593,6.059c-2.786,1.734-5.793,3.039-9.072,3.583
	c-1.518,0.254-2.774,1.029-4.045,1.788c-0.849,0.507-1.78,0.823-2.653,1.266c-0.352,0.177-0.745,0.089-1.12,0.021
	c-3.064-0.573-6.112-1.246-9.231-1.512c-1.39-0.118-2.774-0.021-4.16-0.079c-0.251-0.011-0.527,0.024-0.746-0.072
	c-1.341-0.58-2.751-0.558-4.169-0.545c-0.828,0.009-1.647-0.097-2.505-0.39c0.299-0.331,0.688-0.359,1.013-0.479
	c1.644-0.617,3.155-1.55,4.925-1.881c1.832-0.342,3.646-0.504,5.472-0.107c1.133,0.25,2.142,0.172,3.166-0.463
	c2.052-1.272,4.313-2.052,6.704-2.427c2.147-0.337,3.987-1.189,5.655-2.612c2.724-2.333,5.982-3.645,9.476-4.421
	c2.43-0.541,4.855-1.1,7.288-1.654c0.341-0.08,0.679-0.184,1.01-0.306c0.694-0.26,1.214-0.601,1.486-1.423
	c0.573-1.73,1.465-3.29,3.256-4.137c0.42-0.199,0.762-0.562,1.138-0.85c0.2-0.031,0.367-0.114,0.456-0.303h0.005
	c0.157-0.062,0.325-0.111,0.477-0.185c0.358-0.178,0.731-0.433,1.124-0.181c0.427,0.274,0.183,0.717,0.168,1.094
	c-0.036,0.055-0.072,0.113-0.109,0.17c-0.017,0.052-0.034,0.107-0.051,0.159c-0.438,1.941,0.509,4.921,3.396,5.693
	c-0.368,0.397-0.733,0.794-1.096,1.197c-0.78,0.857-1.915,1.105-2.875,1.648c-0.052,0.016-0.098,0.028-0.147,0.041
	c-0.047,0.039-0.094,0.076-0.145,0.115l0,0C170.617,26.284,170.336,26.251,170.183,26.528z M177.411,15.708
	c0.137,0.004,0.269,0.004,0.405,0.004c0.343,0.205,0.867,0.033,1.088,0.502c-0.105,0.418-0.306,0.843,0.249,1.14
	c0.081,0.045,0.034,0.322,0.046,0.49c-0.406-0.048-0.615-0.409-0.941-0.584c-0.743-0.398-1.543-0.198-2.167,0.584
	c-0.539,0.669-0.504,1.401,0.074,2.011c0.283,0.303,0.628,0.314,0.966,0.185c0.37-0.144,0.177-0.436,0.141-0.7
	c-0.074-0.501,0.379-0.77,0.883-0.546c-0.012,0.318-0.381,0.355-0.514,0.632c0.797,0.102,0.435,0.707,0.517,1.124
	c0,0-0.015,0.013-0.015,0.012c-0.042,0.045-0.088,0.092-0.133,0.141c-0.089,0.049-0.176,0.104-0.266,0.153
	c-0.448-0.002-0.899,0.008-1.35-0.009c-0.549-0.019-1.039-0.235-1.363-0.656c-1.188-1.543-0.24-3.824,1.504-4.29
	C176.821,15.824,177.12,15.773,177.411,15.708z M171.733,17.56c0.69-0.084,1.157-0.689,1.848-0.789
	c-0.633,1.299-0.329,3.628,1.099,4.67c0.48,0.351,1.133,0.292,1.501,0.793c-0.058,0.131-0.111,0.265-0.169,0.394
	c-0.098,0.063-0.195,0.124-0.293,0.185c-0.195,0.145-0.395,0.292-0.589,0.44C172.242,22.48,171.295,19.501,171.733,17.56z
	 M176.181,22.234c-0.368-0.501-1.021-0.442-1.501-0.793c-1.428-1.042-1.731-3.371-1.099-4.67c0.434-0.518,1.16-0.571,1.645-1.008
	c0.377-0.139,0.746-0.303,1.133-0.404c0.409-0.111,0.865-0.244,1.053,0.349c-0.291,0.065-0.59,0.116-0.876,0.192
	c-1.744,0.466-2.691,2.747-1.504,4.29c0.324,0.421,0.814,0.637,1.363,0.656c0.45,0.017,0.901,0.007,1.35,0.009
	c-0.015,0.057-0.032,0.109-0.049,0.168c-0.406,0.292-0.784,0.61-1.073,1.023C176.475,22.107,176.328,22.174,176.181,22.234z
	 M111.937,15.749c0.691,0.407,1.386,0.813,2.077,1.22l0.004-0.007c0.054,0.052,0.111,0.101,0.165,0.153l-0.007-0.009
	c0.055,0.049,0.109,0.102,0.167,0.151l-0.009-0.005c0.054,0.046,0.112,0.092,0.164,0.138c0.055,0.05,0.105,0.102,0.155,0.154
	c0.051,0.049,0.098,0.102,0.147,0.153h-0.004c0.051,0.052,0.101,0.107,0.151,0.161c0.081,0.104,0.166,0.207,0.251,0.312
	c0.059,0.196,0.161,0.361,0.334,0.481c-0.007,0.04,0.012,0.071,0.044,0.096c0.034,0.07,0.069,0.14,0.106,0.212
	c0.036,0.089,0.075,0.176,0.114,0.264c0.051,0.145,0.105,0.289,0.155,0.433c0.026,0.098,0.05,0.194,0.075,0.292
	c0.019,0.37-0.075,0.747,0.111,1.1c0.008,1.273,0.015,2.548,0.015,3.824c0,0.27,0.012,0.466,0.381,0.486
	c0.412,0.021,0.513,0.368,0.527,0.708c0.035,1.01-0.271,1.97-0.492,2.939c-0.066,0.293-0.342,0.513-0.606,0.645
	c-0.7,0.341-0.875,0.952-1.013,1.641c-0.314,1.599-1.136,2.863-2.656,3.606c-0.024-0.03-0.047-0.059-0.071-0.087
	c0.326-0.541,0.901-0.84,1.288-1.317c0.276-0.34,0.857-0.599,0.436-1.212c-0.094-0.133-0.005-0.313,0.214-0.248
	c0.32,0.092,0.334-0.109,0.337-0.322c0.013-0.703,0.508-1.242,0.648-1.9c0.039-0.204,0.196-0.488,0.364-0.543
	c1.038-0.35,0.854-1.316,1.013-2.049c0.062-0.286,0.229-0.942-0.115-1.051c-0.673-0.209-0.583-0.604-0.553-1.094
	c0.035-0.571,0.108-1.17-0.018-1.717c-0.187-0.835,0.138-1.698-0.168-2.487c-0.176-0.455-0.758-0.788-0.132-1.331
	c0.105-0.094-0.06-0.31-0.166-0.458c-0.826-1.12-1.756-2.105-3.081-2.669c-0.194-0.085-0.753-0.185-0.373-0.675L111.937,15.749z
	 M182.387,39.022c-2.025,0.292-4.035,0.85-6.101,0.303c-0.217-0.059-0.442-0.096-0.651-0.177c-0.64-0.242-0.7-0.573-0.191-1.024
	c0.614-0.549,1.371-0.924,1.924-1.552c0.048,0.266,0.004,0.563-0.239,0.656c-0.632,0.239-0.586,1.207-1.397,1.233
	c-0.101,0.004-0.128,0.133-0.086,0.24c0.072,0.17,0.168,0.294,0.377,0.318c1.665,0.192,3.331,0.233,4.99-0.07
	C181.474,38.863,181.94,38.751,182.387,39.022z M175.13,23.253c0.194-0.148,0.394-0.296,0.589-0.44
	c-0.084,0.628,0.311,0.655,0.752,0.556c0.334-0.071,0.653-0.208,1.037,0.002c-0.348,0.318-0.71,0.343-1.082,0.33
	c-0.913-0.03-1.71,0.266-2.217,1.02c-0.402,0.606-1.207,0.65-1.602,1.316c-0.132,0.224-0.946,0.054-1.448,0.063
	c0.96-0.543,2.095-0.791,2.875-1.648C174.396,24.047,174.762,23.65,175.13,23.253z M179.199,17.845
	c-0.012-0.168,0.035-0.445-0.046-0.49c-0.555-0.297-0.354-0.722-0.249-1.14c0.1-0.009,0.202-0.016,0.303-0.025l-0.016,0.022
	c0.058,0.038,0.118,0.077,0.176,0.114c0.384,0.345,0.722,0.726,0.965,1.182c-0.462,0.004-0.889,0.045-0.965,0.642
	c-0.039,0.331-0.338,0.387-0.599,0.46l-0.048-0.042C178.773,18.259,179.234,18.211,179.199,17.845z M39.14,18.066
	c0.925-0.767,1.797-0.59,2.361,0.481c0.073,0.13,0.17,0.284,0.026,0.405c-0.147,0.12-0.299-0.01-0.396-0.1
	c-0.183-0.165-0.315-0.39-0.501-0.549c-0.503-0.431-0.697-0.354-0.869,0.324C39.483,18.518,39.194,18.422,39.14,18.066z
	 M178.157,20.55c-0.082-0.417,0.28-1.022-0.517-1.124c0.133-0.276,0.502-0.314,0.514-0.632c0.191-0.076,0.381-0.151,0.566-0.227
	l0.048,0.042c-0.093,0.455-0.221,0.902-0.177,1.375C178.625,20.29,178.503,20.51,178.157,20.55z M177.396,36.464
	c0.053-0.299,0.111-0.599,0.165-0.9c0.711-0.079,0.656,0.429,0.549,0.815C177.997,36.782,177.605,36.121,177.396,36.464z
	 M176.181,22.234c0.147-0.061,0.294-0.127,0.441-0.188c0.104,0.001,0.207,0.005,0.309,0.005c-0.177,0.396-0.279,0.904-0.919,0.577
	C176.069,22.499,176.123,22.365,176.181,22.234z M176.931,22.051c-0.102,0-0.205-0.004-0.309-0.005
	c0.289-0.413,0.667-0.73,1.073-1.023C177.698,21.553,177.22,21.733,176.931,22.051z M168.383,26.984
	c0.414-0.343,0.919-0.394,1.427-0.437C169.465,27.108,168.861,26.844,168.383,26.984z M167.371,27.448
	c0.273-0.218,0.552-0.423,0.922-0.451C168.218,27.615,167.74,27.421,167.371,27.448z M170.183,26.528
	c0.153-0.277,0.435-0.244,0.685-0.273C170.783,26.7,170.439,26.515,170.183,26.528z M116.14,21.048
	c-0.187-0.353-0.093-0.73-0.111-1.1C116.295,20.292,116.14,20.678,116.14,21.048z M170.12,16.503
	c-0.089,0.188-0.256,0.271-0.456,0.303C169.668,16.482,169.888,16.482,170.12,16.503z M181.022,20.698
	c-0.111-0.02-0.24-0.018-0.23-0.183c0-0.017,0.029-0.044,0.046-0.044c0.17-0.01,0.163,0.116,0.185,0.224V20.698z M181.022,20.695
	c0.106,0.022,0.237,0.018,0.229,0.181c-0.004,0.019-0.03,0.048-0.05,0.048c-0.167,0.011-0.163-0.118-0.18-0.226V20.695z
	 M114.334,17.251c0.054,0.046,0.112,0.092,0.164,0.138C114.446,17.344,114.388,17.297,114.334,17.251z M114.176,17.106
	c0.055,0.049,0.109,0.102,0.167,0.153C114.285,17.208,114.23,17.157,114.176,17.106z M114.018,16.961
	c0.054,0.052,0.111,0.101,0.165,0.153C114.129,17.063,114.071,17.013,114.018,16.961z M178.01,20.703
	c0.045-0.049,0.091-0.095,0.133-0.141C178.101,20.607,178.055,20.654,178.01,20.703z M115.577,18.747
	c0.034,0.07,0.069,0.14,0.106,0.212C115.646,18.887,115.611,18.817,115.577,18.747z M171.012,26.14
	c-0.047,0.039-0.094,0.076-0.145,0.115C170.918,26.216,170.965,26.179,171.012,26.14z M114.801,17.697
	c-0.05-0.052-0.097-0.104-0.147-0.153C114.704,17.593,114.751,17.645,114.801,17.697z M114.797,17.697
	c0.051,0.052,0.101,0.107,0.151,0.161C114.897,17.804,114.848,17.749,114.797,17.697z M87.674,113.058
	c0.37-0.44,0.934-0.648,1.303-1.105c1.889-2.329,0.857-5.216-1.712-6.001c-0.934-0.286-2.657,0.226-3.134,1.01
	c-0.667,1.091-0.839,2.044-0.093,3.23c0.593,0.936,2.48,1.07,3.192,0.229c0.311-0.37,0.426-0.807,0.194-1.254
	c-0.135-0.255-0.303-0.572-0.689-0.41c-0.31,0.128-0.489,0.378-0.385,0.721c0.082,0.275,0.209,0.563-0.163,0.691
	c-0.311,0.11-0.63,0.097-0.915-0.159c-0.517-0.459-0.638-1.359-0.25-1.999c0.401-0.661,1.521-1.014,2.283-0.676
	c0.693,0.308,1.221,0.739,1.299,1.593c0.109,1.222-0.15,2.25-1.334,2.835c-2.15,1.058-4.527,0.052-4.889-2.721
	c-0.226-1.744,0.528-3.102,2.042-3.834c1.505-0.729,3.103-0.672,4.57,0.363c1.972,1.396,2.434,3.647,1.169,5.968
	c-0.167,0.313-0.214,0.601-0.204,0.926C89.26,112.91,88.608,113.512,87.674,113.058z M81.32,111.262
	c0.826,1.163,1.92,1.939,3.333,2.25c-0.873,0.558-2.246-0.382-3.031-1.299C81.417,111.974,81.073,111.685,81.32,111.262z
	 M85.104,113.526c0.201-0.002,0.403-0.002,0.605-0.002C85.507,113.945,85.305,113.945,85.104,113.526z M86.92,113.364
	c0.111-0.17,0.291-0.137,0.453-0.152C87.315,113.54,87.172,113.614,86.92,113.364z M132.071,114.118
	c-0.671-0.366-0.892-1.078-1.017-1.696c-0.216-1.08-0.594-1.897-1.727-2.257c-0.392-0.124-0.38-0.524-0.158-0.812
	c1.052-1.356,0.66-2.762,0.298-4.237c-0.283-1.151-0.458-2.335-0.757-3.489c-0.521-2.01-1.186-3.978-2.044-5.877
	c-0.125-0.277-0.232-0.551-0.189-0.861c0.527,0.688,0.78,1.505,1.085,2.287c1.378,3.529,2.117,7.224,2.803,10.932
	C130.742,110.157,131.021,112.247,132.071,114.118z M123.034,91.14c0.411,0.144,0.361,0.567,0.367,0.823
	c0.052,1.416,0.37,2.809,0.348,4.231c-0.024,1.52-0.027,3.038,0,4.558c0.033,1.847-0.058,3.695-0.35,5.502
	c-0.205,1.249-0.431,2.484-0.423,3.753c0,0.116-0.03,0.271-0.105,0.345c-0.708,0.683-0.658,1.54-0.708,2.425
	c-0.029,0.474-0.34,0.999-0.785,1.341c0.373-1.553,0.756-3.104,1.122-4.655c0.57-2.416,0.841-4.863,1.001-7.336
	c0.235-3.585-0.063-7.139-0.48-10.688C123.008,91.339,123.031,91.24,123.034,91.14z M144.789,146.117
	c-0.609-0.139-0.578-0.723-0.715-1.124c-0.365-1.072-0.827-2.121-1.327-3.109c-0.64-1.258-0.989-2.591-1.53-3.859
	c-0.887-2.089-1.19-4.378-2.287-6.377c-0.531-0.965-1.191-1.864-1.82-2.771c-0.18-0.26-0.3-0.511-0.304-0.816
	c1.114,1.073,1.82,2.415,2.495,3.776c0.844,1.704,1.288,3.556,1.927,5.336c1.026,2.863,2.27,5.636,3.409,8.45
	C144.702,145.78,144.738,145.954,144.789,146.117z M136.81,128.055c-0.713-0.256-0.887-0.963-1.156-1.514
	c-0.722-1.468-1.447-2.954-1.501-4.654c-0.035-1.14-0.193-2.273-0.248-3.415c-0.035-0.8-0.408-1.438-0.742-2.135
	c-0.352-0.741-1.113-1.294-1.085-2.212c1.434,1.516,2.147,3.319,2.251,5.391c0.087,1.664,0.064,3.344,0.661,4.945
	c0.365,0.988,0.84,1.922,1.428,2.796C136.585,127.507,136.762,127.747,136.81,128.055z M124.834,92.022
	c-0.708-0.198-0.88-0.829-1.066-1.393c-0.107-0.319-0.251-0.553-0.46-0.81c-0.331,0.317-0.017,0.735-0.287,1.005
	c-0.098-0.691-0.025-1.378,0.135-2.119C123.714,89.81,124.272,90.917,124.834,92.022z M126.478,94.888
	c-0.587-0.935-1.626-1.62-1.644-2.877C125.589,92.856,126.14,93.813,126.478,94.888z M145.398,147.464
	c-0.222-0.016-0.347,0.177-0.531,0.248c-0.152,0.059-0.394-0.073-0.28-0.156c0.59-0.425,0.119-0.957,0.209-1.423
	C145.067,146.547,145.328,146.965,145.398,147.464z M123.445,117.569c-0.637-0.008-1.321-0.837-1.189-1.468
	c0.041-0.189,0.097-0.434,0.341-0.435c0.309-0.005,0.221,0.266,0.232,0.451c0.019,0.195-0.023,0.418,0.051,0.589
	c0.128,0.285,0.354,0.543,0.706,0.317c0.256-0.17,0.581-0.367,0.322-0.783c-0.256-0.407-0.597-0.729-0.955-1.046
	c-0.184-0.161-0.318-0.38-0.467-0.578c-0.058-0.081-0.096-0.187,0-0.271c0.114-0.099,0.273-0.073,0.335,0.03
	c0.39,0.657,1.126,0.994,1.532,1.635c0.223,0.347,0.223,0.733,0.05,1.07C124.223,117.436,123.851,117.574,123.445,117.569z
	 M126.086,113.008c-0.125,0.299-0.133,0.568,0.198,0.796c0.329,0.225,0.606,0.178,0.856-0.123c0.081-0.094,0.178-0.178,0.274-0.259
	c0.151-0.132,0.319-0.313,0.506-0.089c0.14,0.166-0.024,0.312-0.136,0.451c-0.714,0.889-1.778,0.816-2.236-0.132
	c-0.19-0.395-0.131-0.727,0.121-1.044c0.221-0.276,0.488-0.599,0.877-0.362c0.415,0.26,0.352,0.853,0.168,1.076
	C126.248,113.893,126.453,112.935,126.086,113.008z M129.931,111.637c-0.413,0.122-0.582-0.118-0.804-0.325
	c-0.265-0.248-0.573-0.544-0.98-0.39c-0.28,0.105-0.424,0.417-0.262,0.689c0.18,0.299,0.38,0.71,0.877,0.445
	c0.19-0.103,0.408-0.327,0.537-0.002c0.104,0.267-0.18,0.383-0.384,0.465c-0.566,0.234-1.019-0.066-1.32-0.448
	c-0.346-0.436-0.36-0.98,0.035-1.447c0.367-0.437,0.83-0.325,1.226-0.11C129.303,110.762,129.684,111.121,129.931,111.637z
	 M124.564,113.738c0.18-0.015,0.263,0.103,0.205,0.225c-0.299,0.599,0.082,0.932,0.481,1.253c0.204,0.162,0.47,0.358,0.226,0.588
	c-0.223,0.205-0.362-0.147-0.524-0.268c-0.423-0.32-0.832-0.653-0.75-1.273C124.233,114.014,124.363,113.852,124.564,113.738z
	 M179.207,16.189c-0.101,0.009-0.203,0.016-0.303,0.025c-0.221-0.47-0.745-0.298-1.088-0.502c0.22-0.449,0.632-0.48,1.034-0.392
	C179.339,15.427,179.177,15.859,179.207,16.189z M179.191,16.211c0.058,0.038,0.118,0.077,0.176,0.114
	C179.31,16.288,179.249,16.249,179.191,16.211z M111.918,15.736c-0.38,0.49,0.179,0.59,0.373,0.675
	c1.325,0.563,2.255,1.549,3.081,2.669c0.106,0.148,0.271,0.364,0.166,0.458c-0.626,0.543-0.044,0.876,0.132,1.331
	c0.306,0.789-0.019,1.652,0.168,2.487c0.126,0.547,0.053,1.146,0.018,1.717c-0.03,0.49-0.12,0.885,0.553,1.094
	c0.345,0.109,0.177,0.765,0.115,1.051c-0.158,0.733,0.025,1.699-1.013,2.049c-0.168,0.055-0.325,0.339-0.364,0.543
	c-0.141,0.658-0.636,1.197-0.648,1.9c-0.003,0.212-0.017,0.414-0.337,0.322c-0.219-0.065-0.308,0.114-0.214,0.248
	c0.422,0.613-0.159,0.873-0.436,1.212c-0.387,0.477-0.962,0.776-1.288,1.317c-0.652,0.42-1.661,0.018-2.11,0.978
	c-0.148,0.314-2.08,0.044-2.345-0.285c-0.299-0.366-0.75-0.37-1.133-0.51c-2.153-0.795-2.93-2.613-3.476-4.588
	c-0.168-0.611-0.244-1.155-1.016-1.388c-0.613-0.185-0.315-0.926-0.498-1.392c-0.094-0.24-0.065-0.532-0.178-0.793
	c-0.221-0.517-0.046-0.792,0.535-0.671c0.277,0.056,0.571-0.019,0.478-0.248c-0.279-0.676,0.256-0.981,0.521-1.416
	c0.065-0.104,0.093-0.228,0.142-0.34c0.347-0.055,0.548-0.257,0.606-0.599c0.441-0.088,0.656-0.447,0.907-0.756
	c0.051-0.048,0.101-0.098,0.151-0.147c0.05-0.1,0.104-0.198,0.154-0.297c0.099-0.052,0.2-0.104,0.301-0.155
	c0.05-0.049,0.1-0.1,0.155-0.148c0.007-0.026,0.019-0.048,0.023-0.07c-0.009,0.019-0.023,0.037-0.039,0.055
	c-0.049,0.051-0.1,0.1-0.15,0.152c-0.103,0.051-0.203,0.1-0.304,0.151c-0.05,0.1-0.101,0.2-0.151,0.299
	c-0.05,0.052-0.1,0.1-0.15,0.148c-0.502,0.017-0.783,0.292-0.912,0.754c-0.349,0.055-0.552,0.252-0.603,0.603
	c-0.284-0.057-0.453,0.429-0.744,0.188c-0.291-0.24-0.183-0.613-0.128-0.92c0.182-1.041,0.108-2.073,0.032-3.121
	c-0.058-0.776,0.029-1.614,0.884-2.076c0.097-0.051,0.179-0.185,0.207-0.294c0.216-0.763,0.845-1.166,1.502-1.345
	c0.879-0.239,0.857-0.656,0.523-1.288 M105.855,21.589c-0.007,0.024-0.019,0.048-0.025,0.073c0.011-0.021,0.025-0.039,0.039-0.059
	c0.011-0.024,0.019-0.048,0.03-0.072C105.883,21.553,105.869,21.571,105.855,21.589z M102.876,20.528
	c0.121-0.295,0.175-0.499-0.089-0.688C102.667,20.089,102.611,20.282,102.876,20.528z M171.784,17.401
	c0.037-0.057,0.073-0.115,0.109-0.17C171.857,17.286,171.821,17.344,171.784,17.401z M178.721,18.568
	c-0.186,0.075-0.375,0.151-0.566,0.227c-0.504-0.224-0.957,0.044-0.883,0.546c0.036,0.264,0.229,0.556-0.141,0.7
	c-0.338,0.13-0.683,0.119-0.966-0.185c-0.578-0.61-0.613-1.342-0.074-2.011c0.624-0.782,1.424-0.982,2.167-0.584
	c0.326,0.175,0.535,0.536,0.941,0.584C179.234,18.211,178.773,18.259,178.721,18.568z M104.657,22.803
	c-0.251,0.309-0.466,0.668-0.907,0.756l-0.016-0.015c0.129-0.462,0.41-0.738,0.912-0.754
	C104.646,22.792,104.657,22.803,104.657,22.803z M102.876,20.528c-0.265-0.246-0.209-0.439-0.089-0.688
	C103.051,20.029,102.997,20.233,102.876,20.528z M103.75,23.56c-0.059,0.342-0.26,0.544-0.606,0.599l-0.012-0.011
	c0.051-0.35,0.254-0.547,0.603-0.603L103.75,23.56z M104.948,22.343c0.101-0.051,0.201-0.1,0.304-0.151l0.011,0.011
	c-0.101,0.051-0.202,0.104-0.301,0.155L104.948,22.343z M104.796,22.643c0.051-0.1,0.101-0.2,0.151-0.299l0.015,0.015
	c-0.05,0.1-0.104,0.198-0.154,0.297L104.796,22.643z M105.252,22.192c0.05-0.052,0.101-0.102,0.15-0.152l0.016,0.015
	c-0.055,0.048-0.104,0.099-0.155,0.148L105.252,22.192z M105.402,22.04c0.016-0.018,0.03-0.037,0.039-0.055
	c-0.005,0.022-0.017,0.044-0.023,0.07L105.402,22.04z M105.869,21.604c-0.014,0.02-0.028,0.038-0.039,0.059
	c0.007-0.025,0.019-0.049,0.025-0.073L105.869,21.604z M105.855,21.589c0.014-0.019,0.028-0.037,0.043-0.057
	c-0.011,0.024-0.019,0.047-0.03,0.072L105.855,21.589z M104.808,22.656c-0.051,0.05-0.101,0.1-0.151,0.147
	c0,0-0.011-0.011-0.011-0.013c0.05-0.048,0.101-0.096,0.15-0.148L104.808,22.656z"/>
<text transform="matrix(1 0 0 1 -139.9258 -28.5752)" font-family="'Arial-BoldMT'" font-size="37.9957">3</text>
</svg>
