<?xml version="1.0" encoding="utf-8"?>
<!-- Generator: Adobe Illustrator 16.0.0, SVG Export Plug-In . SVG Version: 6.00 Build 0)  -->
<!DOCTYPE svg PUBLIC "-//W3C//DTD SVG 1.1//EN" "http://www.w3.org/Graphics/SVG/1.1/DTD/svg11.dtd">
<svg version="1.1" id="Layer_1" xmlns="http://www.w3.org/2000/svg" xmlns:xlink="http://www.w3.org/1999/xlink" x="0px" y="0px"
	 width="216px" height="176.601px" viewBox="0 0 216 176.601" enable-background="new 0 0 216 176.601" xml:space="preserve">
<text transform="matrix(1 0 0 1 -426.8892 74.4136)" font-family="'Semakin-Regular'" font-size="33.4969">CREATIONS</text>
<text transform="matrix(1 0 0 1 -401.9692 30.3247)" font-family="'Semakin-Regular'" font-size="33.4969">KAOTIC</text>
<g>
	
		<polygon fill-rule="evenodd" clip-rule="evenodd" fill="none" stroke="#050606" stroke-width="0.4165" stroke-miterlimit="10" points="
		119.228,53.037 94.029,53.023 106.653,7.175 	"/>
	<polyline fill-rule="evenodd" clip-rule="evenodd" points="106.653,6.981 94.081,52.842 106.587,52.835 	"/>
</g>
<g>
	
		<polygon fill-rule="evenodd" clip-rule="evenodd" fill="none" stroke="#050606" stroke-width="0.4165" stroke-miterlimit="10" points="
		141.606,73.203 123.634,55.54 164.763,31.667 	"/>
	<polyline fill-rule="evenodd" clip-rule="evenodd" points="164.897,31.529 123.796,55.446 132.726,64.203 	"/>
</g>
<g>
	
		<polygon fill-rule="evenodd" clip-rule="evenodd" fill="none" stroke="#050606" stroke-width="0.4165" stroke-miterlimit="10" points="
		142.79,102.153 142.767,76.955 188.632,89.512 	"/>
	<polyline fill-rule="evenodd" clip-rule="evenodd" points="188.827,89.512 142.948,77.005 142.974,89.512 	"/>
</g>
<g>
	
		<polygon fill-rule="evenodd" clip-rule="evenodd" fill="none" stroke="#050606" stroke-width="0.4165" stroke-miterlimit="10" points="
		123.503,123.461 141.437,105.763 164.679,147.25 	"/>
	<polyline fill-rule="evenodd" clip-rule="evenodd" points="164.815,147.388 141.53,105.928 132.636,114.722 	"/>
</g>
<g>
	
		<polygon fill-rule="evenodd" clip-rule="evenodd" fill="none" stroke="#050606" stroke-width="0.4165" stroke-miterlimit="10" points="
		94.361,125.405 119.56,125.419 106.935,171.266 	"/>
	<polyline fill-rule="evenodd" clip-rule="evenodd" points="106.935,171.46 119.509,125.6 107.001,125.607 	"/>
</g>
<g>
	
		<polygon fill-rule="evenodd" clip-rule="evenodd" fill="none" stroke="#050606" stroke-width="0.4165" stroke-miterlimit="10" points="
		72.564,106.04 90.364,123.875 49.007,147.348 	"/>
	<polyline fill-rule="evenodd" clip-rule="evenodd" points="48.87,147.486 90.2,123.967 81.354,115.125 	"/>
</g>
<g>
	
		<polygon fill-rule="evenodd" clip-rule="evenodd" fill="none" stroke="#050606" stroke-width="0.4165" stroke-miterlimit="10" points="
		70.743,76.85 70.766,102.047 24.9,89.492 	"/>
	<polyline fill-rule="evenodd" clip-rule="evenodd" points="24.706,89.492 70.585,101.999 70.56,89.492 	"/>
</g>
<g>
	
		<polygon fill-rule="evenodd" clip-rule="evenodd" fill="none" stroke="#050606" stroke-width="0.4165" stroke-miterlimit="10" points="
		90.177,55.087 72.325,72.87 48.891,31.492 	"/>
	<polyline fill-rule="evenodd" clip-rule="evenodd" points="48.752,31.354 72.232,72.706 81.083,63.87 	"/>
</g>
<circle fill="#EFEFEF" stroke="#000000" stroke-width="0.9024" stroke-miterlimit="10" cx="107.431" cy="89.211" r="42.791"/>
<circle fill="none" stroke="#000000" stroke-width="0.833" stroke-miterlimit="10" cx="107.353" cy="89.36" r="39.128"/>
<path fill="#020202" d="M-265.846,127.135c0.009,0.057,0.007,0.125,0.094,0.119c0.01,0,0.024-0.016,0.026-0.025
	c0.004-0.086-0.064-0.084-0.12-0.096c-0.012-0.057-0.008-0.123-0.097-0.118c-0.009,0-0.024,0.015-0.024,0.023
	C-265.972,127.125-265.904,127.125-265.846,127.135z M-311.599,192.276c-0.443-1.654-0.738-3.342-0.573-5.047
	c0.197-2.031,0.132-4.088,0.583-6.094c0.019-0.09,0.036-0.185,0.03-0.275c-0.096-1.458,0.004-2.926-0.28-4.376
	c-0.126-0.643-0.12-1.31-0.175-1.968c0.094,0.061,0.128,0.006,0.175-0.074c0.819-1.371,1.859-2.584,2.825-3.849
	c1.149-1.507,2.286-3.022,3.334-4.603c0.398-0.598,0.927-0.957,1.628-1.071c0.356-0.058,0.635,0.046,0.85,0.36
	c0.293,0.43,0.455,0.914,0.616,1.399c0.209,0.624,0.357,1.267,0.666,1.858c0.555,1.061,1.086,2.134,1.624,3.203
	c0.355,0.704,0.641,1.453,1.077,2.104c0.524,0.784,1.113,1.529,1.618,2.33c-0.114,0.473-0.226,0.946-0.344,1.418
	c-0.269,1.076-0.557,2.15-0.352,3.277c0.085,0.479,0.162,0.956,0.107,1.453c-0.077,0.725-0.357,1.383-0.675,2.016
	c-0.532,1.058-0.677,2.145-0.485,3.305c0.14,0.844,0.297,1.687,0.269,2.551c-0.054,1.703-0.4,3.38-0.455,5.084
	c-0.041,1.306-0.222,2.605-0.18,3.914c0.026,0.805,0.281,1.486,1.062,1.896c0.371,0.193,0.69,0.482,1.036,0.723
	c0.819,0.567,1.666,1.037,2.717,1.061c0.748,0.016,1.496,0.15,2.158,0.561c-0.109,0.188,0.033,0.412-0.087,0.599
	c-0.171,0.303-0.466,0.408-0.778,0.475c-0.141,0.03-0.287,0.027-0.391,0.148c-0.138,0.008-0.274,0.017-0.412,0.024
	c-0.425-0.002-0.852-0.002-1.276-0.002c-0.487,0.037-0.937-0.192-1.417-0.209c-0.352-0.013-0.703-0.08-1.053-0.123
	c-0.228-0.106-0.473-0.117-0.719-0.139c-0.891-0.078-1.733,0.18-2.587,0.367c-0.031,0.029-0.065,0.06-0.098,0.089
	c-0.585-0.015-1.167,0.153-1.75-0.002c-0.038-0.099-0.111-0.146-0.213-0.157c-0.374-0.432-0.323-0.944-0.206-1.432
	c0.232-0.967,0.439-1.93,0.329-2.934c-0.201-1.823-0.516-3.625-0.989-5.398c-0.398-1.493-0.771-2.992-0.801-4.548
	c-0.03-1.666,0.386-3.265,0.756-4.871c0.282-1.224,0.486-2.463,0.25-3.724c-0.154-0.818-0.115-1.627,0.069-2.436
	c0.107-0.464,0.16-0.939,0.146-1.415c-0.053-2.012-0.553-3.976-0.641-5.987c-0.152,0.533-0.276,1.071-0.418,1.604
	c-0.47,1.779-0.838,3.564-0.738,5.428c0.073,1.369-0.192,2.712-0.575,4.021c-0.528,1.812-0.593,3.655-0.266,5.485
	c0.27,1.508,0.205,2.988,0.083,4.492c-0.081,0.984-0.098,1.977-0.104,2.968c-0.009,1.722,0.634,3.353,0.6,5.087
	c-0.015,0.738,0.211,1.529,0.374,2.282c0.113,0.515,0.134,0.98-0.031,1.466c-0.373,0.361-0.824,0.268-1.266,0.224
	c-0.271-0.302-0.447-0.059-0.637,0.108c-0.028-0.006-0.055-0.012-0.083-0.018c-0.064-0.08-0.148-0.072-0.237-0.059
	c-0.053-0.002-0.105-0.002-0.159-0.002c-0.318-0.002-0.634-0.003-0.952-0.005c-0.479-0.029-0.974,0.036-1.429-0.187
	c-0.124-0.16-0.2-0.339-0.24-0.535c0.122-0.563,0.333-1.08,0.687-1.542c0.145-0.188,0.218-0.421,0.269-0.656
	c0.09-0.411,0.163-0.821,0.335-1.214c0.159-0.367,0.015-0.752-0.036-1.131c-0.238-1.848-0.882-3.576-1.538-5.305
	c-0.096-0.258-0.169-0.524-0.252-0.787c0.229-0.021,0.485,0.06,0.662-0.168c0.064-0.082,0.167-0.169,0.061-0.271
	c-0.087-0.083-0.175-0.009-0.239,0.058c-0.124,0.129-0.295,0.205-0.423,0.102s-0.183-0.295-0.107-0.482
	c0.17,0.029,0.057,0.316,0.254,0.252c0.164-0.055,0.075-0.229,0.091-0.351c0.022-0.186-0.068-0.272-0.254-0.254
	C-311.329,192.383-311.467,192.345-311.599,192.276z M-329.584,194.784c0.021-0.016,0.042-0.031,0.063-0.047
	c0.026,0.006,0.055,0.004,0.077,0.015c0.37,0.169,0.366,0.169,0.464-0.173c0.016-0.053,0.102-0.081,0.138-0.132
	c0.09-0.123,0.293-0.146,0.299-0.341v0.002c0.26-0.055,0.648,0.082,0.614-0.413l0.006-0.001c0.128,0.024,0.179-0.029,0.158-0.156
	c0.366-0.014,0.634-0.26,0.675-0.553c0.063-0.457,0.374-0.859,0.284-1.343l-0.002,0.005c0.114-0.049,0.09-0.148,0.086-0.24h-0.004
	c0.19,0.006,0.367,0,0.273-0.275c-0.03-0.082-0.012-0.163,0.033-0.227c0.297-0.425,0.237-0.953,0.414-1.414
	c0.057-0.143,0.181-0.255,0.165-0.434c-0.067-0.895,0.239-1.74,0.435-2.589c0.082-0.358,0.102-0.692,0.11-1.042
	c-0.015-0.014-0.015-0.028,0-0.043c0.211-0.021,0.194-0.211,0.271-0.34c0.075-0.125-0.042-0.25,0.051-0.373
	c0.338-0.455,0.276-1.057,0.547-1.541c0.013-0.022-0.044-0.084-0.067-0.127c0-0.064,0.015-0.123,0.071-0.162
	c0.026-0.028,0.053-0.058,0.079-0.087c0,0-0.006,0.001-0.004,0.001c0.021-0.014,0.049-0.021,0.065-0.039
	c0.38-0.391,0.4-1.056,0.992-1.291c0.099-0.039,0.046-0.198,0.079-0.294c0.044-0.127,0.024-0.333,0.211-0.337
	c0.267-0.006,0.305-0.197,0.321-0.369c0.043-0.425,0.571-0.506,0.622-0.914c0.002-0.009,0.021-0.018,0.034-0.02
	c0.378-0.097,0.382-0.097,0.468-0.48c0.022-0.1,0.113-0.148,0.148-0.221c0.119-0.25,0.476-0.234,0.555-0.488
	c0.107-0.342,0.207-0.676,0.447-0.96c0.262-0.31,0.382-0.687,0.433-1.087l0,0c0.136,0.003,0.237-0.071,0.282-0.182
	c0.185-0.461,0.488-0.828,0.857-1.15c0.107-0.095,0.159-0.207,0.108-0.352l0.004-0.004c0.164,0.009,0.329,0.017,0.493,0.023
	c0.112,0.109,0.129,0.256,0.165,0.396c-0.13,0.224,0.051,0.376,0.158,0.502c0.411,0.485,1.13,0.981,1.587,0.687
	c0.078,0.002,0.157,0.006,0.236,0.008c0.105,0.221,0.211,0.221,0.317-0.001c0.211-0.028,0.422-0.058,0.634-0.085
	c0.132,0.133,0.207,0.093,0.237-0.08c0.033-0.064,0.092-0.078,0.157-0.081c0.489,0.239,0.831-0.079,1.196-0.313
	c0.152,0.006,0.218-0.127,0.323-0.199c0.354-0.242,0.408-0.676,0.643-0.992c0.014,0.133,0.026,0.266,0.04,0.399
	c-0.081,0.106-0.081,0.212,0.005,0.315c0.085,0.334-0.047,0.576-0.279,0.812c-1.485,1.506-2.646,3.278-3.991,4.898
	c-0.467,0.562-0.698,1.298-0.963,1.987c-0.361,0.936-0.691,1.881-1.051,2.816c-0.337,0.873-0.906,1.604-1.496,2.315
	c-1.168,1.412-2.356,2.808-3.288,4.396c-0.384,0.653-0.675,1.342-0.897,2.061c-0.035,0.114-0.045,0.25-0.114,0.336
	c-0.681,0.852-0.921,1.955-1.617,2.801c-0.271,0.332-0.439,0.75-0.813,0.999c-0.687-0.102-1.14-0.644-1.724-0.942
	c-0.723-0.371-1.491-0.721-2.046-1.364c-0.041-0.049-0.077-0.104-0.116-0.154l-0.008-0.013c0.47-0.131,0.62-0.662,1.066-0.848
	C-329.777,195.208-329.564,195.007-329.584,194.784z M-343.606,138.553c0.835-0.294,1.703-0.314,2.574-0.305
	c0.159,0,0.317,0.009,0.478,0.003c0.126-0.005,0.305,0.015,0.315-0.155c0.014-0.18-0.158-0.225-0.307-0.241
	c-0.47-0.058-0.941-0.104-1.411-0.159c-0.262-0.029-0.528-0.041-0.78-0.109c-0.203-0.055-0.489-0.098-0.471-0.395
	c0.02-0.311,0.305-0.344,0.534-0.363c0.355-0.029,0.711-0.008,1.068,0.028c0.785,0.077,1.562,0.272,2.361,0.21
	c0.344-0.027,0.686-0.057,1.007-0.187c0.305-0.123,0.333-0.315,0.085-0.525c-0.189-0.161-0.398-0.302-0.6-0.451
	c-0.396-0.298-0.551-0.688-0.445-1.053c0.082-0.285,0.242-0.321,0.476-0.196c0.114,0.063,0.228,0.135,0.325,0.221
	c0.398,0.352,0.821,0.654,1.315,0.863c0.252,0.104,0.41,0.32,0.53,0.566c0.564,1.156,1.54,1.666,2.78,1.689
	c1.863,0.037,3.713-0.164,5.564-0.36c1.268-0.135,2.538-0.062,3.779,0.237c1.636,0.393,3.266,0.367,4.906,0.083
	c0.117-0.021,0.235-0.011,0.354-0.015c0.504,0.26,1.045,0.434,1.561,0.663c0.483,0.216,1.019,0.265,1.485,0.533
	c0.376,0.216,0.815,0.3,1.188,0.534c0.687,0.436,1.061,1.127,1.451,1.796c0.27,0.46,0.557,0.919,0.656,1.458
	c-0.667-0.764-1.517-0.777-2.396-0.539c-1.221,0.33-2.433,0.178-3.652,0.021c-1.561-0.199-3.127-0.244-4.702-0.143
	c-1.502,0.098-3.008,0.066-4.51-0.097c-1.826-0.199-3.546-0.806-5.281-1.348c-0.632-0.196-1.282-0.309-1.933-0.419
	c-0.441-0.076-0.827,0.139-1.235,0.229c-0.765,0.168-1.549,0.134-2.321,0.201c-0.714,0.063-1.282,0.467-1.927,0.684
	c-0.188,0.063-0.372,0.135-0.564,0.185c-0.175,0.045-0.358,0.038-0.436-0.161c-0.075-0.191,0.035-0.349,0.191-0.432
	c0.291-0.154,0.6-0.275,0.898-0.414c0.276-0.127,0.551-0.256,0.823-0.389c0.104-0.053,0.162-0.146,0.121-0.264
	c-0.049-0.137-0.152-0.106-0.264-0.079c-0.74,0.183-1.481,0.364-2.226,0.534c-0.272,0.061-0.636,0.205-0.754-0.168
	c-0.12-0.377,0.282-0.424,0.519-0.496c0.617-0.192,1.248-0.338,1.871-0.51c0.122-0.033,0.265-0.045,0.387-0.242
	c-1.165-0.141-2.276,0.183-3.393,0.125C-343.715,138.986-343.713,138.768-343.606,138.553z M-340.152,125.745
	c-0.15-0.109-0.211-0.295-0.071-0.393c0.393-0.271,0.096-0.428-0.068-0.613c0.233-0.53,0.262-0.549,0.758-0.303
	c0.141,0.068,0.213,0.028,0.303-0.059c0.141-0.137,0.297-0.145,0.459-0.035c-0.25,0.305-0.321,0.6,0.031,0.885
	c0.099,0.078,0.148,0.178,0.093,0.314c-0.047,0.116-0.128,0.287,0.09,0.298c0.167,0.009,0.181-0.161,0.181-0.298
	c0-0.117,0.026-0.25-0.075-0.336c-0.269-0.225-0.246-0.497-0.146-0.787c0.269-0.066,0.344,0.32,0.609,0.263
	c0.578,0.152,1.047,0.535,1.588,0.771c0.061-0.104-0.015-0.165-0.041-0.232c-0.075-0.182-0.043-0.34,0.102-0.467
	c0.135-0.119,0.285-0.102,0.443-0.035c0.443,0.188,0.795,0.52,1.213,0.746c1.006,0.548,1.532,1.449,1.862,2.498
	c0.053,0.168,0.166,0.255,0.314,0.328c0.707,0.35,1.478,0.488,2.235,0.66c1.799,0.408,3.628,0.7,5.313,1.514
	c0.839,0.404,1.63,0.897,2.311,1.517c0.846,0.772,1.85,1.08,2.929,1.258c1.215,0.199,2.335,0.667,3.397,1.263
	c0.462,0.26,0.887,0.387,1.423,0.271c1.938-0.414,3.741,0.055,5.469,0.925c0.222,0.112,0.443,0.225,0.716,0.362
	c-0.336,0.145-0.635,0.193-0.945,0.194c-0.829,0.003-1.664-0.046-2.459,0.288c-0.148,0.062-0.34,0.045-0.509,0.037
	c-2.05-0.094-4.063,0.211-6.037,0.693c-1.09,0.268-1.992,0.047-2.886-0.506c-0.823-0.511-1.688-0.885-2.654-1.078
	c-1.797-0.359-3.414-1.19-4.931-2.192c-1.479-0.978-3.016-1.847-4.588-2.662c-0.603-0.313-1.228-0.524-1.87-0.728
	c-0.88-0.278-1.719-0.643-2.333-1.41c-0.352-0.438-0.819-0.783-1.244-1.158c-0.181-0.16-0.352-0.326-0.476-0.527
	c-0.146-0.241-0.172-0.471,0.218-0.553c-0.146-0.154-0.271-0.285-0.396-0.417c0.09-0.357,0.191-0.398,0.455-0.171
	c0.098,0.084,0.167,0.203,0.263,0.29c0.051,0.048,0.13,0.116,0.207,0.053c0.075-0.063,0.024-0.145-0.014-0.214
	C-339.211,125.433-339.668,125.339-340.152,125.745z M-338.6,124.418c-0.1,0.29-0.122,0.563,0.146,0.787
	c0.102,0.086,0.075,0.219,0.075,0.336c0,0.137-0.014,0.307-0.181,0.298c-0.218-0.011-0.137-0.182-0.09-0.298
	c0.056-0.137,0.006-0.236-0.093-0.314c-0.353-0.285-0.281-0.58-0.031-0.885C-338.715,124.368-338.658,124.393-338.6,124.418z
	 M-296.215,164.354c-0.002-0.056-0.004-0.111-0.008-0.166c0.142-0.143-0.022-0.363,0.15-0.531c0.109,0.136,0.185,0.259,0.241,0.428
	c0.098,0.297,0.188,0.631,0.559,0.735v-0.005c0.009,0.664,0.553,1.025,0.86,1.52l0,0c-0.022,0.164,0.034,0.309,0.1,0.455
	c0.449,1.004,0.798,2.043,1.07,3.105c0.156,0.609,0.248,1.234,0.396,1.844c0.189,0.779,0.395,1.521-0.156,2.238
	c-0.116,0.151-0.122,0.363,0.083,0.429c0.594,0.19,0.791,0.622,0.904,1.192c0.065,0.326,0.181,0.703,0.532,0.896l0.003,0.004
	c-0.015,0.485,0.384,0.777,0.568,1.169c0.175,0.368,0.37,0.705,0.389,1.128c0.028,0.603,0.111,1.202,0.13,1.805
	c0.028,0.898,0.408,1.683,0.786,2.459c0.141,0.291,0.232,0.664,0.605,0.8l-0.002,0.002c0.002,0.161,0.065,0.294,0.159,0.431
	c0.329,0.48,0.675,0.955,0.953,1.465c0.574,1.057,0.733,2.266,1.198,3.369c0.283,0.67,0.466,1.375,0.801,2.039
	c0.263,0.522,0.504,1.076,0.695,1.643c0.071,0.213,0.055,0.521,0.374,0.595c0,0,0.004,0.011,0.004,0.009
	c-0.047,0.246,0.199,0.527-0.109,0.752c-0.06,0.043,0.066,0.113,0.146,0.082c0.097-0.037,0.162-0.139,0.278-0.131
	c0.213,0.346,0.382,0.719,0.644,1.035c0.267,0.327,0.592,0.582,1.021,0.613c1.075,0.082,2.142,0.26,3.222,0.263
	c0.611,0.002,1.207-0.07,1.802-0.187c0.807-0.156,0.88-0.113,1.102,0.676c-0.117,0.35-0.414,0.529-0.688,0.722
	c-0.85,0.595-1.789,1.015-2.752,1.386l-0.034-0.01l-0.024,0.029l0.008-0.005c-0.181,0.028-0.361,0.058-0.543,0.084
	c-1.023,0.151-1.924,0.521-2.518,1.429c-0.615,0.508-1.22,1.035-2.104,0.949c-0.455-0.228-0.707-0.608-0.833-1.09
	c-0.111-0.422-0.175-0.85-0.235-1.281c-0.127-0.911-0.697-1.611-1.157-2.357c-1.044-1.686-2.302-3.215-3.572-4.729
	c-1.752-2.089-2.825-4.483-3.343-7.155c-0.214-1.098-0.492-2.188-1.004-3.2c-0.244-0.487-0.607-0.892-0.896-1.347
	c-0.555-0.881-0.605-1.899-0.805-2.873c-0.037-0.176,0.024-0.395,0.132-0.57c0.233-0.181,0.396-0.458,0.411-0.708
	c0.026-0.468,0-0.921,0.371-1.281c0.039-0.04,0.056-0.121,0.056-0.183c-0.005-0.67,0.113-1.322,0.221-1.982
	c0.153-0.955,0.201-1.932,0.184-2.907c-0.015-0.803-0.013-1.605,0-2.408c0.012-0.752-0.155-1.487-0.183-2.235
	C-296.026,164.654-296,164.43-296.215,164.354z M-296,178.318c0.212,0.003,0.407-0.069,0.502-0.257
	c0.09-0.178,0.09-0.383-0.026-0.566c-0.213-0.338-0.599-0.516-0.803-0.863c-0.032-0.055-0.115-0.068-0.175-0.016
	c-0.051,0.044-0.03,0.1,0,0.143c0.077,0.104,0.148,0.221,0.244,0.306c0.188,0.167,0.366,0.337,0.5,0.553
	c0.136,0.22-0.034,0.324-0.169,0.413c-0.185,0.12-0.303-0.017-0.369-0.168c-0.039-0.09-0.017-0.207-0.026-0.311
	c-0.007-0.098,0.04-0.241-0.122-0.238c-0.128,0.001-0.157,0.13-0.179,0.229C-296.692,177.875-296.333,178.314-296,178.318z
	 M-294.617,175.909c0.192-0.039,0.085,0.467,0.329,0.166c0.097-0.118,0.13-0.432-0.088-0.568c-0.203-0.126-0.344,0.045-0.459,0.191
	c-0.132,0.167-0.163,0.343-0.063,0.551c0.24,0.502,0.797,0.539,1.171,0.07c0.059-0.074,0.145-0.15,0.071-0.238
	c-0.098-0.118-0.186-0.023-0.265,0.047c-0.051,0.043-0.102,0.087-0.144,0.137c-0.131,0.158-0.276,0.184-0.449,0.064
	C-294.687,176.208-294.683,176.066-294.617,175.909z M-292.604,175.184c-0.13-0.273-0.329-0.463-0.563-0.594
	c-0.207-0.113-0.449-0.172-0.642,0.059c-0.207,0.246-0.199,0.534-0.019,0.765c0.158,0.202,0.395,0.36,0.691,0.237
	c0.107-0.044,0.256-0.105,0.201-0.246c-0.067-0.172-0.182-0.053-0.281,0.001c-0.26,0.14-0.365-0.077-0.459-0.235
	c-0.085-0.145-0.01-0.309,0.137-0.364c0.213-0.081,0.375,0.075,0.514,0.206C-292.908,175.122-292.819,175.249-292.604,175.184z
	 M-295.414,176.293c-0.105,0.061-0.173,0.146-0.189,0.277c-0.043,0.328,0.171,0.504,0.393,0.673c0.085,0.063,0.158,0.25,0.274,0.142
	c0.128-0.121-0.011-0.225-0.118-0.311c-0.209-0.17-0.408-0.346-0.252-0.662C-295.276,176.348-295.32,176.287-295.414,176.293z
	 M-283.266,200.149c0.594-0.907,1.494-1.277,2.518-1.429c0.182-0.026,0.362-0.056,0.543-0.084
	C-281.192,199.209-282.176,199.786-283.266,200.149z M-280.213,198.641l0.024-0.029l0.034,0.01
	C-280.173,198.629-280.193,198.636-280.213,198.641z M-293.916,142.716c-0.212,0.274-0.326,0.601-0.468,0.91
	c-0.604,1.329-1.408,2.585-1.587,4.073c-0.146,1.223-0.427,2.414-0.72,3.606c-0.191,0.782-0.411,1.573-0.366,2.38
	c0.13,2.264-0.055,4.544,0.364,6.794c0.126,0.675,0.118,1.37-0.006,2.052c-0.212,1.167-0.003,2.316,0.104,3.472
	c0.321,3.454,0.07,6.854-1.006,10.171c-0.505-0.801-1.094-1.546-1.618-2.33c-0.437-0.65-0.722-1.399-1.077-2.104
	c-0.538-1.069-1.069-2.143-1.624-3.203c-0.309-0.592-0.457-1.234-0.666-1.858c-0.161-0.485-0.323-0.97-0.616-1.399
	c-0.215-0.314-0.493-0.418-0.85-0.36c-0.701,0.114-1.229,0.474-1.628,1.071c-1.048,1.58-2.185,3.096-3.334,4.603
	c-0.966,1.265-2.006,2.478-2.825,3.849c-0.047,0.08-0.081,0.135-0.175,0.074c-0.034-1.398,0.021-2.799,0.026-4.198
	c0.008-1.479,0.004-2.957,0.104-4.435c0.139-2.038,0.56-4.016,1.287-5.927c0.373-0.98,0.414-2.011,0.442-3.038
	c0.026-0.938,0.094-1.871,0.15-2.807c0.051-0.877-0.1-1.736-0.282-2.588c-0.291-1.354-0.534-2.717-0.711-4.091
	c-0.078-0.606-0.325-1.165-0.529-1.737c0.277,0.11,0.552,0.284,0.854,0.078c0.105-0.072,0.271-0.164,0.194-0.301
	c-0.105-0.187-0.22-0.019-0.313,0.058c-0.161,0.136-0.319,0.126-0.449-0.03c-0.124-0.15-0.146-0.313,0.026-0.463
	c0.109,0.125-0.012,0.43,0.215,0.357c0.173-0.055,0.06-0.328,0.065-0.504c0.004-0.141-0.077-0.201-0.237-0.176
	c-0.35,0.057-0.434,0.332-0.539,0.6c-0.423-0.709-0.654-1.506-1.04-2.232c0.008-0.068-0.013-0.123-0.075-0.156l-0.002-0.002
	c-0.1-0.539-0.387-0.998-0.656-1.458c-0.391-0.669-0.765-1.36-1.451-1.796c-0.372-0.234-0.812-0.318-1.188-0.534
	c-0.467-0.269-1.002-0.317-1.485-0.533c-0.516-0.229-1.057-0.403-1.561-0.663c1.359-0.332,2.733-0.57,4.121-0.737
	c0.75-0.089,1.504-0.074,2.256-0.063c0.4,0.006,0.791-0.025,1.165-0.18c0.429-0.178,0.88-0.161,1.329-0.152
	c0.583,0.012,1.168-0.011,1.727-0.187c1.057-0.333,1.974-0.841,2.256-2.056c0.624,0.457,1.209,0.887,1.888,1.156
	c0.614,0.246,1.246,0.244,1.848-0.027c0.686-0.311,1.327-0.702,1.865-1.232c0.141,0.032,0.101,0.152,0.125,0.229
	c0.444,1.339,1.54,1.792,2.779,2.042c0.362,0.074,0.734,0.088,1.105,0.071c0.571-0.023,1.133,0.009,1.671,0.237
	c0.171,0.074,0.357,0.098,0.545,0.089c2.117-0.108,4.182,0.257,6.241,0.679c0.166,0.035,0.349,0.004,0.493,0.123
	c-0.829,0.421-1.685,0.782-2.555,1.109c-0.564,0.211-1.128,0.434-1.666,0.703c-0.994,0.498-1.382,1.476-1.797,2.414
	C-293.846,142.331-293.992,142.5-293.916,142.716z M-317.366,171.419c0.258-1.079,0.685-2.099,1.113-3.116
	c0.689-1.633,1.571-3.154,2.683-4.537c0.551-0.686,1.152-1.329,1.776-1.951l-0.002-0.002c-0.133,0.67-0.282,1.336-0.395,2.008
	c-0.327,1.929-0.331,3.879-0.337,5.826c-0.002,1.094-0.039,2.186-0.062,3.278c-0.034-0.069-0.077-0.136-0.1-0.208
	c-0.423-1.258-1.553-1.969-2.843-1.932C-316.204,170.805-316.808,171.053-317.366,171.419z M-317.366,171.419
	c0.559-0.366,1.162-0.614,1.835-0.634c1.29-0.037,2.42,0.674,2.843,1.932c0.022,0.072,0.065,0.139,0.1,0.208
	c0.006,0.502,0.011,1.004,0.017,1.505c-0.234,0.316-0.289,0.75-0.643,0.992c-0.105,0.072-0.171,0.205-0.323,0.199
	c-0.006-0.172,0.019-0.324,0.106-0.489c0.662-1.226,0.42-2.415-0.612-3.153c-0.769-0.547-1.605-0.577-2.394-0.191
	c-0.793,0.387-1.188,1.104-1.069,2.025c0.189,1.465,1.435,1.996,2.561,1.438c0.62-0.309,0.756-0.852,0.699-1.498
	c-0.041-0.451-0.317-0.679-0.681-0.842c-0.398-0.178-0.985,0.008-1.195,0.357c-0.203,0.338-0.14,0.813,0.131,1.057
	c0.149,0.135,0.316,0.143,0.479,0.084c0.194-0.068,0.128-0.221,0.085-0.365c-0.055-0.182,0.039-0.313,0.201-0.381
	c0.203-0.086,0.291,0.082,0.361,0.217c0.122,0.236,0.062,0.467-0.102,0.662c-0.373,0.444-1.361,0.373-1.672-0.121
	c-0.391-0.627-0.301-1.131,0.049-1.707c0.25-0.414,1.152-0.685,1.642-0.534c1.346,0.415,1.886,1.94,0.896,3.171
	c-0.193,0.242-0.488,0.352-0.683,0.585c-0.065,0.003-0.124,0.017-0.157,0.081c-0.085,0.008-0.179-0.01-0.237,0.08
	c-0.212,0.027-0.423,0.057-0.634,0.085c-0.106,0-0.212,0-0.317,0.001c-0.079-0.002-0.158-0.006-0.236-0.008
	c-0.739-0.164-1.313-0.574-1.745-1.188c-0.036-0.14-0.053-0.286-0.165-0.396c-0.042-0.188-0.1-0.375-0.077-0.572
	C-317.879,173.192-317.693,172.28-317.366,171.419z M-319.972,176.254c-0.051,0.4-0.171,0.777-0.433,1.087
	c-0.24,0.284-0.34,0.618-0.447,0.96c-0.079,0.254-0.436,0.238-0.555,0.488c-0.035,0.072-0.126,0.121-0.148,0.221
	c-0.086,0.384-0.09,0.384-0.468,0.48c-0.014,0.002-0.032,0.011-0.034,0.02c-0.051,0.408-0.579,0.489-0.622,0.914
	c-0.017,0.172-0.055,0.363-0.321,0.369c-0.187,0.004-0.167,0.21-0.211,0.337c-0.033,0.096,0.02,0.255-0.079,0.294
	c-0.592,0.235-0.612,0.9-0.992,1.291c-0.017,0.018-0.045,0.025-0.065,0.039c0.163-0.693,0.596-1.249,0.966-1.834
	c0.707-1.116,1.696-2.008,2.459-3.083C-320.563,177.333-320.374,176.731-319.972,176.254z M-325.296,185.426
	c-0.009,0.35-0.028,0.684-0.11,1.042c-0.195,0.849-0.502,1.694-0.435,2.589c0.016,0.179-0.108,0.291-0.165,0.434
	c-0.177,0.461-0.117,0.989-0.414,1.414c-0.045,0.063-0.063,0.145-0.033,0.227c0.094,0.275-0.083,0.281-0.273,0.275
	c0.275-1.045,0.534-2.092,0.745-3.15c0.163-0.825,0.36-1.646,0.539-2.469C-325.414,185.659-325.392,185.528-325.296,185.426z
	 M-311.709,145.315c0.105-0.268,0.189-0.543,0.539-0.6c0.16-0.025,0.241,0.035,0.237,0.176c-0.006,0.176,0.107,0.449-0.065,0.504
	c-0.227,0.072-0.105-0.232-0.215-0.357c-0.173,0.15-0.15,0.313-0.026,0.463c0.13,0.156,0.288,0.166,0.449,0.03
	c0.093-0.076,0.207-0.244,0.313-0.058c0.077,0.137-0.089,0.229-0.194,0.301c-0.303,0.206-0.577,0.032-0.854-0.078
	C-311.627,145.588-311.666,145.45-311.709,145.315z M-311.599,192.276c0.132,0.069,0.27,0.107,0.42,0.093
	c0.186-0.019,0.276,0.068,0.254,0.254c-0.016,0.121,0.073,0.296-0.091,0.351c-0.197,0.064-0.084-0.223-0.254-0.252
	c-0.075,0.188-0.021,0.379,0.107,0.482s0.299,0.027,0.423-0.102c0.064-0.066,0.152-0.141,0.239-0.058
	c0.106,0.102,0.004,0.188-0.061,0.271c-0.177,0.228-0.433,0.146-0.662,0.168C-311.402,193.098-311.491,192.684-311.599,192.276z
	 M-326.807,191.642c0.09,0.483-0.221,0.886-0.284,1.343c-0.041,0.293-0.309,0.539-0.675,0.553
	C-327.446,192.905-327.127,192.274-326.807,191.642z M-324.494,183.002c0.023,0.043,0.08,0.104,0.067,0.127
	c-0.271,0.484-0.209,1.086-0.547,1.541c-0.093,0.123,0.024,0.248-0.051,0.373c-0.077,0.129-0.061,0.319-0.271,0.34
	C-325.132,184.555-324.876,183.756-324.494,183.002z M-329.584,194.784c0.02,0.224-0.193,0.425-0.281,0.461
	c-0.446,0.186-0.597,0.717-1.066,0.848c-0.017-0.254,0.154-0.408,0.314-0.555C-330.302,195.249-329.982,194.961-329.584,194.784z
	 M-318.724,174.571c0.051,0.145-0.001,0.257-0.108,0.352c-0.369,0.322-0.673,0.689-0.857,1.15c-0.045,0.11-0.146,0.185-0.282,0.182
	C-319.675,175.604-319.291,175.02-318.724,174.571z M-328.544,194.106c-0.006,0.195-0.209,0.218-0.299,0.341
	c-0.036,0.051-0.122,0.079-0.138,0.132c-0.098,0.342-0.094,0.342-0.464,0.173c-0.022-0.011-0.051-0.009-0.077-0.015
	C-329.229,194.476-328.92,194.241-328.544,194.106z M-318.304,174.018c-0.022,0.197,0.035,0.385,0.077,0.572
	c-0.164-0.007-0.329-0.015-0.493-0.023C-318.635,174.344-318.529,174.135-318.304,174.018z M-327.93,193.695
	c0.034,0.495-0.354,0.358-0.614,0.413C-328.345,193.961-328.16,193.792-327.93,193.695z M-327.766,193.538
	c0.021,0.127-0.03,0.181-0.158,0.156C-327.914,193.599-327.867,193.541-327.766,193.538z M-312.527,175.145
	c-0.086-0.104-0.086-0.209-0.005-0.315C-312.53,174.935-312.529,175.04-312.527,175.145z M-326.723,191.407
	c0.004,0.092,0.028,0.191-0.086,0.24C-326.813,191.555-326.814,191.463-326.723,191.407z M-312.824,142.926
	c0.063,0.033,0.083,0.088,0.075,0.156C-312.818,143.052-312.839,142.999-312.824,142.926z M-324.344,182.753
	c-0.026,0.029-0.053,0.059-0.079,0.087C-324.396,182.812-324.37,182.783-324.344,182.753z M-311.796,161.813
	c0.006-0.008,0.012-0.018,0.019-0.024c-0.005,0.009-0.011,0.017-0.017,0.026L-311.796,161.813z M-305.447,124.278
	c0.175,0.334,0.187,0.555-0.274,0.681c-0.344,0.095-0.673,0.308-0.786,0.711c-0.015,0.058-0.058,0.128-0.108,0.155
	c-0.447,0.244-0.493,0.687-0.463,1.097c0.04,0.554,0.079,1.1-0.017,1.649c-0.028,0.162-0.085,0.359,0.067,0.486s0.241-0.13,0.39-0.1
	l0.006,0.006c-0.025,0.06-0.04,0.125-0.074,0.18c-0.139,0.229-0.419,0.391-0.272,0.748c0.049,0.121-0.105,0.16-0.25,0.131
	c-0.305-0.064-0.396,0.081-0.28,0.354c0.059,0.138,0.044,0.292,0.093,0.419c0.096,0.246-0.061,0.638,0.261,0.735
	c0.404,0.123,0.444,0.41,0.532,0.733c0.286,1.043,0.692,2.004,1.82,2.424c0.201,0.074,0.438,0.076,0.594,0.27
	c0.139,0.174,1.15,0.316,1.228,0.15c0.235-0.508,0.764-0.295,1.105-0.517c0.013,0.015,0.024,0.03,0.037,0.046
	c-0.325,0.25-0.673,0.461-1.058,0.604c-0.345,0.13-0.717,0.183-1.05,0.061c-1.002-0.366-1.938-0.843-2.461-1.856
	c-0.159-0.31-0.229-0.646-0.293-0.981c-0.049-0.241-0.15-0.411-0.364-0.529c-0.327-0.178-0.491-0.457-0.522-0.831
	c-0.03-0.365-0.174-0.717-0.152-1.094c0.009-0.168,0.029-0.367,0.204-0.385c0.329-0.035,0.268-0.242,0.264-0.447
	c-0.015-0.699-0.089-1.396-0.034-2.098c0.083-1.089,0.585-1.896,1.574-2.385c0.047-0.023,0.092-0.051,0.135-0.078
	c0.012-0.007,0.016-0.021,0.068-0.098 M-293.916,142.716c-0.076-0.216,0.07-0.386,0.146-0.558c0.415-0.938,0.803-1.916,1.797-2.414
	c0.538-0.27,1.102-0.492,1.666-0.703c0.87-0.327,1.726-0.688,2.555-1.109c0.47,0.053,0.941,0.093,1.41,0.16
	c1.406,0.199,2.78,0.02,4.158-0.277c1.459-0.313,2.931-0.259,4.41-0.079c1.611,0.194,3.233,0.333,4.856,0.249
	c1.065-0.055,1.953-0.526,2.47-1.532c0.213-0.411,0.498-0.722,0.957-0.89c0.438-0.158,0.75-0.529,1.126-0.798
	c0.404-0.291,0.526-0.245,0.707,0.225c-0.028,0.159-0.059,0.317-0.087,0.476c-0.015,0.018-0.019,0.036-0.015,0.057
	c-0.29,0.332-0.687,0.53-1.008,0.82c-0.267,0.238-0.235,0.413,0.1,0.541c0.109,0.043,0.228,0.063,0.342,0.094
	c1.081,0.289,2.134-0.006,3.194-0.16c0.081-0.006,0.162-0.011,0.242-0.017c0.313,0.046,0.636-0.029,0.94,0.093
	c0.13,0.053,0.231,0.129,0.244,0.279c0.016,0.157-0.079,0.246-0.208,0.301c-0.134,0.053-0.27,0.11-0.408,0.138
	c-0.532,0.101-1.068,0.151-1.607,0.165c-0.231,0.006-0.44,0.079-0.652,0.149c-0.085,0.029-0.134,0.082-0.126,0.175
	c0.012,0.098,0.085,0.125,0.167,0.133c0.093,0.008,0.185,0.018,0.276,0.014c0.938-0.038,1.865,0.049,2.786,0.217
	c0.301,0.273,0.323,0.546,0,0.818c-1.028-0.16-2.059-0.292-3.102-0.217c-0.032,0.002-0.063,0.042-0.116,0.08
	c0.436,0.273,0.932,0.301,1.391,0.436c0.365,0.109,0.742,0.185,1.091,0.35c0.159,0.074,0.383,0.127,0.312,0.378
	c-0.065,0.241-0.28,0.276-0.483,0.237c-0.673-0.126-1.346-0.248-2-0.458c-0.15-0.048-0.307-0.076-0.461-0.108
	c-0.11-0.023-0.253-0.109-0.31,0.049c-0.061,0.165,0.06,0.279,0.197,0.341c0.398,0.177,0.799,0.344,1.201,0.515
	c0.171,0.072,0.342,0.138,0.483,0.264c0.134,0.117,0.203,0.256,0.126,0.42c-0.073,0.155-0.235,0.174-0.378,0.139
	c-0.229-0.055-0.479-0.096-0.675-0.217c-1.07-0.666-2.27-0.725-3.473-0.771c-0.346-0.014-0.689-0.046-1.01-0.174
	c-0.545-0.219-1.084-0.134-1.632-0.024c-1.075,0.216-2.108,0.579-3.152,0.909c-1.707,0.543-3.453,0.832-5.247,0.879
	c-1.586,0.041-3.167-0.125-4.752-0.096c-1.296,0.023-2.574,0.219-3.857,0.344c-0.786,0.076-1.554,0.006-2.32-0.154
	c-0.461-0.096-0.916-0.229-1.404-0.123C-293.386,142.351-293.643,142.54-293.916,142.716z M-271.523,130.215
	c-0.065,0.004-0.13,0.008-0.195,0.011c-0.266,0.022-0.53,0.049-0.747,0.23l-0.024-0.005l-0.022,0.012
	c-0.193,0.015-0.34,0.123-0.482,0.238c-1.935,0.92-3.737,2.064-5.548,3.201c-1.459,0.916-3.034,1.605-4.751,1.894
	c-0.795,0.134-1.453,0.544-2.118,0.944c-0.444,0.268-0.933,0.435-1.39,0.669c-0.185,0.094-0.391,0.047-0.587,0.011
	c-1.605-0.303-3.201-0.658-4.835-0.799c-0.728-0.063-1.453-0.012-2.179-0.042c-0.132-0.006-0.276,0.013-0.391-0.038
	c-0.702-0.307-1.44-0.295-2.184-0.288c-0.434,0.005-0.862-0.051-1.312-0.206c0.156-0.175,0.36-0.189,0.53-0.253
	c0.86-0.326,1.652-0.819,2.579-0.994c0.959-0.181,1.91-0.267,2.865-0.057c0.594,0.132,1.122,0.091,1.658-0.245
	c1.075-0.672,2.259-1.084,3.512-1.282c1.124-0.178,2.088-0.628,2.961-1.38c1.427-1.232,3.134-1.926,4.963-2.336
	c1.272-0.285,2.543-0.581,3.816-0.874c0.179-0.042,0.356-0.097,0.529-0.161c0.363-0.138,0.636-0.317,0.778-0.752
	c0.301-0.914,0.768-1.738,1.705-2.186c0.221-0.105,0.399-0.297,0.597-0.449c0.104-0.017,0.191-0.061,0.238-0.16h0.002
	c0.083-0.032,0.171-0.059,0.25-0.098c0.188-0.094,0.384-0.229,0.589-0.096c0.224,0.145,0.096,0.379,0.088,0.578
	c-0.019,0.029-0.037,0.06-0.057,0.09c-0.009,0.027-0.019,0.057-0.027,0.084c-0.229,1.025,0.267,2.6,1.778,3.008
	c-0.192,0.21-0.384,0.42-0.573,0.633c-0.408,0.453-1.003,0.584-1.506,0.871c-0.026,0.008-0.051,0.015-0.077,0.021
	c-0.024,0.021-0.049,0.04-0.075,0.061l0,0C-271.296,130.086-271.442,130.069-271.523,130.215z M-267.737,124.499
	c0.071,0.002,0.141,0.002,0.212,0.002c0.181,0.108,0.455,0.018,0.57,0.266c-0.055,0.221-0.16,0.445,0.13,0.603
	c0.043,0.023,0.019,0.17,0.024,0.259c-0.213-0.025-0.322-0.216-0.493-0.309c-0.389-0.21-0.808-0.104-1.135,0.309
	c-0.282,0.354-0.264,0.74,0.039,1.063c0.148,0.16,0.329,0.166,0.506,0.098c0.193-0.076,0.092-0.23,0.073-0.37
	c-0.039-0.265,0.199-0.406,0.463-0.288c-0.006,0.168-0.2,0.188-0.27,0.334c0.418,0.054,0.228,0.373,0.271,0.594
	c0,0-0.007,0.007-0.007,0.006c-0.022,0.024-0.047,0.049-0.07,0.074c-0.047,0.026-0.092,0.055-0.139,0.081
	c-0.235-0.001-0.472,0.004-0.707-0.005c-0.287-0.01-0.545-0.124-0.714-0.347c-0.622-0.815-0.126-2.021,0.787-2.267
	C-268.046,124.56-267.89,124.533-267.737,124.499z M-270.711,125.477c0.362-0.045,0.606-0.364,0.968-0.417
	c-0.331,0.687-0.173,1.917,0.575,2.468c0.252,0.186,0.594,0.154,0.786,0.419c-0.03,0.069-0.059,0.14-0.089,0.208
	c-0.051,0.033-0.102,0.065-0.152,0.098c-0.104,0.076-0.207,0.154-0.31,0.232C-270.444,128.077-270.94,126.502-270.711,125.477z
	 M-268.382,127.947c-0.192-0.265-0.534-0.233-0.786-0.419c-0.748-0.551-0.906-1.781-0.575-2.468
	c0.228-0.273,0.607-0.302,0.861-0.532c0.197-0.073,0.391-0.16,0.594-0.214c0.214-0.059,0.453-0.129,0.551,0.185
	c-0.152,0.034-0.309,0.062-0.459,0.102c-0.913,0.246-1.409,1.451-0.787,2.267c0.169,0.223,0.427,0.337,0.714,0.347
	c0.235,0.009,0.472,0.004,0.707,0.005c-0.008,0.03-0.017,0.058-0.026,0.089c-0.212,0.154-0.41,0.322-0.562,0.54
	C-268.228,127.879-268.305,127.915-268.382,127.947z M-302.027,124.52c0.362,0.215,0.726,0.43,1.088,0.645l0.002-0.004
	c0.028,0.027,0.059,0.054,0.087,0.081l-0.004-0.005c0.028,0.026,0.057,0.054,0.087,0.08l-0.004-0.003
	c0.028,0.024,0.059,0.049,0.086,0.073c0.028,0.026,0.055,0.054,0.081,0.081c0.026,0.026,0.051,0.054,0.077,0.081h-0.002
	c0.026,0.027,0.053,0.057,0.079,0.085c0.043,0.055,0.087,0.109,0.132,0.165c0.03,0.104,0.084,0.19,0.175,0.254
	c-0.004,0.021,0.006,0.038,0.022,0.051c0.019,0.037,0.037,0.074,0.057,0.112c0.019,0.047,0.039,0.093,0.06,0.14
	c0.026,0.076,0.055,0.152,0.081,0.229c0.014,0.052,0.026,0.103,0.039,0.154c0.01,0.195-0.039,0.395,0.059,0.581
	c0.004,0.673,0.008,1.347,0.008,2.021c0,0.143,0.006,0.246,0.199,0.257c0.216,0.011,0.269,0.194,0.276,0.374
	c0.019,0.533-0.142,1.041-0.258,1.553c-0.035,0.155-0.179,0.271-0.317,0.341c-0.367,0.181-0.459,0.503-0.53,0.867
	c-0.165,0.845-0.596,1.513-1.392,1.905c-0.013-0.016-0.024-0.031-0.037-0.046c0.171-0.286,0.472-0.444,0.675-0.696
	c0.145-0.18,0.449-0.316,0.228-0.641c-0.049-0.07-0.002-0.165,0.112-0.131c0.168,0.049,0.175-0.058,0.177-0.17
	c0.006-0.371,0.266-0.656,0.339-1.004c0.021-0.107,0.104-0.258,0.191-0.287c0.544-0.185,0.447-0.695,0.53-1.082
	c0.032-0.151,0.12-0.498-0.061-0.556c-0.353-0.11-0.306-0.319-0.289-0.578c0.019-0.302,0.057-0.618-0.01-0.907
	c-0.098-0.441,0.072-0.897-0.088-1.314c-0.092-0.24-0.396-0.416-0.069-0.703c0.056-0.05-0.03-0.164-0.087-0.242
	c-0.433-0.592-0.919-1.112-1.613-1.41c-0.102-0.045-0.395-0.098-0.195-0.356L-302.027,124.52z M-265.132,136.817
	c-1.061,0.154-2.113,0.449-3.194,0.16c-0.114-0.031-0.232-0.051-0.342-0.094c-0.335-0.128-0.366-0.303-0.1-0.541
	c0.321-0.29,0.718-0.488,1.008-0.82c0.024,0.141,0.002,0.298-0.126,0.347c-0.331,0.126-0.307,0.638-0.731,0.651
	c-0.053,0.002-0.067,0.07-0.045,0.127c0.037,0.09,0.088,0.155,0.197,0.168c0.872,0.102,1.744,0.123,2.613-0.037
	C-265.609,136.733-265.365,136.673-265.132,136.817z M-268.933,128.485c0.103-0.078,0.206-0.156,0.31-0.232
	c-0.045,0.332,0.162,0.346,0.394,0.294c0.175-0.038,0.342-0.11,0.543,0.001c-0.183,0.168-0.372,0.181-0.567,0.174
	c-0.478-0.016-0.896,0.141-1.16,0.539c-0.211,0.32-0.632,0.344-0.839,0.695c-0.069,0.118-0.496,0.028-0.759,0.033
	c0.503-0.287,1.098-0.418,1.506-0.871C-269.316,128.905-269.125,128.695-268.933,128.485z M-266.801,125.627
	c-0.006-0.089,0.019-0.235-0.024-0.259c-0.29-0.157-0.185-0.382-0.13-0.603c0.053-0.005,0.105-0.009,0.158-0.014l-0.008,0.012
	c0.03,0.021,0.062,0.041,0.092,0.061c0.201,0.183,0.378,0.384,0.506,0.625c-0.242,0.002-0.466,0.023-0.506,0.339
	c-0.021,0.175-0.177,0.204-0.313,0.243l-0.024-0.022C-267.023,125.846-266.782,125.821-266.801,125.627z M-340.152,125.745
	c0.484-0.405,0.941-0.312,1.236,0.254c0.038,0.069,0.089,0.15,0.014,0.214c-0.077,0.063-0.156-0.005-0.207-0.053
	c-0.096-0.087-0.165-0.206-0.263-0.29c-0.264-0.228-0.365-0.187-0.455,0.171C-339.973,125.983-340.124,125.932-340.152,125.745z
	 M-267.347,127.057c-0.043-0.221,0.147-0.54-0.271-0.594c0.069-0.146,0.264-0.166,0.27-0.334c0.1-0.04,0.199-0.08,0.297-0.12
	l0.024,0.022c-0.049,0.24-0.115,0.477-0.093,0.727C-267.102,126.919-267.166,127.036-267.347,127.057z M-267.745,135.465
	c0.028-0.158,0.059-0.316,0.087-0.476c0.372-0.042,0.344,0.227,0.287,0.431C-267.431,135.633-267.636,135.284-267.745,135.465z
	 M-268.382,127.947c0.077-0.032,0.154-0.067,0.231-0.1c0.054,0.001,0.108,0.003,0.161,0.003c-0.092,0.209-0.146,0.478-0.481,0.305
	C-268.44,128.086-268.412,128.016-268.382,127.947z M-267.989,127.85c-0.053,0-0.107-0.002-0.161-0.003
	c0.151-0.218,0.35-0.386,0.562-0.54C-267.587,127.586-267.837,127.682-267.989,127.85z M-272.466,130.457
	c0.217-0.182,0.481-0.208,0.747-0.23C-271.899,130.522-272.215,130.382-272.466,130.457z M-272.995,130.702
	c0.143-0.115,0.289-0.224,0.482-0.238C-272.552,130.79-272.802,130.687-272.995,130.702z M-271.523,130.215
	c0.081-0.146,0.228-0.129,0.359-0.145C-271.208,130.306-271.389,130.208-271.523,130.215z M-299.826,127.32
	c-0.098-0.187-0.049-0.386-0.059-0.581C-299.745,126.92-299.826,127.125-299.826,127.32z M-271.556,124.918
	c-0.047,0.1-0.134,0.144-0.238,0.16C-271.792,124.908-271.678,124.908-271.556,124.918z M-265.846,127.135
	c-0.059-0.011-0.126-0.01-0.121-0.097c0-0.009,0.016-0.023,0.024-0.023c0.089-0.005,0.085,0.062,0.097,0.118V127.135z
	 M-265.846,127.133c0.056,0.012,0.124,0.01,0.12,0.096c-0.002,0.01-0.017,0.025-0.026,0.025c-0.087,0.006-0.085-0.063-0.094-0.119
	V127.133z M-300.771,125.314c0.028,0.024,0.059,0.049,0.086,0.073C-300.713,125.363-300.743,125.338-300.771,125.314z
	 M-300.854,125.237c0.028,0.026,0.057,0.054,0.087,0.081C-300.798,125.291-300.826,125.264-300.854,125.237z M-300.938,125.161
	c0.028,0.027,0.059,0.054,0.087,0.081C-300.879,125.214-300.909,125.188-300.938,125.161z M-267.424,127.137
	c0.023-0.025,0.048-0.05,0.07-0.074C-267.376,127.087-267.4,127.112-267.424,127.137z M-300.121,126.104
	c0.019,0.037,0.037,0.074,0.057,0.112C-300.084,126.178-300.103,126.141-300.121,126.104z M-271.089,130.01
	c-0.024,0.021-0.049,0.04-0.075,0.061C-271.138,130.05-271.113,130.031-271.089,130.01z M-300.527,125.549
	c-0.026-0.027-0.051-0.055-0.077-0.081C-300.578,125.495-300.554,125.522-300.527,125.549z M-300.529,125.549
	c0.026,0.027,0.053,0.057,0.079,0.085C-300.477,125.606-300.503,125.577-300.529,125.549z M-314.734,175.935
	c0.194-0.233,0.489-0.343,0.683-0.585c0.989-1.23,0.449-2.756-0.896-3.171c-0.489-0.15-1.392,0.12-1.642,0.534
	c-0.35,0.576-0.439,1.08-0.049,1.707c0.311,0.494,1.299,0.565,1.672,0.121c0.163-0.195,0.224-0.426,0.102-0.662
	c-0.07-0.135-0.158-0.303-0.361-0.217c-0.162,0.067-0.256,0.199-0.201,0.381c0.043,0.145,0.109,0.297-0.085,0.365
	c-0.163,0.059-0.33,0.051-0.479-0.084c-0.271-0.243-0.334-0.719-0.131-1.057c0.21-0.35,0.797-0.535,1.195-0.357
	c0.363,0.163,0.64,0.391,0.681,0.842c0.057,0.646-0.079,1.189-0.699,1.498c-1.126,0.559-2.371,0.027-2.561-1.438
	c-0.118-0.922,0.276-1.639,1.069-2.025c0.788-0.386,1.625-0.355,2.394,0.191c1.032,0.738,1.274,1.928,0.612,3.153
	c-0.088,0.165-0.112,0.317-0.106,0.489C-313.903,175.856-314.245,176.174-314.734,175.935z M-318.062,174.986
	c0.433,0.614,1.006,1.024,1.745,1.188c-0.457,0.295-1.176-0.201-1.587-0.687C-318.011,175.362-318.191,175.209-318.062,174.986z
	 M-316.08,176.182c0.105-0.001,0.211-0.001,0.317-0.001C-315.869,176.403-315.975,176.403-316.08,176.182z M-315.129,176.096
	c0.059-0.09,0.152-0.072,0.237-0.08C-314.922,176.189-314.997,176.229-315.129,176.096z M-291.482,176.495
	c-0.352-0.193-0.467-0.57-0.532-0.896c-0.113-0.57-0.311-1.002-0.904-1.192c-0.205-0.065-0.199-0.277-0.083-0.429
	c0.551-0.717,0.346-1.459,0.156-2.238c-0.148-0.609-0.24-1.234-0.396-1.844c-0.272-1.063-0.621-2.102-1.07-3.105
	c-0.065-0.146-0.122-0.291-0.1-0.455c0.276,0.363,0.408,0.795,0.568,1.209c0.722,1.864,1.108,3.816,1.468,5.775
	C-292.179,174.402-292.032,175.506-291.482,176.495z M-296.215,164.354c0.215,0.076,0.188,0.3,0.191,0.436
	c0.027,0.748,0.194,1.483,0.183,2.235c-0.013,0.803-0.015,1.605,0,2.408c0.018,0.976-0.03,1.952-0.184,2.907
	c-0.107,0.66-0.226,1.313-0.221,1.982c0,0.062-0.017,0.143-0.056,0.183c-0.371,0.36-0.345,0.813-0.371,1.281
	c-0.015,0.25-0.178,0.527-0.411,0.708c0.195-0.82,0.396-1.64,0.588-2.46c0.299-1.276,0.44-2.569,0.524-3.876
	c0.123-1.894-0.033-3.771-0.252-5.646C-296.229,164.459-296.217,164.407-296.215,164.354z M-284.822,193.402
	c-0.319-0.073-0.303-0.382-0.374-0.595c-0.191-0.566-0.433-1.12-0.695-1.643c-0.335-0.664-0.518-1.369-0.801-2.039
	c-0.465-1.104-0.624-2.313-1.198-3.369c-0.278-0.51-0.624-0.984-0.953-1.465c-0.094-0.137-0.157-0.27-0.159-0.431
	c0.583,0.567,0.953,1.276,1.307,1.995c0.441,0.9,0.675,1.879,1.009,2.819c0.538,1.513,1.188,2.978,1.786,4.465
	C-284.867,193.224-284.849,193.315-284.822,193.402z M-289.001,183.859c-0.373-0.136-0.465-0.509-0.605-0.8
	c-0.378-0.776-0.758-1.561-0.786-2.459c-0.019-0.603-0.102-1.202-0.13-1.805c-0.019-0.423-0.214-0.76-0.389-1.128
	c-0.185-0.392-0.583-0.684-0.568-1.169c0.751,0.801,1.125,1.754,1.179,2.849c0.046,0.879,0.034,1.767,0.347,2.613
	c0.191,0.521,0.439,1.015,0.748,1.477C-289.118,183.569-289.025,183.696-289.001,183.859z M-295.272,164.82
	c-0.371-0.104-0.461-0.438-0.559-0.735c-0.057-0.169-0.132-0.292-0.241-0.428c-0.173,0.168-0.009,0.389-0.15,0.531
	c-0.051-0.365-0.013-0.729,0.07-1.12C-295.859,163.651-295.566,164.237-295.272,164.82z M-294.412,166.334
	c-0.308-0.494-0.852-0.855-0.86-1.52C-294.878,165.26-294.589,165.766-294.412,166.334z M-284.503,194.114
	c-0.116-0.008-0.182,0.094-0.278,0.131c-0.08,0.031-0.206-0.039-0.146-0.082c0.309-0.225,0.063-0.506,0.109-0.752
	C-284.676,193.629-284.54,193.85-284.503,194.114z M-296,178.318c-0.333-0.004-0.692-0.442-0.623-0.775
	c0.021-0.1,0.051-0.229,0.179-0.229c0.162-0.003,0.115,0.141,0.122,0.238c0.01,0.104-0.013,0.221,0.026,0.311
	c0.066,0.151,0.185,0.288,0.369,0.168c0.135-0.089,0.305-0.193,0.169-0.413c-0.134-0.216-0.313-0.386-0.5-0.553
	c-0.096-0.085-0.167-0.201-0.244-0.306c-0.03-0.043-0.051-0.099,0-0.143c0.06-0.053,0.143-0.039,0.175,0.016
	c0.204,0.348,0.59,0.525,0.803,0.863c0.116,0.184,0.116,0.389,0.026,0.566C-295.593,178.249-295.788,178.321-296,178.318z
	 M-294.617,175.909c-0.065,0.157-0.069,0.3,0.104,0.42c0.173,0.119,0.318,0.094,0.449-0.064c0.042-0.05,0.093-0.094,0.144-0.137
	c0.079-0.07,0.167-0.165,0.265-0.047c0.073,0.088-0.013,0.164-0.071,0.238c-0.374,0.469-0.931,0.432-1.171-0.07
	c-0.1-0.208-0.068-0.384,0.063-0.551c0.115-0.146,0.256-0.317,0.459-0.191c0.218,0.137,0.185,0.45,0.088,0.568
	C-294.532,176.375-294.425,175.87-294.617,175.909z M-292.604,175.184c-0.216,0.064-0.305-0.063-0.421-0.172
	c-0.139-0.131-0.301-0.287-0.514-0.206c-0.146,0.056-0.222,0.22-0.137,0.364c0.094,0.158,0.199,0.375,0.459,0.235
	c0.1-0.054,0.214-0.173,0.281-0.001c0.055,0.141-0.094,0.202-0.201,0.246c-0.297,0.123-0.533-0.035-0.691-0.237
	c-0.181-0.23-0.188-0.519,0.019-0.765c0.192-0.23,0.435-0.172,0.642-0.059C-292.933,174.721-292.733,174.911-292.604,175.184z
	 M-295.414,176.293c0.094-0.007,0.138,0.055,0.107,0.119c-0.156,0.316,0.043,0.492,0.252,0.662c0.107,0.086,0.246,0.189,0.118,0.311
	c-0.116,0.108-0.189-0.078-0.274-0.142c-0.222-0.169-0.436-0.345-0.393-0.673C-295.587,176.44-295.52,176.354-295.414,176.293z
	 M-266.797,124.752c-0.053,0.005-0.105,0.009-0.158,0.014c-0.115-0.248-0.39-0.157-0.57-0.266c0.115-0.237,0.331-0.254,0.542-0.207
	C-266.728,124.35-266.813,124.579-266.797,124.752z M-266.805,124.764c0.03,0.021,0.062,0.041,0.092,0.061
	C-266.743,124.805-266.774,124.785-266.805,124.764z M-302.037,124.513c-0.199,0.259,0.094,0.312,0.195,0.356
	c0.694,0.298,1.181,0.818,1.613,1.41c0.057,0.078,0.143,0.192,0.087,0.242c-0.327,0.287-0.022,0.463,0.069,0.703
	c0.16,0.417-0.01,0.873,0.088,1.314c0.066,0.289,0.028,0.605,0.01,0.907c-0.017,0.259-0.063,0.468,0.289,0.578
	c0.181,0.058,0.093,0.404,0.061,0.556c-0.083,0.387,0.014,0.897-0.53,1.082c-0.088,0.029-0.171,0.18-0.191,0.287
	c-0.073,0.348-0.333,0.633-0.339,1.004c-0.002,0.112-0.009,0.219-0.177,0.17c-0.114-0.034-0.161,0.061-0.112,0.131
	c0.222,0.324-0.083,0.461-0.228,0.641c-0.203,0.252-0.504,0.41-0.675,0.696c-0.342,0.222-0.87,0.009-1.105,0.517
	c-0.077,0.166-1.089,0.023-1.228-0.15c-0.156-0.193-0.393-0.195-0.594-0.27c-1.128-0.42-1.534-1.381-1.82-2.424
	c-0.088-0.323-0.128-0.61-0.532-0.733c-0.321-0.098-0.165-0.489-0.261-0.735c-0.049-0.127-0.034-0.281-0.093-0.419
	c-0.116-0.273-0.024-0.419,0.28-0.354c0.145,0.029,0.299-0.01,0.25-0.131c-0.146-0.357,0.134-0.519,0.272-0.748
	c0.034-0.055,0.049-0.12,0.074-0.18c0.182-0.029,0.287-0.136,0.317-0.316c0.231-0.047,0.344-0.236,0.476-0.399
	c0.026-0.025,0.053-0.052,0.079-0.078c0.026-0.053,0.055-0.104,0.081-0.157c0.052-0.027,0.104-0.055,0.157-0.082
	c0.026-0.025,0.053-0.053,0.081-0.078c0.004-0.014,0.01-0.025,0.013-0.037c-0.005,0.01-0.013,0.02-0.021,0.029
	c-0.026,0.026-0.053,0.053-0.079,0.08c-0.054,0.027-0.106,0.053-0.159,0.08c-0.026,0.053-0.053,0.105-0.079,0.158
	c-0.026,0.027-0.053,0.053-0.079,0.078c-0.263,0.009-0.41,0.154-0.478,0.398c-0.183,0.029-0.289,0.134-0.315,0.318
	c-0.148-0.03-0.237,0.227-0.39,0.1s-0.096-0.324-0.067-0.486c0.096-0.55,0.057-1.096,0.017-1.649
	c-0.03-0.41,0.016-0.853,0.463-1.097c0.051-0.027,0.094-0.098,0.108-0.155c0.113-0.403,0.442-0.616,0.786-0.711
	c0.461-0.126,0.449-0.347,0.274-0.681 M-305.212,127.606c-0.004,0.013-0.01,0.025-0.014,0.039c0.006-0.012,0.014-0.021,0.021-0.031
	c0.006-0.013,0.01-0.025,0.016-0.038C-305.197,127.586-305.205,127.596-305.212,127.606z M-306.772,127.045
	c0.063-0.156,0.092-0.264-0.047-0.363C-306.882,126.813-306.911,126.916-306.772,127.045z M-270.684,125.393
	c0.02-0.03,0.038-0.061,0.057-0.09C-270.646,125.333-270.664,125.363-270.684,125.393z M-267.051,126.009
	c-0.098,0.04-0.197,0.08-0.297,0.12c-0.264-0.118-0.502,0.023-0.463,0.288c0.019,0.14,0.12,0.294-0.073,0.37
	c-0.177,0.068-0.357,0.063-0.506-0.098c-0.303-0.322-0.321-0.709-0.039-1.063c0.327-0.413,0.746-0.519,1.135-0.309
	c0.171,0.093,0.28,0.283,0.493,0.309C-266.782,125.821-267.023,125.846-267.051,126.009z M-305.84,128.248
	c-0.132,0.163-0.244,0.353-0.476,0.399l-0.008-0.008c0.067-0.244,0.215-0.39,0.478-0.398
	C-305.846,128.242-305.84,128.248-305.84,128.248z M-306.772,127.045c-0.139-0.13-0.109-0.232-0.047-0.363
	C-306.681,126.782-306.709,126.889-306.772,127.045z M-306.315,128.647c-0.03,0.181-0.136,0.287-0.317,0.316l-0.006-0.006
	c0.026-0.185,0.133-0.289,0.315-0.318L-306.315,128.647z M-305.688,128.004c0.053-0.027,0.105-0.053,0.159-0.08l0.006,0.006
	c-0.053,0.027-0.105,0.055-0.157,0.082L-305.688,128.004z M-305.767,128.163c0.026-0.053,0.053-0.105,0.079-0.158l0.008,0.008
	c-0.026,0.053-0.055,0.104-0.081,0.157L-305.767,128.163z M-305.528,127.924c0.026-0.027,0.053-0.054,0.079-0.08l0.008,0.008
	c-0.028,0.025-0.055,0.053-0.081,0.078L-305.528,127.924z M-305.449,127.844c0.008-0.01,0.016-0.02,0.021-0.029
	c-0.003,0.012-0.009,0.023-0.013,0.037L-305.449,127.844z M-305.205,127.614c-0.007,0.011-0.015,0.02-0.021,0.031
	c0.004-0.014,0.01-0.026,0.014-0.039L-305.205,127.614z M-305.212,127.606c0.007-0.01,0.015-0.02,0.022-0.03
	c-0.006,0.013-0.01,0.025-0.016,0.038L-305.212,127.606z M-305.761,128.169c-0.026,0.026-0.053,0.053-0.079,0.078
	c0,0-0.006-0.006-0.006-0.007c0.026-0.025,0.053-0.051,0.079-0.078L-305.761,128.169z"/>
<text transform="matrix(1 0 0 1 -172.5923 -27.5752)" font-family="'Arial-BoldMT'" font-size="37.9957">3</text>
</svg>
