<?xml version="1.0" encoding="utf-8"?>
<!-- Generator: Adobe Illustrator 16.0.0, SVG Export Plug-In . SVG Version: 6.00 Build 0)  -->
<!DOCTYPE svg PUBLIC "-//W3C//DTD SVG 1.1//EN" "http://www.w3.org/Graphics/SVG/1.1/DTD/svg11.dtd">
<svg version="1.1" id="Layer_1" xmlns="http://www.w3.org/2000/svg" xmlns:xlink="http://www.w3.org/1999/xlink" x="0px" y="0px"
	 width="216px" height="241px" viewBox="0 0 216 241" enable-background="new 0 0 216 241" xml:space="preserve">
<g>
	
		<polygon fill-rule="evenodd" clip-rule="evenodd" fill="none" stroke="#050606" stroke-width="0.5248" stroke-miterlimit="10" points="
		122.197,61.934 90.448,61.917 106.354,4.15 	"/>
	<polyline fill-rule="evenodd" clip-rule="evenodd" points="106.354,3.905 90.513,61.688 106.271,61.681 	"/>
</g>
<g>
	
		<polygon fill-rule="evenodd" clip-rule="evenodd" fill="none" stroke="#050606" stroke-width="0.5248" stroke-miterlimit="10" points="
		150.393,87.343 127.748,65.088 179.569,35.01 	"/>
	<polyline fill-rule="evenodd" clip-rule="evenodd" points="179.74,34.835 127.953,64.969 139.205,76.003 	"/>
</g>
<g>
	
		<polygon fill-rule="evenodd" clip-rule="evenodd" fill="none" stroke="#050606" stroke-width="0.5248" stroke-miterlimit="10" points="
		151.885,123.818 151.855,92.069 209.645,107.892 	"/>
	<polyline fill-rule="evenodd" clip-rule="evenodd" points="209.891,107.892 152.084,92.134 152.116,107.892 	"/>
</g>
<g>
	
		<polygon fill-rule="evenodd" clip-rule="evenodd" fill="none" stroke="#050606" stroke-width="0.5248" stroke-miterlimit="10" points="
		127.583,150.667 150.18,128.367 179.464,180.64 	"/>
	<polyline fill-rule="evenodd" clip-rule="evenodd" points="179.637,180.814 150.297,128.574 139.092,139.654 	"/>
</g>
<g>
	
		<polygon fill-rule="evenodd" clip-rule="evenodd" fill="none" stroke="#050606" stroke-width="0.5248" stroke-miterlimit="10" points="
		90.866,153.115 122.614,153.133 106.708,210.898 	"/>
	<polyline fill-rule="evenodd" clip-rule="evenodd" points="106.708,211.145 122.551,153.361 106.793,153.37 	"/>
</g>
<g>
	
		<polygon fill-rule="evenodd" clip-rule="evenodd" fill="none" stroke="#050606" stroke-width="0.5248" stroke-miterlimit="10" points="
		63.402,128.715 85.829,151.188 33.722,180.764 	"/>
	<polyline fill-rule="evenodd" clip-rule="evenodd" points="33.549,180.937 85.623,151.305 74.479,140.162 	"/>
</g>
<g>
	
		<polygon fill-rule="evenodd" clip-rule="evenodd" fill="none" stroke="#050606" stroke-width="0.5248" stroke-miterlimit="10" points="
		61.108,91.938 61.137,123.687 3.347,107.866 	"/>
	<polyline fill-rule="evenodd" clip-rule="evenodd" points="3.103,107.866 60.909,123.624 60.877,107.866 	"/>
</g>
<g>
	
		<polygon fill-rule="evenodd" clip-rule="evenodd" fill="none" stroke="#050606" stroke-width="0.5248" stroke-miterlimit="10" points="
		85.595,64.518 63.102,86.922 33.574,34.788 	"/>
	<polyline fill-rule="evenodd" clip-rule="evenodd" points="33.399,34.614 62.984,86.717 74.137,75.583 	"/>
</g>
<circle fill="#EFEFEF" stroke="#000000" stroke-width="1.137" stroke-miterlimit="10" cx="107.333" cy="107.514" r="53.916"/>
<circle fill="none" stroke="#000000" stroke-width="1.0495" stroke-miterlimit="10" cx="107.235" cy="107.699" r="49.301"/>
<path fill="#020202" d="M144.908,78.877c0.01,0.058,0.008,0.125,0.095,0.119c0.009,0,0.024-0.015,0.026-0.024
	C145.033,78.886,144.965,78.888,144.908,78.877c-0.011-0.058-0.007-0.125-0.096-0.119c-0.009,0-0.024,0.015-0.024,0.023
	C144.782,78.868,144.851,78.867,144.908,78.877z M99.156,144.018c-0.443-1.654-0.738-3.341-0.573-5.046
	c0.197-2.031,0.132-4.088,0.583-6.095c0.019-0.089,0.035-0.184,0.03-0.274c-0.097-1.458,0.003-2.927-0.28-4.376
	c-0.126-0.643-0.12-1.311-0.175-1.968c0.094,0.061,0.128,0.005,0.175-0.074c0.819-1.371,1.859-2.584,2.825-3.849
	c1.148-1.507,2.286-3.022,3.333-4.603c0.398-0.599,0.927-0.958,1.628-1.071c0.357-0.059,0.636,0.046,0.851,0.36
	c0.293,0.43,0.454,0.913,0.616,1.399c0.209,0.624,0.357,1.267,0.665,1.858c0.555,1.061,1.087,2.134,1.625,3.203
	c0.355,0.704,0.641,1.453,1.077,2.103c0.524,0.785,1.112,1.529,1.618,2.33c-0.114,0.473-0.226,0.947-0.344,1.419
	c-0.269,1.076-0.557,2.149-0.352,3.277c0.085,0.479,0.162,0.956,0.107,1.452c-0.077,0.726-0.357,1.384-0.675,2.017
	c-0.532,1.058-0.677,2.145-0.485,3.304c0.139,0.844,0.297,1.688,0.269,2.552c-0.055,1.703-0.4,3.38-0.455,5.084
	c-0.041,1.306-0.222,2.605-0.18,3.914c0.026,0.805,0.281,1.486,1.062,1.896c0.37,0.193,0.69,0.482,1.036,0.722
	c0.819,0.568,1.665,1.037,2.717,1.061c0.748,0.016,1.496,0.15,2.158,0.562c-0.109,0.188,0.033,0.412-0.087,0.599
	c-0.171,0.303-0.466,0.408-0.778,0.475c-0.141,0.03-0.288,0.027-0.391,0.148c-0.138,0.008-0.274,0.016-0.412,0.023
	c-0.425-0.001-0.852-0.002-1.276-0.002c-0.487,0.038-0.937-0.191-1.418-0.209c-0.352-0.012-0.703-0.079-1.053-0.123
	c-0.227-0.105-0.472-0.116-0.718-0.138c-0.891-0.078-1.733,0.18-2.587,0.366c-0.032,0.03-0.065,0.061-0.098,0.09
	c-0.585-0.016-1.167,0.153-1.75-0.002c-0.038-0.099-0.111-0.146-0.213-0.157c-0.374-0.433-0.323-0.944-0.207-1.432
	c0.233-0.967,0.44-1.931,0.329-2.934c-0.201-1.823-0.515-3.625-0.988-5.399c-0.398-1.492-0.771-2.992-0.801-4.547
	c-0.03-1.666,0.385-3.265,0.756-4.871c0.281-1.225,0.486-2.463,0.25-3.725c-0.154-0.817-0.115-1.626,0.069-2.435
	c0.107-0.464,0.16-0.939,0.146-1.415c-0.053-2.012-0.553-3.976-0.641-5.988c-0.152,0.534-0.276,1.072-0.418,1.604
	c-0.47,1.779-0.838,3.565-0.738,5.429c0.073,1.368-0.192,2.712-0.575,4.021c-0.528,1.813-0.593,3.654-0.266,5.484
	c0.269,1.509,0.205,2.989,0.083,4.492c-0.081,0.985-0.098,1.977-0.104,2.969c-0.01,1.721,0.634,3.352,0.6,5.087
	c-0.015,0.738,0.211,1.529,0.374,2.282c0.113,0.515,0.134,0.98-0.032,1.467c-0.372,0.36-0.823,0.267-1.265,0.223
	c-0.271-0.302-0.447-0.059-0.638,0.108c-0.028-0.005-0.055-0.012-0.082-0.018c-0.064-0.081-0.148-0.072-0.237-0.06
	c-0.053-0.001-0.105-0.001-0.16-0.001c-0.317-0.002-0.633-0.003-0.951-0.005c-0.479-0.029-0.974,0.036-1.429-0.188
	c-0.124-0.159-0.201-0.338-0.24-0.535c0.122-0.562,0.333-1.08,0.686-1.541c0.146-0.188,0.219-0.421,0.27-0.656
	c0.09-0.411,0.163-0.821,0.334-1.215c0.16-0.366,0.016-0.752-0.035-1.13c-0.239-1.848-0.882-3.577-1.538-5.305
	c-0.096-0.258-0.169-0.524-0.252-0.787c0.229-0.021,0.485,0.06,0.662-0.169c0.063-0.082,0.167-0.168,0.06-0.27
	c-0.086-0.083-0.175-0.009-0.238,0.058c-0.124,0.128-0.295,0.205-0.423,0.101c-0.128-0.103-0.183-0.294-0.107-0.481
	c0.169,0.028,0.057,0.316,0.254,0.252c0.163-0.055,0.075-0.229,0.09-0.351c0.022-0.186-0.067-0.273-0.253-0.254
	C99.426,144.125,99.288,144.088,99.156,144.018z M81.171,146.525c0.021-0.016,0.042-0.03,0.063-0.047
	c0.026,0.006,0.054,0.005,0.077,0.016c0.37,0.169,0.366,0.168,0.464-0.173c0.015-0.053,0.102-0.081,0.138-0.132
	c0.09-0.123,0.293-0.146,0.299-0.341v0.002c0.259-0.055,0.648,0.081,0.614-0.413l0.006-0.001c0.128,0.024,0.179-0.029,0.158-0.157
	c0.366-0.013,0.633-0.26,0.675-0.552c0.063-0.458,0.374-0.86,0.283-1.343l-0.001,0.004c0.114-0.049,0.09-0.148,0.086-0.24h-0.004
	c0.19,0.007,0.367,0.001,0.272-0.275c-0.029-0.082-0.011-0.162,0.034-0.227c0.297-0.424,0.237-0.952,0.414-1.413
	c0.056-0.143,0.18-0.255,0.165-0.434c-0.067-0.896,0.238-1.741,0.435-2.589c0.082-0.359,0.102-0.692,0.11-1.042
	c-0.015-0.015-0.015-0.028,0-0.043c0.211-0.021,0.193-0.211,0.271-0.34c0.075-0.125-0.041-0.25,0.051-0.373
	c0.339-0.455,0.276-1.057,0.548-1.541c0.013-0.022-0.044-0.085-0.068-0.128c0-0.063,0.016-0.122,0.071-0.161
	c0.026-0.028,0.053-0.058,0.079-0.087l-0.004,0.001c0.021-0.014,0.049-0.021,0.066-0.039c0.38-0.392,0.4-1.056,0.992-1.292
	c0.098-0.038,0.045-0.197,0.079-0.293c0.043-0.127,0.024-0.334,0.211-0.338c0.267-0.005,0.305-0.197,0.321-0.368
	c0.043-0.425,0.571-0.506,0.622-0.915c0.002-0.008,0.021-0.017,0.034-0.02c0.378-0.096,0.382-0.096,0.468-0.479
	c0.022-0.1,0.113-0.148,0.148-0.221c0.118-0.25,0.476-0.234,0.555-0.489c0.107-0.342,0.207-0.676,0.447-0.959
	c0.262-0.31,0.382-0.687,0.433-1.087l0,0c0.136,0.003,0.237-0.071,0.282-0.183c0.184-0.46,0.488-0.827,0.857-1.149
	c0.106-0.095,0.159-0.208,0.108-0.352l0.004-0.004c0.164,0.009,0.329,0.017,0.492,0.023c0.113,0.108,0.13,0.256,0.166,0.396
	c-0.13,0.224,0.051,0.376,0.158,0.502c0.411,0.484,1.129,0.981,1.586,0.687c0.079,0.002,0.158,0.005,0.237,0.008
	c0.105,0.22,0.21,0.22,0.317-0.001c0.211-0.028,0.421-0.058,0.634-0.086c0.132,0.134,0.207,0.094,0.237-0.079
	c0.033-0.064,0.092-0.078,0.157-0.081c0.489,0.238,0.831-0.079,1.196-0.314c0.152,0.006,0.218-0.127,0.323-0.198
	c0.354-0.242,0.407-0.676,0.643-0.992c0.013,0.132,0.026,0.266,0.039,0.399c-0.08,0.106-0.08,0.212,0.006,0.315
	c0.085,0.333-0.047,0.576-0.28,0.812c-1.484,1.506-2.645,3.277-3.99,4.898c-0.467,0.562-0.698,1.298-0.963,1.987
	c-0.361,0.936-0.692,1.881-1.051,2.815c-0.337,0.874-0.906,1.604-1.497,2.316c-1.167,1.412-2.355,2.807-3.288,4.396
	c-0.383,0.653-0.675,1.341-0.896,2.062c-0.035,0.113-0.045,0.249-0.114,0.335c-0.681,0.852-0.921,1.954-1.617,2.801
	c-0.271,0.332-0.439,0.75-0.813,0.999c-0.687-0.102-1.14-0.644-1.725-0.943c-0.722-0.37-1.49-0.721-2.045-1.363
	c-0.041-0.049-0.077-0.104-0.116-0.154l-0.008-0.014c0.47-0.13,0.62-0.661,1.065-0.847C80.978,146.951,81.189,146.75,81.171,146.525
	z M67.148,90.296c0.835-0.294,1.703-0.314,2.574-0.306c0.159,0.001,0.317,0.01,0.477,0.004c0.127-0.006,0.305,0.015,0.316-0.156
	c0.013-0.179-0.158-0.224-0.307-0.24c-0.47-0.058-0.941-0.104-1.412-0.159c-0.261-0.03-0.527-0.041-0.779-0.11
	c-0.203-0.054-0.489-0.098-0.471-0.395c0.02-0.31,0.305-0.343,0.534-0.362c0.355-0.029,0.711-0.008,1.067,0.028
	c0.786,0.076,1.563,0.272,2.361,0.209c0.345-0.027,0.687-0.057,1.008-0.186c0.305-0.123,0.333-0.316,0.085-0.525
	c-0.19-0.161-0.398-0.302-0.6-0.451c-0.397-0.298-0.551-0.688-0.446-1.053c0.083-0.285,0.243-0.322,0.476-0.197
	c0.115,0.063,0.228,0.135,0.325,0.222c0.399,0.352,0.822,0.654,1.316,0.862c0.252,0.105,0.41,0.321,0.53,0.567
	c0.563,1.156,1.54,1.665,2.78,1.689c1.863,0.037,3.713-0.164,5.564-0.36c1.268-0.135,2.538-0.063,3.779,0.236
	c1.635,0.394,3.265,0.367,4.906,0.084c0.116-0.021,0.235-0.012,0.354-0.016c0.504,0.26,1.045,0.435,1.561,0.664
	c0.482,0.215,1.019,0.265,1.484,0.533c0.377,0.215,0.816,0.3,1.188,0.534c0.687,0.435,1.061,1.126,1.451,1.796
	c0.27,0.459,0.557,0.919,0.656,1.458c-0.667-0.764-1.517-0.777-2.396-0.54c-1.221,0.33-2.433,0.179-3.653,0.022
	c-1.561-0.199-3.126-0.244-4.701-0.143c-1.502,0.098-3.008,0.066-4.51-0.097c-1.826-0.199-3.546-0.807-5.281-1.348
	c-0.632-0.196-1.282-0.309-1.933-0.42c-0.441-0.075-0.827,0.14-1.235,0.229c-0.765,0.167-1.549,0.134-2.321,0.201
	c-0.715,0.063-1.282,0.467-1.927,0.684c-0.188,0.063-0.373,0.135-0.564,0.185c-0.175,0.045-0.359,0.038-0.436-0.161
	c-0.076-0.191,0.035-0.349,0.191-0.433c0.291-0.153,0.6-0.274,0.898-0.413c0.276-0.127,0.551-0.256,0.823-0.39
	c0.104-0.052,0.162-0.145,0.12-0.263c-0.049-0.137-0.152-0.106-0.263-0.079c-0.741,0.183-1.481,0.364-2.226,0.534
	c-0.273,0.061-0.636,0.204-0.754-0.168c-0.121-0.377,0.281-0.424,0.519-0.497c0.616-0.191,1.248-0.338,1.87-0.509
	c0.123-0.033,0.266-0.046,0.388-0.242c-1.165-0.141-2.276,0.183-3.394,0.124C67.039,90.729,67.041,90.511,67.148,90.296z
	 M70.602,77.487c-0.15-0.109-0.21-0.295-0.071-0.393c0.394-0.272,0.097-0.428-0.067-0.613c0.233-0.53,0.262-0.549,0.758-0.303
	c0.141,0.068,0.212,0.028,0.303-0.06c0.141-0.136,0.297-0.144,0.459-0.035c-0.251,0.305-0.322,0.601,0.031,0.886
	c0.098,0.078,0.148,0.177,0.092,0.314c-0.047,0.116-0.127,0.287,0.091,0.298c0.167,0.008,0.181-0.161,0.181-0.298
	c0-0.118,0.026-0.25-0.075-0.336c-0.27-0.226-0.246-0.497-0.146-0.787c0.269-0.067,0.344,0.32,0.608,0.263
	c0.579,0.152,1.048,0.535,1.589,0.77c0.061-0.104-0.015-0.164-0.041-0.231c-0.075-0.182-0.044-0.34,0.102-0.467
	c0.135-0.119,0.285-0.102,0.443-0.035c0.443,0.187,0.795,0.52,1.213,0.746c1.005,0.548,1.532,1.449,1.862,2.497
	c0.053,0.169,0.166,0.256,0.314,0.329c0.707,0.35,1.478,0.488,2.235,0.66c1.799,0.407,3.628,0.7,5.313,1.513
	c0.839,0.404,1.63,0.898,2.311,1.518c0.846,0.772,1.85,1.08,2.929,1.258c1.215,0.199,2.335,0.666,3.397,1.263
	c0.462,0.259,0.887,0.386,1.423,0.271c1.938-0.415,3.741,0.054,5.469,0.925c0.222,0.111,0.443,0.225,0.716,0.361
	c-0.336,0.146-0.635,0.194-0.945,0.195c-0.829,0.002-1.664-0.046-2.459,0.287c-0.148,0.063-0.34,0.045-0.51,0.038
	c-2.049-0.095-4.063,0.21-6.036,0.693c-1.091,0.267-1.993,0.047-2.886-0.507c-0.823-0.51-1.688-0.884-2.654-1.077
	c-1.798-0.36-3.414-1.19-4.932-2.192c-1.479-0.979-3.015-1.847-4.587-2.662c-0.604-0.314-1.228-0.524-1.87-0.728
	c-0.88-0.278-1.719-0.643-2.333-1.41c-0.352-0.438-0.82-0.783-1.245-1.159c-0.18-0.159-0.352-0.325-0.476-0.527
	c-0.145-0.24-0.171-0.47,0.219-0.553c-0.146-0.154-0.271-0.285-0.396-0.416c0.09-0.357,0.191-0.398,0.454-0.171
	c0.099,0.084,0.168,0.202,0.264,0.29c0.051,0.047,0.13,0.116,0.207,0.053c0.075-0.064,0.024-0.145-0.014-0.215
	C71.544,77.176,71.087,77.082,70.602,77.487z M72.155,76.161c-0.1,0.29-0.123,0.562,0.146,0.787
	c0.102,0.086,0.075,0.218,0.075,0.336c0,0.137-0.014,0.306-0.181,0.298c-0.218-0.011-0.138-0.182-0.091-0.298
	c0.057-0.138,0.006-0.236-0.092-0.314c-0.354-0.285-0.282-0.581-0.031-0.886C72.04,76.11,72.097,76.136,72.155,76.161z
	 M114.54,116.097c-0.002-0.056-0.004-0.111-0.008-0.167c0.142-0.142-0.022-0.362,0.15-0.53c0.109,0.136,0.185,0.259,0.241,0.427
	c0.098,0.297,0.188,0.632,0.558,0.736v-0.005c0.01,0.664,0.553,1.025,0.861,1.52l0,0c-0.022,0.164,0.034,0.308,0.1,0.455
	c0.449,1.003,0.797,2.043,1.069,3.105c0.156,0.608,0.249,1.234,0.397,1.843c0.189,0.779,0.395,1.521-0.156,2.239
	c-0.116,0.151-0.122,0.362,0.083,0.429c0.594,0.19,0.791,0.621,0.904,1.192c0.065,0.325,0.18,0.703,0.531,0.896l0.004,0.005
	c-0.015,0.485,0.384,0.776,0.568,1.169c0.175,0.368,0.37,0.705,0.389,1.128c0.028,0.603,0.111,1.202,0.13,1.805
	c0.028,0.898,0.408,1.683,0.786,2.459c0.141,0.29,0.232,0.664,0.604,0.8l-0.001,0.002c0.001,0.161,0.065,0.294,0.159,0.431
	c0.329,0.48,0.675,0.955,0.953,1.464c0.573,1.057,0.733,2.267,1.197,3.369c0.284,0.67,0.467,1.376,0.802,2.04
	c0.263,0.522,0.503,1.076,0.695,1.643c0.071,0.213,0.055,0.521,0.374,0.595c0,0,0.004,0.01,0.004,0.009
	c-0.047,0.246,0.199,0.526-0.109,0.752c-0.061,0.042,0.065,0.113,0.146,0.082c0.096-0.037,0.162-0.139,0.278-0.131
	c0.213,0.346,0.382,0.718,0.643,1.035c0.268,0.327,0.593,0.582,1.021,0.613c1.075,0.082,2.141,0.259,3.222,0.263
	c0.611,0.002,1.207-0.07,1.802-0.187c0.806-0.156,0.879-0.113,1.102,0.676c-0.117,0.35-0.414,0.528-0.688,0.722
	c-0.85,0.595-1.79,1.015-2.752,1.386l-0.034-0.01l-0.024,0.029l0.008-0.005c-0.181,0.028-0.361,0.058-0.544,0.084
	c-1.022,0.15-1.923,0.521-2.517,1.429c-0.615,0.507-1.221,1.035-2.104,0.949c-0.455-0.228-0.707-0.608-0.833-1.091
	c-0.111-0.421-0.175-0.85-0.235-1.28c-0.128-0.911-0.697-1.611-1.158-2.357c-1.043-1.687-2.301-3.215-3.571-4.729
	c-1.752-2.089-2.826-4.484-3.343-7.155c-0.214-1.098-0.492-2.188-1.004-3.2c-0.244-0.488-0.607-0.892-0.896-1.348
	c-0.555-0.88-0.605-1.898-0.805-2.872c-0.038-0.176,0.024-0.396,0.132-0.571c0.232-0.18,0.396-0.457,0.411-0.707
	c0.026-0.468,0-0.922,0.37-1.281c0.04-0.04,0.057-0.121,0.057-0.183c-0.006-0.67,0.113-1.322,0.22-1.983
	c0.154-0.955,0.201-1.932,0.185-2.906c-0.015-0.803-0.013-1.605,0-2.408c0.012-0.752-0.156-1.487-0.183-2.236
	C114.729,116.396,114.754,116.173,114.54,116.097z M114.754,130.061c0.213,0.003,0.408-0.069,0.502-0.257
	c0.091-0.178,0.091-0.383-0.025-0.566c-0.213-0.338-0.599-0.517-0.803-0.864c-0.032-0.054-0.115-0.067-0.176-0.015
	c-0.051,0.044-0.029,0.1,0,0.142c0.077,0.105,0.149,0.221,0.245,0.307c0.188,0.167,0.366,0.337,0.5,0.553
	c0.135,0.219-0.034,0.324-0.169,0.412c-0.185,0.121-0.303-0.016-0.369-0.167c-0.039-0.09-0.017-0.207-0.026-0.312
	c-0.007-0.097,0.04-0.24-0.122-0.237c-0.128,0.001-0.158,0.13-0.179,0.229C114.063,129.617,114.422,130.057,114.754,130.061z
	 M116.138,127.651c0.192-0.04,0.085,0.466,0.329,0.166c0.096-0.118,0.13-0.432-0.088-0.568c-0.203-0.126-0.345,0.045-0.459,0.191
	c-0.132,0.167-0.164,0.343-0.063,0.55c0.24,0.503,0.797,0.54,1.171,0.07c0.059-0.073,0.145-0.15,0.071-0.238
	c-0.098-0.117-0.187-0.022-0.265,0.047c-0.051,0.043-0.102,0.088-0.144,0.138c-0.132,0.157-0.276,0.183-0.449,0.064
	C116.068,127.951,116.072,127.809,116.138,127.651z M118.151,126.927c-0.13-0.273-0.329-0.463-0.563-0.594
	c-0.207-0.113-0.45-0.172-0.642,0.058c-0.207,0.247-0.199,0.535-0.019,0.766c0.158,0.203,0.395,0.359,0.691,0.237
	c0.107-0.044,0.256-0.106,0.201-0.246c-0.067-0.172-0.182-0.054-0.282,0.001c-0.259,0.14-0.364-0.077-0.458-0.236
	c-0.085-0.145-0.01-0.308,0.137-0.363c0.213-0.082,0.374,0.075,0.514,0.206C117.847,126.864,117.936,126.991,118.151,126.927z
	 M115.341,128.036c-0.105,0.061-0.173,0.146-0.189,0.276c-0.044,0.328,0.171,0.504,0.393,0.674c0.085,0.063,0.158,0.25,0.274,0.141
	c0.128-0.12-0.012-0.224-0.118-0.311c-0.209-0.169-0.408-0.346-0.252-0.661C115.479,128.091,115.435,128.029,115.341,128.036z
	 M127.489,151.892c0.594-0.907,1.494-1.278,2.517-1.429c0.183-0.026,0.363-0.056,0.544-0.084
	C129.563,150.951,128.579,151.528,127.489,151.892z M130.542,150.384l0.024-0.029l0.034,0.01
	C130.582,150.372,130.561,150.379,130.542,150.384z M116.839,94.459c-0.212,0.274-0.327,0.601-0.468,0.91
	c-0.604,1.329-1.408,2.585-1.587,4.073c-0.146,1.223-0.427,2.414-0.72,3.606c-0.191,0.781-0.412,1.573-0.366,2.38
	c0.129,2.263-0.055,4.544,0.364,6.794c0.126,0.675,0.118,1.37-0.006,2.052c-0.212,1.167-0.004,2.316,0.104,3.472
	c0.321,3.454,0.069,6.854-1.006,10.17c-0.506-0.801-1.094-1.545-1.618-2.33c-0.437-0.649-0.722-1.398-1.077-2.103
	c-0.538-1.069-1.07-2.143-1.625-3.203c-0.308-0.592-0.456-1.234-0.665-1.858c-0.162-0.486-0.323-0.97-0.616-1.399
	c-0.215-0.314-0.493-0.419-0.851-0.36c-0.701,0.113-1.229,0.473-1.628,1.071c-1.047,1.58-2.185,3.096-3.333,4.603
	c-0.966,1.265-2.006,2.478-2.825,3.849c-0.047,0.079-0.081,0.135-0.175,0.074c-0.034-1.399,0.021-2.799,0.026-4.198
	c0.007-1.479,0.004-2.957,0.104-4.435c0.139-2.038,0.56-4.016,1.287-5.927c0.372-0.98,0.414-2.011,0.442-3.038
	c0.026-0.938,0.094-1.872,0.15-2.807c0.051-0.877-0.1-1.736-0.282-2.588c-0.291-1.354-0.534-2.717-0.711-4.091
	c-0.079-0.607-0.325-1.166-0.53-1.737c0.278,0.11,0.553,0.284,0.855,0.077c0.105-0.072,0.271-0.163,0.194-0.301
	c-0.105-0.186-0.221-0.018-0.313,0.059c-0.162,0.135-0.319,0.126-0.449-0.03c-0.124-0.151-0.146-0.313,0.026-0.464
	c0.108,0.125-0.012,0.43,0.214,0.358c0.173-0.056,0.061-0.329,0.066-0.504c0.004-0.141-0.077-0.201-0.237-0.176
	c-0.35,0.056-0.435,0.332-0.539,0.599c-0.423-0.708-0.654-1.506-1.04-2.231c0.008-0.068-0.013-0.123-0.075-0.156l-0.002-0.002
	c-0.1-0.539-0.387-0.999-0.656-1.458c-0.391-0.67-0.765-1.361-1.451-1.796c-0.372-0.234-0.812-0.319-1.188-0.534
	c-0.466-0.269-1.002-0.318-1.484-0.533c-0.516-0.229-1.057-0.404-1.561-0.664c1.359-0.331,2.733-0.57,4.121-0.736
	c0.75-0.09,1.504-0.074,2.256-0.064c0.4,0.006,0.791-0.024,1.165-0.18c0.429-0.177,0.88-0.16,1.329-0.151
	c0.583,0.011,1.168-0.011,1.727-0.187c1.056-0.334,1.974-0.842,2.256-2.056c0.624,0.457,1.208,0.887,1.887,1.156
	c0.615,0.245,1.247,0.244,1.849-0.027c0.686-0.312,1.327-0.702,1.864-1.232c0.142,0.032,0.102,0.151,0.126,0.229
	c0.444,1.34,1.54,1.791,2.779,2.042c0.362,0.074,0.734,0.087,1.104,0.071c0.572-0.023,1.134,0.008,1.672,0.237
	c0.171,0.073,0.357,0.098,0.545,0.089c2.117-0.108,4.181,0.256,6.241,0.679c0.166,0.034,0.348,0.004,0.493,0.123
	c-0.829,0.421-1.685,0.782-2.555,1.108c-0.564,0.211-1.129,0.435-1.666,0.703c-0.994,0.499-1.382,1.477-1.797,2.415
	C116.909,94.073,116.762,94.243,116.839,94.459z M93.389,123.162c0.258-1.079,0.685-2.1,1.113-3.116
	c0.689-1.633,1.571-3.154,2.683-4.537c0.551-0.687,1.152-1.329,1.776-1.951l-0.002-0.002c-0.134,0.669-0.282,1.335-0.395,2.008
	c-0.327,1.929-0.331,3.878-0.337,5.826c-0.002,1.094-0.039,2.186-0.062,3.278c-0.034-0.069-0.077-0.136-0.1-0.208
	c-0.423-1.259-1.553-1.969-2.843-1.932C94.551,122.547,93.947,122.796,93.389,123.162z M93.389,123.162
	c0.559-0.366,1.162-0.615,1.835-0.634c1.29-0.037,2.42,0.673,2.843,1.932c0.022,0.072,0.065,0.139,0.1,0.208
	c0.006,0.502,0.011,1.004,0.017,1.505c-0.235,0.316-0.289,0.75-0.643,0.992c-0.105,0.071-0.171,0.204-0.323,0.198
	c-0.006-0.172,0.019-0.324,0.106-0.488c0.662-1.226,0.42-2.416-0.612-3.153c-0.77-0.547-1.605-0.577-2.394-0.192
	c-0.793,0.388-1.188,1.104-1.069,2.025c0.189,1.465,1.435,1.997,2.561,1.438c0.62-0.308,0.756-0.852,0.699-1.497
	c-0.042-0.451-0.318-0.679-0.681-0.842c-0.398-0.178-0.985,0.007-1.195,0.357c-0.203,0.338-0.14,0.813,0.131,1.057
	c0.148,0.135,0.316,0.142,0.479,0.084c0.193-0.069,0.128-0.221,0.085-0.365c-0.055-0.183,0.039-0.313,0.201-0.382
	c0.203-0.085,0.291,0.083,0.36,0.218c0.123,0.236,0.063,0.467-0.102,0.662c-0.372,0.444-1.36,0.372-1.671-0.122
	c-0.391-0.626-0.301-1.131,0.049-1.706c0.25-0.414,1.152-0.685,1.642-0.534c1.346,0.414,1.886,1.939,0.896,3.171
	c-0.193,0.241-0.488,0.351-0.683,0.585c-0.065,0.003-0.124,0.017-0.157,0.081c-0.085,0.007-0.179-0.01-0.237,0.079
	c-0.213,0.028-0.423,0.058-0.634,0.086c-0.107,0-0.212,0-0.317,0.001c-0.079-0.003-0.158-0.006-0.237-0.008
	c-0.738-0.164-1.312-0.574-1.744-1.188c-0.036-0.14-0.053-0.287-0.166-0.396c-0.041-0.188-0.1-0.375-0.076-0.573
	C92.876,124.935,93.062,124.022,93.389,123.162z M90.783,127.997c-0.051,0.4-0.171,0.777-0.433,1.087
	c-0.24,0.283-0.34,0.617-0.447,0.959c-0.079,0.255-0.437,0.239-0.555,0.489c-0.035,0.072-0.126,0.121-0.148,0.221
	c-0.086,0.384-0.09,0.384-0.468,0.479c-0.014,0.003-0.032,0.012-0.034,0.02c-0.051,0.409-0.579,0.49-0.622,0.915
	c-0.017,0.171-0.055,0.363-0.321,0.368c-0.187,0.004-0.168,0.211-0.211,0.338c-0.034,0.096,0.019,0.255-0.079,0.293
	c-0.592,0.236-0.612,0.9-0.992,1.292c-0.018,0.018-0.045,0.025-0.066,0.039c0.164-0.693,0.597-1.249,0.967-1.834
	c0.707-1.116,1.695-2.009,2.459-3.083C90.191,129.075,90.381,128.474,90.783,127.997z M85.459,137.169
	c-0.009,0.35-0.028,0.683-0.11,1.042c-0.196,0.848-0.502,1.693-0.435,2.589c0.015,0.179-0.109,0.291-0.165,0.434
	c-0.177,0.461-0.117,0.989-0.414,1.413c-0.045,0.064-0.063,0.145-0.034,0.227c0.095,0.276-0.082,0.282-0.272,0.275
	c0.274-1.044,0.534-2.091,0.745-3.149c0.163-0.825,0.36-1.646,0.539-2.469C85.341,137.4,85.363,137.271,85.459,137.169z
	 M99.046,97.057c0.104-0.267,0.189-0.543,0.539-0.599c0.16-0.025,0.241,0.035,0.237,0.176c-0.006,0.175,0.106,0.448-0.066,0.504
	c-0.226,0.071-0.105-0.233-0.214-0.358c-0.173,0.15-0.15,0.313-0.026,0.464c0.13,0.156,0.287,0.165,0.449,0.03
	c0.092-0.076,0.207-0.244,0.313-0.059c0.076,0.138-0.089,0.229-0.194,0.301c-0.303,0.207-0.577,0.033-0.855-0.077
	C99.128,97.33,99.089,97.192,99.046,97.057z M99.156,144.018c0.132,0.07,0.27,0.107,0.42,0.094c0.186-0.02,0.275,0.068,0.253,0.254
	c-0.015,0.121,0.073,0.296-0.09,0.351c-0.197,0.064-0.085-0.224-0.254-0.252c-0.075,0.188-0.021,0.379,0.107,0.481
	c0.128,0.104,0.299,0.027,0.423-0.101c0.063-0.066,0.152-0.141,0.238-0.058c0.107,0.102,0.004,0.188-0.06,0.27
	c-0.177,0.229-0.433,0.147-0.662,0.169C99.352,144.841,99.264,144.426,99.156,144.018z M83.947,143.385
	c0.091,0.482-0.22,0.885-0.283,1.343c-0.042,0.292-0.309,0.539-0.675,0.552C83.309,144.647,83.628,144.016,83.947,143.385z
	 M86.26,134.744c0.024,0.043,0.081,0.105,0.068,0.128c-0.271,0.484-0.209,1.086-0.548,1.541c-0.092,0.123,0.024,0.248-0.051,0.373
	c-0.077,0.129-0.06,0.319-0.271,0.34C85.623,136.297,85.879,135.499,86.26,134.744z M81.171,146.525
	c0.019,0.225-0.193,0.426-0.282,0.462c-0.445,0.186-0.596,0.717-1.065,0.847c-0.017-0.254,0.154-0.407,0.313-0.555
	C80.453,146.991,80.772,146.704,81.171,146.525z M92.031,126.313c0.051,0.144-0.002,0.257-0.108,0.352
	c-0.369,0.322-0.674,0.689-0.857,1.149c-0.045,0.111-0.146,0.186-0.282,0.183C91.08,127.347,91.464,126.762,92.031,126.313z
	 M82.211,145.849c-0.006,0.195-0.209,0.218-0.299,0.341c-0.036,0.051-0.123,0.079-0.138,0.132c-0.098,0.341-0.094,0.342-0.464,0.173
	c-0.023-0.011-0.051-0.01-0.077-0.016C81.526,146.219,81.835,145.982,82.211,145.849z M92.451,125.76
	c-0.023,0.198,0.035,0.386,0.076,0.573c-0.163-0.007-0.328-0.015-0.492-0.023C92.12,126.086,92.225,125.878,92.451,125.76z
	 M82.825,145.438c0.034,0.494-0.355,0.358-0.614,0.413C82.41,145.704,82.594,145.534,82.825,145.438z M82.989,145.279
	c0.021,0.128-0.03,0.182-0.158,0.157C82.841,145.342,82.888,145.283,82.989,145.279z M98.228,126.888
	c-0.086-0.104-0.086-0.209-0.006-0.315C98.224,126.678,98.226,126.782,98.228,126.888z M84.032,143.148
	c0.004,0.092,0.028,0.191-0.086,0.24C83.942,143.297,83.94,143.206,84.032,143.148z M97.931,94.669
	c0.063,0.033,0.083,0.088,0.075,0.156C97.937,94.795,97.916,94.741,97.931,94.669z M86.41,134.496
	c-0.026,0.029-0.053,0.059-0.079,0.087C86.357,134.555,86.384,134.525,86.41,134.496z M98.959,113.556
	c0.006-0.009,0.012-0.018,0.019-0.024c-0.005,0.008-0.011,0.017-0.017,0.026L98.959,113.556z M105.308,76.021
	c0.175,0.334,0.187,0.555-0.274,0.681c-0.344,0.094-0.673,0.308-0.786,0.711c-0.015,0.058-0.058,0.128-0.108,0.155
	c-0.447,0.244-0.493,0.687-0.463,1.097c0.039,0.555,0.079,1.1-0.017,1.649c-0.028,0.162-0.085,0.359,0.067,0.485
	c0.152,0.127,0.24-0.129,0.39-0.1l0.005,0.006c-0.024,0.061-0.039,0.125-0.073,0.18c-0.139,0.23-0.419,0.391-0.272,0.748
	c0.049,0.121-0.105,0.161-0.25,0.131c-0.305-0.063-0.396,0.082-0.28,0.355c0.059,0.137,0.044,0.291,0.093,0.418
	c0.096,0.247-0.061,0.639,0.261,0.736c0.404,0.123,0.443,0.41,0.532,0.733c0.286,1.043,0.691,2.004,1.819,2.423
	c0.201,0.075,0.438,0.077,0.595,0.271c0.139,0.174,1.15,0.316,1.228,0.149c0.234-0.507,0.763-0.295,1.105-0.516
	c0.013,0.015,0.024,0.03,0.037,0.045c-0.325,0.25-0.673,0.462-1.059,0.605c-0.344,0.13-0.716,0.183-1.049,0.061
	c-1.002-0.367-1.938-0.844-2.461-1.856c-0.159-0.31-0.229-0.647-0.293-0.981c-0.049-0.242-0.15-0.412-0.364-0.529
	c-0.327-0.178-0.491-0.457-0.523-0.831c-0.029-0.366-0.173-0.718-0.152-1.094c0.01-0.168,0.03-0.367,0.205-0.385
	c0.329-0.035,0.268-0.242,0.264-0.447c-0.016-0.699-0.089-1.397-0.034-2.098c0.083-1.089,0.585-1.896,1.573-2.386
	c0.048-0.023,0.093-0.051,0.136-0.078c0.012-0.006,0.015-0.021,0.067-0.097 M116.839,94.459c-0.077-0.216,0.07-0.386,0.146-0.558
	c0.415-0.938,0.803-1.916,1.797-2.415c0.537-0.269,1.102-0.492,1.666-0.703c0.87-0.326,1.726-0.688,2.555-1.108
	c0.47,0.053,0.941,0.093,1.41,0.159c1.405,0.199,2.78,0.021,4.158-0.276c1.459-0.313,2.931-0.259,4.41-0.079
	c1.611,0.194,3.233,0.332,4.855,0.249c1.066-0.055,1.953-0.526,2.471-1.532c0.212-0.411,0.498-0.723,0.957-0.89
	c0.438-0.159,0.75-0.529,1.126-0.798c0.404-0.291,0.526-0.245,0.707,0.225c-0.028,0.159-0.059,0.317-0.087,0.476
	c-0.015,0.017-0.019,0.036-0.015,0.057c-0.29,0.333-0.687,0.53-1.008,0.819c-0.267,0.239-0.235,0.414,0.1,0.542
	c0.109,0.043,0.228,0.063,0.342,0.094c1.081,0.289,2.134-0.006,3.194-0.16c0.081-0.006,0.162-0.011,0.242-0.017
	c0.313,0.045,0.636-0.029,0.94,0.092c0.13,0.053,0.231,0.13,0.244,0.28c0.015,0.157-0.079,0.246-0.209,0.3
	c-0.133,0.054-0.269,0.111-0.407,0.139c-0.532,0.1-1.068,0.15-1.607,0.165c-0.231,0.006-0.44,0.079-0.652,0.149
	c-0.085,0.029-0.134,0.082-0.126,0.174c0.011,0.098,0.084,0.126,0.167,0.134c0.092,0.008,0.185,0.018,0.276,0.014
	c0.938-0.038,1.865,0.048,2.786,0.217c0.301,0.273,0.323,0.546,0,0.818c-1.028-0.161-2.059-0.292-3.102-0.216
	c-0.032,0.001-0.063,0.041-0.117,0.079c0.437,0.273,0.933,0.3,1.392,0.436c0.364,0.109,0.742,0.185,1.09,0.349
	c0.16,0.075,0.384,0.128,0.313,0.379c-0.065,0.24-0.28,0.276-0.483,0.237c-0.673-0.126-1.346-0.249-2-0.458
	c-0.15-0.048-0.307-0.076-0.461-0.109c-0.11-0.023-0.254-0.108-0.31,0.05c-0.061,0.165,0.06,0.278,0.197,0.341
	c0.398,0.177,0.799,0.344,1.201,0.514c0.171,0.072,0.342,0.139,0.483,0.265c0.133,0.117,0.203,0.255,0.126,0.42
	c-0.073,0.155-0.235,0.174-0.378,0.139c-0.229-0.056-0.479-0.096-0.675-0.217c-1.07-0.667-2.27-0.725-3.473-0.771
	c-0.346-0.015-0.69-0.046-1.01-0.174c-0.545-0.22-1.085-0.134-1.632-0.024c-1.075,0.216-2.109,0.578-3.152,0.909
	c-1.707,0.543-3.453,0.832-5.247,0.878c-1.587,0.042-3.168-0.125-4.752-0.096c-1.296,0.023-2.574,0.22-3.858,0.344
	c-0.785,0.076-1.553,0.006-2.319-0.153c-0.461-0.097-0.916-0.229-1.404-0.124C117.369,94.094,117.111,94.282,116.839,94.459z
	 M139.231,81.958c-0.066,0.003-0.13,0.007-0.195,0.011c-0.266,0.021-0.53,0.049-0.747,0.23l-0.024-0.005l-0.022,0.011
	c-0.193,0.016-0.34,0.124-0.483,0.239c-1.935,0.919-3.737,2.064-5.547,3.201c-1.459,0.916-3.034,1.604-4.751,1.894
	c-0.795,0.133-1.453,0.543-2.119,0.944c-0.443,0.268-0.932,0.435-1.389,0.669c-0.185,0.094-0.392,0.047-0.587,0.01
	c-1.605-0.303-3.201-0.657-4.835-0.798c-0.728-0.063-1.453-0.012-2.179-0.042c-0.132-0.006-0.276,0.012-0.392-0.038
	c-0.701-0.307-1.439-0.295-2.183-0.288c-0.434,0.004-0.862-0.051-1.312-0.206c0.155-0.175,0.36-0.189,0.529-0.253
	c0.861-0.326,1.653-0.819,2.58-0.994c0.959-0.181,1.91-0.268,2.865-0.057c0.594,0.132,1.122,0.09,1.657-0.245
	c1.076-0.673,2.26-1.084,3.512-1.282c1.125-0.178,2.089-0.628,2.961-1.38c1.427-1.232,3.134-1.927,4.964-2.336
	c1.272-0.286,2.543-0.581,3.815-0.874c0.179-0.043,0.357-0.097,0.53-0.162c0.363-0.137,0.636-0.316,0.778-0.751
	c0.301-0.915,0.768-1.739,1.705-2.186c0.22-0.105,0.398-0.297,0.597-0.449c0.104-0.017,0.191-0.061,0.238-0.161l0.002,0.001
	c0.083-0.032,0.171-0.059,0.25-0.099c0.188-0.093,0.384-0.229,0.588-0.095c0.225,0.145,0.097,0.378,0.089,0.577
	c-0.019,0.03-0.038,0.061-0.057,0.091c-0.009,0.027-0.019,0.056-0.028,0.083c-0.229,1.026,0.268,2.601,1.779,3.008
	c-0.192,0.211-0.384,0.421-0.574,0.633c-0.407,0.453-1.002,0.585-1.506,0.871c-0.026,0.008-0.051,0.016-0.077,0.022
	c-0.024,0.021-0.049,0.04-0.075,0.06l0,0C139.459,81.828,139.313,81.812,139.231,81.958z M143.018,76.241
	c0.071,0.001,0.141,0.001,0.212,0.001c0.181,0.109,0.455,0.019,0.57,0.268c-0.055,0.22-0.16,0.444,0.129,0.602
	c0.044,0.023,0.02,0.17,0.024,0.259c-0.212-0.026-0.321-0.216-0.492-0.309c-0.389-0.21-0.809-0.104-1.136,0.308
	c-0.281,0.354-0.263,0.741,0.04,1.063c0.148,0.159,0.329,0.166,0.506,0.098c0.193-0.076,0.092-0.23,0.073-0.37
	c-0.04-0.265,0.199-0.406,0.462-0.288c-0.006,0.168-0.199,0.188-0.269,0.334c0.417,0.054,0.228,0.373,0.271,0.594
	c0,0-0.008,0.007-0.008,0.006c-0.022,0.024-0.047,0.049-0.069,0.074c-0.047,0.026-0.092,0.055-0.139,0.081
	c-0.235-0.001-0.472,0.004-0.707-0.005c-0.288-0.01-0.545-0.124-0.714-0.347c-0.623-0.815-0.127-2.021,0.787-2.267
	C142.709,76.303,142.865,76.275,143.018,76.241z M140.043,77.219c0.363-0.044,0.607-0.363,0.969-0.416
	c-0.331,0.686-0.173,1.917,0.575,2.468c0.252,0.186,0.594,0.154,0.786,0.419c-0.03,0.069-0.059,0.139-0.089,0.208
	c-0.051,0.033-0.102,0.065-0.152,0.098c-0.104,0.076-0.207,0.154-0.31,0.231C140.311,79.819,139.814,78.245,140.043,77.219z
	 M142.373,79.689c-0.192-0.265-0.534-0.233-0.786-0.419c-0.748-0.551-0.906-1.782-0.575-2.468c0.228-0.273,0.607-0.302,0.86-0.532
	c0.198-0.073,0.392-0.16,0.595-0.214c0.214-0.059,0.453-0.129,0.551,0.185c-0.152,0.034-0.309,0.062-0.459,0.102
	c-0.914,0.246-1.41,1.451-0.787,2.267c0.169,0.223,0.426,0.337,0.714,0.347c0.235,0.009,0.472,0.004,0.707,0.005
	c-0.008,0.03-0.017,0.058-0.026,0.088c-0.213,0.154-0.41,0.323-0.563,0.541C142.526,79.622,142.449,79.656,142.373,79.689z
	 M108.728,76.262c0.362,0.216,0.726,0.43,1.088,0.646l0.002-0.004c0.028,0.027,0.059,0.054,0.087,0.081l-0.004-0.005
	c0.028,0.026,0.057,0.054,0.086,0.08l-0.003-0.003c0.028,0.024,0.058,0.049,0.086,0.073c0.028,0.026,0.055,0.054,0.081,0.081
	c0.026,0.026,0.051,0.054,0.077,0.081l-0.002-0.001c0.026,0.028,0.053,0.057,0.079,0.086c0.043,0.055,0.086,0.109,0.132,0.164
	c0.029,0.104,0.084,0.191,0.175,0.254c-0.004,0.021,0.005,0.039,0.022,0.051c0.019,0.038,0.037,0.075,0.056,0.113
	c0.02,0.047,0.04,0.093,0.061,0.14c0.026,0.076,0.055,0.152,0.081,0.229c0.013,0.052,0.026,0.103,0.039,0.154
	c0.01,0.194-0.039,0.395,0.059,0.581c0.004,0.673,0.008,1.346,0.008,2.02c0,0.144,0.005,0.247,0.199,0.258
	c0.216,0.011,0.269,0.194,0.276,0.373c0.019,0.534-0.142,1.042-0.258,1.554c-0.036,0.155-0.179,0.271-0.317,0.341
	c-0.367,0.181-0.459,0.503-0.53,0.867c-0.166,0.845-0.596,1.513-1.392,1.904c-0.013-0.015-0.024-0.03-0.037-0.045
	c0.171-0.286,0.472-0.444,0.675-0.696c0.145-0.18,0.449-0.316,0.228-0.642c-0.049-0.07-0.002-0.164,0.112-0.131
	c0.168,0.049,0.175-0.057,0.177-0.17c0.006-0.37,0.266-0.655,0.339-1.004c0.021-0.107,0.104-0.257,0.191-0.286
	c0.543-0.185,0.447-0.695,0.53-1.082c0.032-0.151,0.12-0.498-0.061-0.556c-0.354-0.111-0.306-0.319-0.289-0.578
	c0.019-0.302,0.057-0.618-0.01-0.907c-0.098-0.441,0.071-0.897-0.088-1.314c-0.093-0.24-0.396-0.417-0.069-0.702
	c0.056-0.051-0.03-0.166-0.087-0.243c-0.433-0.592-0.919-1.112-1.613-1.41c-0.102-0.045-0.395-0.098-0.195-0.356L108.728,76.262z
	 M145.623,88.56c-1.061,0.154-2.113,0.449-3.194,0.16c-0.114-0.031-0.232-0.051-0.342-0.094c-0.335-0.128-0.366-0.303-0.1-0.542
	c0.321-0.289,0.718-0.486,1.008-0.819c0.024,0.141,0.002,0.298-0.126,0.347c-0.331,0.126-0.307,0.638-0.731,0.651
	c-0.053,0.002-0.067,0.069-0.045,0.127c0.037,0.089,0.088,0.155,0.197,0.167c0.872,0.103,1.744,0.124,2.613-0.036
	C145.146,88.476,145.39,88.416,145.623,88.56z M141.822,80.227c0.103-0.077,0.206-0.155,0.31-0.231
	c-0.045,0.331,0.162,0.346,0.393,0.294c0.175-0.039,0.343-0.11,0.544,0.001c-0.183,0.167-0.372,0.181-0.568,0.174
	c-0.478-0.017-0.895,0.14-1.159,0.539c-0.211,0.32-0.632,0.344-0.839,0.695c-0.069,0.118-0.496,0.028-0.76,0.032
	c0.504-0.286,1.099-0.418,1.506-0.871C141.438,80.647,141.63,80.438,141.822,80.227z M143.953,77.37
	c-0.005-0.089,0.02-0.235-0.024-0.259c-0.289-0.157-0.184-0.382-0.129-0.602c0.053-0.006,0.104-0.01,0.157-0.015l-0.007,0.012
	c0.029,0.021,0.062,0.04,0.092,0.061c0.201,0.183,0.378,0.384,0.506,0.625c-0.243,0.001-0.467,0.022-0.506,0.339
	c-0.021,0.175-0.177,0.204-0.313,0.243l-0.025-0.022C143.731,77.588,143.973,77.563,143.953,77.37z M70.602,77.487
	c0.485-0.405,0.942-0.312,1.237,0.253c0.038,0.07,0.089,0.15,0.014,0.215c-0.077,0.063-0.156-0.006-0.207-0.053
	c-0.096-0.088-0.165-0.206-0.264-0.29c-0.263-0.228-0.364-0.187-0.454,0.171C70.782,77.726,70.63,77.674,70.602,77.487z
	 M143.408,78.8c-0.043-0.221,0.146-0.54-0.271-0.594c0.069-0.146,0.263-0.166,0.269-0.334c0.1-0.04,0.199-0.081,0.297-0.12
	l0.025,0.022c-0.05,0.239-0.115,0.476-0.093,0.726C143.652,78.662,143.589,78.778,143.408,78.8z M143.01,87.208
	c0.028-0.158,0.059-0.316,0.087-0.476c0.372-0.042,0.344,0.227,0.287,0.431C143.324,87.376,143.119,87.026,143.01,87.208z
	 M142.373,79.689c0.076-0.033,0.153-0.067,0.23-0.1c0.055,0.001,0.109,0.003,0.162,0.003c-0.092,0.209-0.146,0.478-0.481,0.305
	C142.314,79.828,142.343,79.759,142.373,79.689z M142.766,79.593c-0.053,0-0.107-0.002-0.162-0.003
	c0.152-0.218,0.35-0.387,0.563-0.541C143.168,79.329,142.918,79.425,142.766,79.593z M138.289,82.199
	c0.217-0.182,0.481-0.209,0.747-0.23C138.855,82.264,138.539,82.125,138.289,82.199z M137.759,82.444
	c0.144-0.115,0.29-0.224,0.483-0.239C138.203,82.531,137.953,82.43,137.759,82.444z M139.231,81.958
	c0.081-0.146,0.228-0.13,0.358-0.146C139.547,82.049,139.366,81.951,139.231,81.958z M110.929,79.063
	c-0.098-0.187-0.049-0.387-0.059-0.581C111.01,78.663,110.929,78.867,110.929,79.063z M139.199,76.66
	c-0.047,0.101-0.134,0.145-0.238,0.161C138.962,76.65,139.077,76.65,139.199,76.66z M144.908,78.877
	c-0.058-0.01-0.126-0.009-0.12-0.096c0-0.009,0.016-0.023,0.024-0.023C144.901,78.752,144.897,78.819,144.908,78.877L144.908,78.877
	z M144.908,78.876c0.057,0.012,0.125,0.01,0.121,0.096c-0.002,0.01-0.018,0.024-0.026,0.024
	C144.916,79.002,144.918,78.935,144.908,78.876L144.908,78.876z M109.983,77.057c0.028,0.024,0.058,0.049,0.086,0.073
	C110.041,77.105,110.012,77.081,109.983,77.057z M109.9,76.979c0.028,0.026,0.057,0.054,0.086,0.081
	C109.957,77.033,109.929,77.007,109.9,76.979z M109.817,76.903c0.028,0.027,0.059,0.054,0.087,0.081
	C109.876,76.957,109.846,76.931,109.817,76.903z M143.331,78.88c0.022-0.025,0.047-0.05,0.069-0.074
	C143.378,78.83,143.354,78.854,143.331,78.88z M110.634,77.846c0.019,0.038,0.037,0.075,0.056,0.113
	C110.671,77.921,110.652,77.884,110.634,77.846z M139.665,81.753c-0.024,0.021-0.049,0.04-0.075,0.06
	C139.616,81.793,139.641,81.773,139.665,81.753z M110.228,77.292c-0.026-0.027-0.051-0.055-0.077-0.081
	C110.177,77.237,110.201,77.265,110.228,77.292z M110.226,77.291c0.026,0.028,0.053,0.057,0.079,0.086
	C110.278,77.348,110.252,77.319,110.226,77.291z M96.021,127.678c0.194-0.234,0.489-0.344,0.683-0.585
	c0.989-1.231,0.449-2.757-0.896-3.171c-0.489-0.15-1.392,0.12-1.642,0.534c-0.35,0.575-0.439,1.08-0.049,1.706
	c0.311,0.494,1.299,0.566,1.671,0.122c0.164-0.195,0.225-0.426,0.102-0.662c-0.069-0.135-0.157-0.303-0.36-0.218
	c-0.162,0.068-0.256,0.199-0.201,0.382c0.043,0.145,0.108,0.296-0.085,0.365c-0.163,0.058-0.331,0.051-0.479-0.084
	c-0.271-0.243-0.334-0.719-0.131-1.057c0.21-0.351,0.797-0.535,1.195-0.357c0.362,0.163,0.639,0.391,0.681,0.842
	c0.057,0.646-0.079,1.189-0.699,1.497c-1.126,0.56-2.371,0.027-2.561-1.438c-0.119-0.921,0.276-1.638,1.069-2.025
	c0.788-0.385,1.624-0.354,2.394,0.192c1.032,0.737,1.274,1.928,0.612,3.153c-0.088,0.164-0.112,0.316-0.106,0.488
	C96.852,127.599,96.51,127.916,96.021,127.678z M92.693,126.729c0.433,0.614,1.006,1.024,1.744,1.188
	c-0.457,0.295-1.175-0.202-1.586-0.687C92.744,127.104,92.563,126.952,92.693,126.729z M94.675,127.925
	c0.105-0.001,0.21-0.001,0.317-0.001C94.885,128.145,94.78,128.145,94.675,127.925z M95.626,127.838
	c0.059-0.089,0.152-0.072,0.237-0.079C95.833,127.932,95.758,127.972,95.626,127.838z M119.271,128.236
	c-0.352-0.192-0.466-0.57-0.531-0.896c-0.113-0.571-0.311-1.002-0.904-1.192c-0.205-0.066-0.199-0.277-0.083-0.429
	c0.551-0.718,0.346-1.46,0.156-2.239c-0.148-0.608-0.241-1.234-0.397-1.843c-0.272-1.063-0.62-2.103-1.069-3.105
	c-0.065-0.147-0.122-0.291-0.1-0.455c0.276,0.362,0.408,0.795,0.567,1.208c0.723,1.865,1.109,3.816,1.469,5.775
	C118.576,126.145,118.723,127.249,119.271,128.236z M114.54,116.097c0.214,0.076,0.188,0.3,0.191,0.435
	c0.026,0.749,0.194,1.484,0.183,2.236c-0.013,0.803-0.015,1.605,0,2.408c0.017,0.975-0.03,1.951-0.185,2.906
	c-0.106,0.661-0.226,1.313-0.22,1.983c0,0.062-0.017,0.143-0.057,0.183c-0.37,0.359-0.344,0.813-0.37,1.281
	c-0.015,0.25-0.179,0.527-0.411,0.707c0.195-0.819,0.396-1.639,0.588-2.459c0.299-1.276,0.44-2.57,0.524-3.876
	c0.122-1.894-0.033-3.771-0.252-5.647C114.525,116.202,114.538,116.149,114.54,116.097z M125.933,145.145
	c-0.319-0.073-0.303-0.382-0.374-0.595c-0.192-0.566-0.433-1.12-0.695-1.643c-0.335-0.664-0.518-1.37-0.802-2.04
	c-0.464-1.103-0.624-2.313-1.197-3.369c-0.278-0.509-0.624-0.983-0.953-1.464c-0.094-0.137-0.158-0.27-0.159-0.431
	c0.582,0.567,0.953,1.276,1.306,1.994c0.442,0.9,0.676,1.879,1.01,2.82c0.538,1.513,1.188,2.977,1.786,4.465
	C125.888,144.967,125.906,145.057,125.933,145.145z M121.753,135.602c-0.372-0.136-0.464-0.51-0.604-0.8
	c-0.378-0.776-0.758-1.561-0.786-2.459c-0.019-0.603-0.102-1.202-0.13-1.805c-0.019-0.423-0.214-0.76-0.389-1.128
	c-0.185-0.393-0.583-0.684-0.568-1.169c0.75,0.801,1.124,1.753,1.179,2.849c0.045,0.879,0.034,1.767,0.346,2.613
	c0.192,0.521,0.44,1.014,0.749,1.477C121.637,135.312,121.729,135.438,121.753,135.602z M115.481,116.563
	c-0.37-0.104-0.46-0.439-0.558-0.736c-0.057-0.168-0.132-0.291-0.241-0.427c-0.173,0.168-0.009,0.389-0.15,0.53
	c-0.051-0.364-0.013-0.728,0.069-1.119C114.896,115.394,115.188,115.979,115.481,116.563z M116.343,118.077
	c-0.309-0.494-0.852-0.855-0.861-1.52C115.877,117.003,116.166,117.508,116.343,118.077z M126.252,145.856
	c-0.116-0.008-0.183,0.094-0.278,0.131c-0.081,0.031-0.207-0.04-0.146-0.082c0.309-0.226,0.063-0.506,0.109-0.752
	C126.079,145.371,126.215,145.593,126.252,145.856z M114.754,130.061c-0.332-0.004-0.691-0.443-0.622-0.775
	c0.021-0.1,0.051-0.229,0.179-0.229c0.162-0.003,0.115,0.141,0.122,0.237c0.01,0.104-0.013,0.222,0.026,0.312
	c0.066,0.151,0.185,0.288,0.369,0.167c0.135-0.088,0.304-0.193,0.169-0.412c-0.134-0.216-0.313-0.386-0.5-0.553
	c-0.096-0.086-0.168-0.201-0.245-0.307c-0.029-0.042-0.051-0.098,0-0.142c0.061-0.053,0.144-0.039,0.176,0.015
	c0.204,0.348,0.59,0.526,0.803,0.864c0.116,0.184,0.116,0.389,0.025,0.566C115.162,129.991,114.967,130.063,114.754,130.061z
	 M116.138,127.651c-0.065,0.157-0.069,0.3,0.104,0.42c0.173,0.118,0.317,0.093,0.449-0.064c0.042-0.05,0.093-0.095,0.144-0.138
	c0.078-0.069,0.167-0.164,0.265-0.047c0.073,0.088-0.013,0.165-0.071,0.238c-0.374,0.47-0.931,0.433-1.171-0.07
	c-0.101-0.207-0.068-0.383,0.063-0.55c0.114-0.146,0.256-0.317,0.459-0.191c0.218,0.137,0.184,0.45,0.088,0.568
	C116.223,128.117,116.33,127.611,116.138,127.651z M118.151,126.927c-0.216,0.064-0.305-0.063-0.421-0.172
	c-0.14-0.131-0.301-0.288-0.514-0.206c-0.146,0.056-0.222,0.219-0.137,0.363c0.094,0.159,0.199,0.376,0.458,0.236
	c0.101-0.055,0.215-0.173,0.282-0.001c0.055,0.14-0.094,0.202-0.201,0.246c-0.297,0.122-0.533-0.034-0.691-0.237
	c-0.181-0.23-0.188-0.519,0.019-0.766c0.191-0.229,0.435-0.171,0.642-0.058C117.822,126.464,118.021,126.653,118.151,126.927z
	 M115.341,128.036c0.094-0.007,0.138,0.055,0.107,0.119c-0.156,0.315,0.043,0.492,0.252,0.661c0.106,0.087,0.246,0.19,0.118,0.311
	c-0.116,0.109-0.189-0.077-0.274-0.141c-0.222-0.17-0.437-0.346-0.393-0.674C115.168,128.183,115.235,128.097,115.341,128.036z
	 M143.957,76.495c-0.053,0.005-0.104,0.009-0.157,0.015c-0.115-0.249-0.39-0.158-0.57-0.268c0.115-0.236,0.331-0.254,0.542-0.207
	C144.027,76.092,143.942,76.321,143.957,76.495z M143.95,76.507c0.029,0.021,0.062,0.04,0.092,0.061
	C144.012,76.547,143.979,76.527,143.95,76.507z M108.718,76.256c-0.199,0.259,0.094,0.312,0.195,0.356
	c0.694,0.298,1.181,0.818,1.613,1.41c0.057,0.077,0.143,0.192,0.087,0.243c-0.327,0.285-0.023,0.462,0.069,0.702
	c0.159,0.417-0.01,0.873,0.088,1.314c0.066,0.289,0.028,0.605,0.01,0.907c-0.017,0.259-0.064,0.467,0.289,0.578
	c0.181,0.058,0.093,0.404,0.061,0.556c-0.083,0.387,0.013,0.897-0.53,1.082c-0.088,0.029-0.171,0.179-0.191,0.286
	c-0.073,0.349-0.333,0.634-0.339,1.004c-0.002,0.113-0.009,0.219-0.177,0.17c-0.114-0.033-0.161,0.061-0.112,0.131
	c0.222,0.325-0.083,0.462-0.228,0.642c-0.203,0.252-0.504,0.41-0.675,0.696c-0.343,0.221-0.871,0.009-1.105,0.516
	c-0.077,0.167-1.089,0.024-1.228-0.149c-0.156-0.193-0.394-0.195-0.595-0.271c-1.128-0.419-1.533-1.38-1.819-2.423
	c-0.089-0.323-0.128-0.61-0.532-0.733c-0.321-0.098-0.165-0.489-0.261-0.736c-0.049-0.127-0.034-0.281-0.093-0.418
	c-0.116-0.273-0.024-0.419,0.28-0.355c0.145,0.03,0.299-0.01,0.25-0.131c-0.146-0.357,0.134-0.518,0.272-0.748
	c0.034-0.055,0.049-0.119,0.073-0.18c0.183-0.028,0.288-0.135,0.318-0.315c0.23-0.047,0.344-0.236,0.476-0.399
	c0.026-0.025,0.053-0.052,0.079-0.078c0.025-0.053,0.054-0.105,0.08-0.157c0.053-0.027,0.105-0.055,0.158-0.082
	c0.026-0.026,0.053-0.053,0.081-0.079c0.004-0.013,0.009-0.024,0.013-0.037c-0.006,0.011-0.013,0.021-0.021,0.03
	c-0.026,0.026-0.053,0.053-0.079,0.08c-0.055,0.027-0.107,0.054-0.159,0.08c-0.026,0.053-0.053,0.105-0.079,0.158
	c-0.026,0.026-0.053,0.053-0.079,0.078c-0.264,0.009-0.41,0.154-0.478,0.397c-0.183,0.03-0.289,0.135-0.315,0.318
	c-0.149-0.029-0.237,0.227-0.39,0.1c-0.152-0.126-0.096-0.323-0.067-0.485c0.096-0.55,0.056-1.095,0.017-1.649
	c-0.03-0.41,0.016-0.853,0.463-1.097c0.051-0.027,0.094-0.098,0.108-0.155c0.113-0.403,0.442-0.617,0.786-0.711
	c0.461-0.126,0.449-0.347,0.274-0.681 M105.543,79.348c-0.004,0.014-0.01,0.026-0.014,0.04c0.006-0.012,0.014-0.021,0.021-0.032
	c0.006-0.012,0.01-0.024,0.016-0.037C105.558,79.328,105.55,79.339,105.543,79.348z M103.982,78.788
	c0.063-0.156,0.092-0.265-0.047-0.363C103.873,78.556,103.843,78.658,103.982,78.788z M140.071,77.136
	c0.019-0.03,0.038-0.061,0.057-0.091C140.109,77.075,140.09,77.105,140.071,77.136z M143.703,77.752
	c-0.098,0.039-0.197,0.08-0.297,0.12c-0.263-0.118-0.502,0.023-0.462,0.288c0.019,0.14,0.12,0.294-0.073,0.37
	c-0.177,0.068-0.357,0.062-0.506-0.098c-0.303-0.322-0.321-0.71-0.04-1.063c0.327-0.412,0.747-0.518,1.136-0.308
	c0.171,0.093,0.28,0.282,0.492,0.309C143.973,77.563,143.731,77.588,143.703,77.752z M104.915,79.99
	c-0.132,0.163-0.245,0.353-0.476,0.399l-0.008-0.009c0.067-0.243,0.214-0.389,0.478-0.397
	C104.909,79.984,104.915,79.99,104.915,79.99z M103.982,78.788c-0.14-0.13-0.109-0.232-0.047-0.363
	C104.074,78.523,104.046,78.632,103.982,78.788z M104.439,80.39c-0.03,0.181-0.136,0.287-0.318,0.315l-0.005-0.006
	c0.026-0.184,0.133-0.288,0.315-0.318L104.439,80.39z M105.067,79.747c0.052-0.026,0.104-0.053,0.159-0.08l0.006,0.006
	c-0.053,0.027-0.105,0.055-0.158,0.081L105.067,79.747z M104.988,79.905c0.026-0.053,0.053-0.105,0.079-0.158l0.007,0.007
	c-0.026,0.053-0.055,0.105-0.08,0.158L104.988,79.905z M105.227,79.667c0.026-0.027,0.053-0.054,0.079-0.08l0.008,0.007
	c-0.028,0.026-0.055,0.053-0.081,0.079L105.227,79.667z M105.306,79.587c0.008-0.01,0.015-0.02,0.021-0.03
	c-0.004,0.013-0.009,0.024-0.013,0.037L105.306,79.587z M105.55,79.355c-0.007,0.012-0.015,0.021-0.021,0.032
	c0.004-0.014,0.01-0.026,0.014-0.04L105.55,79.355z M105.543,79.348c0.007-0.009,0.015-0.02,0.022-0.029
	c-0.006,0.013-0.01,0.025-0.016,0.037L105.543,79.348z M104.994,79.912c-0.026,0.026-0.053,0.053-0.079,0.078
	c0,0-0.006-0.006-0.006-0.007c0.026-0.025,0.053-0.052,0.079-0.078L104.994,79.912z"/>
<text transform="matrix(1 0 0 1 4.3086 235.6113)" font-family="'Semakin-Regular'" font-size="20.2131">KAOTIC CREATIONS</text>
</svg>
