<?xml version="1.0" encoding="utf-8"?>
<!-- Generator: Adobe Illustrator 16.0.0, SVG Export Plug-In . SVG Version: 6.00 Build 0)  -->
<!DOCTYPE svg PUBLIC "-//W3C//DTD SVG 1.1//EN" "http://www.w3.org/Graphics/SVG/1.1/DTD/svg11.dtd">
<svg version="1.1" id="Layer_1" xmlns="http://www.w3.org/2000/svg" xmlns:xlink="http://www.w3.org/1999/xlink" x="0px" y="0px"
	 width="216px" height="216px" viewBox="0 0 216 216" enable-background="new 0 0 216 216" xml:space="preserve">
<g>
	
		<polygon fill-rule="evenodd" clip-rule="evenodd" fill="none" stroke="#050606" stroke-width="0.5248" stroke-miterlimit="10" points="
		125.982,61.371 94.234,61.353 110.141,3.587 	"/>
	<polyline fill-rule="evenodd" clip-rule="evenodd" points="110.141,3.342 94.298,61.125 110.057,61.116 	"/>
</g>
<g>
	
		<polygon fill-rule="evenodd" clip-rule="evenodd" fill="none" stroke="#050606" stroke-width="0.5248" stroke-miterlimit="10" points="
		154.178,86.779 131.535,64.524 183.355,34.446 	"/>
	<polyline fill-rule="evenodd" clip-rule="evenodd" points="183.527,34.271 131.74,64.406 142.992,75.439 	"/>
</g>
<g>
	
		<polygon fill-rule="evenodd" clip-rule="evenodd" fill="none" stroke="#050606" stroke-width="0.5248" stroke-miterlimit="10" points="
		155.672,123.256 155.643,91.506 213.432,107.328 	"/>
	<polyline fill-rule="evenodd" clip-rule="evenodd" points="213.678,107.328 155.871,91.57 155.902,107.328 	"/>
</g>
<g>
	
		<polygon fill-rule="evenodd" clip-rule="evenodd" fill="none" stroke="#050606" stroke-width="0.5248" stroke-miterlimit="10" points="
		131.371,150.104 153.967,127.803 183.25,180.076 	"/>
	<polyline fill-rule="evenodd" clip-rule="evenodd" points="183.424,180.25 154.082,128.01 142.879,139.092 	"/>
</g>
<g>
	
		<polygon fill-rule="evenodd" clip-rule="evenodd" fill="none" stroke="#050606" stroke-width="0.5248" stroke-miterlimit="10" points="
		94.653,152.553 126.402,152.57 110.494,210.336 	"/>
	<polyline fill-rule="evenodd" clip-rule="evenodd" points="110.494,210.582 126.338,152.797 110.58,152.807 	"/>
</g>
<g>
	
		<polygon fill-rule="evenodd" clip-rule="evenodd" fill="none" stroke="#050606" stroke-width="0.5248" stroke-miterlimit="10" points="
		67.189,128.152 89.617,150.625 37.508,180.201 	"/>
	<polyline fill-rule="evenodd" clip-rule="evenodd" points="37.334,180.373 89.41,150.74 78.266,139.6 	"/>
</g>
<g>
	
		<polygon fill-rule="evenodd" clip-rule="evenodd" fill="none" stroke="#050606" stroke-width="0.5248" stroke-miterlimit="10" points="
		64.894,91.375 64.923,123.123 7.134,107.303 	"/>
	<polyline fill-rule="evenodd" clip-rule="evenodd" points="6.889,107.303 64.695,123.061 64.663,107.303 	"/>
</g>
<g>
	
		<polygon fill-rule="evenodd" clip-rule="evenodd" fill="none" stroke="#050606" stroke-width="0.5248" stroke-miterlimit="10" points="
		89.38,63.953 66.888,86.359 37.361,34.225 	"/>
	<polyline fill-rule="evenodd" clip-rule="evenodd" points="37.187,34.051 66.771,86.154 77.923,75.02 	"/>
</g>
<circle stroke="#EFEFEF" stroke-width="1.137" stroke-miterlimit="10" cx="111.119" cy="106.951" r="53.916"/>
<circle fill="#FFFFFF" cx="111.022" cy="107.135" r="49.3"/>
<path fill="#020202" d="M148.695,78.314c0.01,0.056,0.008,0.124,0.096,0.119c0.008-0.001,0.023-0.016,0.023-0.024
	C148.82,78.321,148.752,78.323,148.695,78.314c-0.012-0.059-0.008-0.126-0.096-0.121c-0.01,0-0.023,0.015-0.023,0.025
	C148.57,78.306,148.637,78.303,148.695,78.314z M102.943,143.455c-0.445-1.654-0.74-3.342-0.574-5.047
	c0.197-2.031,0.132-4.088,0.583-6.094c0.02-0.09,0.036-0.184,0.03-0.275c-0.094-1.457,0.005-2.926-0.279-4.377
	c-0.126-0.641-0.121-1.311-0.176-1.967c0.095,0.061,0.129,0.006,0.176-0.074c0.82-1.371,1.859-2.584,2.825-3.848
	c1.149-1.508,2.287-3.023,3.334-4.604c0.398-0.6,0.926-0.957,1.627-1.07c0.357-0.059,0.637,0.045,0.852,0.359
	c0.293,0.43,0.455,0.914,0.615,1.4c0.209,0.623,0.357,1.266,0.666,1.857c0.555,1.061,1.086,2.135,1.625,3.203
	c0.355,0.705,0.641,1.453,1.076,2.104c0.525,0.783,1.113,1.527,1.619,2.328c-0.115,0.475-0.225,0.949-0.344,1.42
	c-0.27,1.076-0.555,2.15-0.352,3.277c0.084,0.48,0.16,0.957,0.107,1.453c-0.078,0.725-0.357,1.383-0.676,2.016
	c-0.531,1.059-0.678,2.145-0.486,3.305c0.141,0.844,0.299,1.686,0.271,2.551c-0.055,1.705-0.402,3.381-0.455,5.084
	c-0.041,1.305-0.223,2.605-0.182,3.914c0.027,0.805,0.283,1.488,1.063,1.896c0.371,0.193,0.689,0.482,1.035,0.721
	c0.82,0.568,1.666,1.039,2.717,1.061c0.748,0.018,1.496,0.15,2.158,0.563c-0.109,0.188,0.035,0.412-0.086,0.6
	c-0.172,0.303-0.467,0.406-0.777,0.475c-0.143,0.029-0.289,0.025-0.393,0.148c-0.137,0.008-0.275,0.014-0.412,0.021
	c-0.424,0-0.85,0-1.275-0.002c-0.488,0.039-0.936-0.189-1.418-0.207c-0.352-0.012-0.701-0.08-1.053-0.123
	c-0.229-0.105-0.471-0.117-0.717-0.139c-0.893-0.078-1.734,0.18-2.588,0.365c-0.033,0.031-0.066,0.061-0.098,0.092
	c-0.584-0.016-1.168,0.152-1.75-0.002c-0.037-0.1-0.111-0.148-0.213-0.158c-0.375-0.434-0.324-0.943-0.207-1.432
	c0.232-0.967,0.441-1.93,0.33-2.934c-0.203-1.822-0.516-3.625-0.99-5.398c-0.398-1.492-0.77-2.992-0.801-4.549
	c-0.03-1.666,0.385-3.264,0.756-4.871c0.281-1.223,0.486-2.463,0.25-3.725c-0.154-0.816-0.115-1.625,0.07-2.434
	c0.105-0.463,0.16-0.939,0.146-1.414c-0.053-2.012-0.553-3.977-0.641-5.988c-0.154,0.533-0.277,1.072-0.418,1.604
	c-0.47,1.779-0.838,3.564-0.739,5.428c0.073,1.369-0.193,2.711-0.575,4.02c-0.529,1.813-0.592,3.656-0.265,5.486
	c0.269,1.508,0.205,2.988,0.082,4.49c-0.08,0.986-0.097,1.979-0.102,2.971c-0.011,1.719,0.632,3.352,0.599,5.086
	c-0.014,0.74,0.211,1.529,0.375,2.283c0.112,0.514,0.132,0.98-0.033,1.465c-0.372,0.361-0.823,0.268-1.265,0.225
	c-0.271-0.303-0.447-0.059-0.637,0.107c-0.028-0.006-0.055-0.012-0.083-0.018c-0.064-0.08-0.149-0.072-0.237-0.061
	c-0.053,0-0.106,0-0.16,0c-0.316,0-0.634-0.004-0.951-0.006c-0.48-0.027-0.974,0.037-1.429-0.186
	c-0.124-0.16-0.201-0.338-0.242-0.537c0.123-0.561,0.334-1.078,0.688-1.539c0.145-0.189,0.218-0.422,0.269-0.656
	c0.089-0.412,0.164-0.822,0.335-1.215c0.159-0.367,0.014-0.754-0.035-1.131c-0.24-1.848-0.883-3.576-1.539-5.305
	c-0.097-0.258-0.169-0.523-0.252-0.787c0.229-0.021,0.485,0.061,0.662-0.168c0.064-0.084,0.167-0.168,0.061-0.271
	c-0.086-0.082-0.175-0.008-0.24,0.061c-0.124,0.125-0.295,0.203-0.423,0.1c-0.127-0.104-0.182-0.295-0.106-0.482
	c0.169,0.029,0.056,0.316,0.254,0.252c0.164-0.055,0.075-0.229,0.089-0.35c0.023-0.186-0.066-0.273-0.252-0.254
	C103.212,143.563,103.075,143.523,102.943,143.455z M84.957,145.963c0.021-0.016,0.042-0.031,0.063-0.047
	c0.026,0.004,0.054,0.004,0.077,0.016c0.37,0.168,0.366,0.168,0.464-0.174c0.015-0.053,0.101-0.08,0.137-0.131
	c0.089-0.123,0.292-0.146,0.299-0.342l-0.001,0.002c0.26-0.055,0.649,0.08,0.616-0.412l0.005-0.002
	c0.128,0.025,0.179-0.029,0.159-0.156c0.366-0.014,0.633-0.26,0.675-0.553c0.064-0.459,0.374-0.859,0.284-1.344l-0.002,0.006
	c0.115-0.049,0.09-0.148,0.086-0.24h-0.005c0.19,0.006,0.369,0,0.272-0.275c-0.029-0.082-0.01-0.162,0.035-0.227
	c0.297-0.424,0.237-0.953,0.415-1.414c0.054-0.143,0.178-0.256,0.164-0.434c-0.067-0.896,0.239-1.742,0.435-2.588
	c0.083-0.359,0.102-0.691,0.11-1.043c-0.014-0.014-0.014-0.027,0.001-0.043c0.21-0.02,0.194-0.211,0.271-0.34
	c0.075-0.125-0.041-0.25,0.051-0.373c0.338-0.455,0.276-1.057,0.547-1.541c0.013-0.021-0.043-0.084-0.068-0.127
	c0-0.064,0.014-0.123,0.072-0.162c0.026-0.029,0.052-0.057,0.079-0.086h-0.004c0.021-0.012,0.049-0.021,0.066-0.039
	c0.38-0.391,0.4-1.055,0.993-1.291c0.098-0.039,0.044-0.197,0.078-0.293c0.044-0.129,0.024-0.336,0.211-0.338
	c0.267-0.006,0.304-0.199,0.321-0.369c0.043-0.426,0.571-0.506,0.623-0.914c0.002-0.008,0.021-0.018,0.033-0.021
	c0.379-0.096,0.382-0.094,0.469-0.479c0.022-0.1,0.113-0.148,0.147-0.221c0.12-0.25,0.477-0.234,0.556-0.488
	c0.107-0.342,0.207-0.676,0.446-0.959c0.261-0.311,0.382-0.688,0.434-1.088h-0.001c0.136,0.004,0.238-0.072,0.283-0.184
	c0.184-0.459,0.489-0.826,0.856-1.148c0.107-0.094,0.161-0.207,0.11-0.352l0.003-0.004c0.165,0.008,0.329,0.018,0.494,0.023
	c0.112,0.109,0.128,0.256,0.164,0.396c-0.128,0.223,0.052,0.375,0.159,0.502c0.411,0.482,1.13,0.982,1.586,0.686
	c0.079,0.002,0.158,0.006,0.237,0.008c0.105,0.221,0.211,0.221,0.317,0c0.211-0.029,0.422-0.059,0.634-0.088
	c0.132,0.135,0.208,0.094,0.238-0.078c0.034-0.064,0.093-0.078,0.158-0.082c0.489,0.24,0.831-0.078,1.196-0.314
	c0.152,0.006,0.218-0.125,0.322-0.197c0.354-0.242,0.409-0.676,0.644-0.992c0.013,0.133,0.026,0.266,0.04,0.398
	c-0.081,0.107-0.082,0.213,0.005,0.316c0.084,0.332-0.048,0.576-0.28,0.813c-1.485,1.506-2.645,3.277-3.991,4.898
	c-0.466,0.561-0.699,1.297-0.964,1.986c-0.36,0.936-0.691,1.881-1.051,2.816c-0.336,0.873-0.905,1.604-1.496,2.316
	c-1.167,1.412-2.355,2.807-3.289,4.395c-0.383,0.654-0.674,1.34-0.897,2.063c-0.035,0.111-0.044,0.248-0.114,0.334
	c-0.681,0.852-0.921,1.955-1.617,2.803c-0.271,0.33-0.44,0.748-0.815,0.998c-0.686-0.102-1.138-0.645-1.723-0.943
	c-0.722-0.371-1.491-0.721-2.045-1.365c-0.041-0.049-0.078-0.102-0.116-0.154c0,0.002-0.008-0.014-0.008-0.014
	c0.469-0.127,0.621-0.66,1.065-0.846C84.764,146.387,84.978,146.188,84.957,145.963z M70.936,89.733
	c0.834-0.296,1.703-0.313,2.574-0.307c0.16,0.002,0.317,0.011,0.477,0.004c0.127-0.005,0.305,0.016,0.316-0.156
	c0.013-0.178-0.159-0.223-0.306-0.241c-0.47-0.056-0.941-0.103-1.412-0.157c-0.261-0.03-0.529-0.042-0.78-0.11
	c-0.203-0.055-0.489-0.099-0.471-0.395c0.019-0.311,0.306-0.344,0.535-0.363c0.354-0.029,0.71-0.007,1.067,0.027
	c0.786,0.078,1.563,0.273,2.361,0.211c0.344-0.027,0.687-0.057,1.008-0.186c0.305-0.125,0.333-0.316,0.084-0.525
	c-0.191-0.161-0.398-0.303-0.6-0.453c-0.397-0.296-0.551-0.687-0.446-1.053c0.083-0.283,0.243-0.321,0.475-0.195
	c0.114,0.063,0.228,0.134,0.326,0.221c0.397,0.352,0.821,0.655,1.316,0.862c0.252,0.105,0.41,0.322,0.529,0.567
	c0.565,1.156,1.541,1.666,2.781,1.69c1.864,0.036,3.714-0.165,5.564-0.36c1.267-0.136,2.539-0.063,3.779,0.236
	c1.636,0.394,3.266,0.367,4.909,0.082c0.114-0.02,0.234-0.01,0.352-0.014c0.504,0.26,1.044,0.435,1.56,0.664
	c0.484,0.215,1.02,0.265,1.486,0.533c0.376,0.215,0.816,0.299,1.187,0.534c0.687,0.435,1.061,1.126,1.451,1.794
	c0.269,0.461,0.558,0.92,0.657,1.459c-0.667-0.763-1.517-0.777-2.397-0.539c-1.22,0.33-2.433,0.179-3.652,0.022
	c-1.562-0.199-3.126-0.244-4.703-0.143c-1.502,0.098-3.009,0.065-4.51-0.099c-1.827-0.199-3.546-0.805-5.282-1.346
	c-0.632-0.197-1.281-0.311-1.933-0.42c-0.441-0.075-0.826,0.139-1.234,0.229c-0.766,0.168-1.549,0.135-2.323,0.202
	c-0.713,0.062-1.281,0.466-1.926,0.683c-0.188,0.063-0.372,0.135-0.564,0.186c-0.175,0.045-0.358,0.038-0.436-0.161
	c-0.075-0.192,0.035-0.349,0.191-0.433c0.292-0.153,0.6-0.275,0.899-0.414c0.276-0.127,0.551-0.256,0.822-0.39
	c0.104-0.051,0.162-0.144,0.121-0.263c-0.048-0.136-0.152-0.105-0.263-0.078c-0.741,0.182-1.481,0.364-2.226,0.533
	c-0.272,0.062-0.635,0.204-0.754-0.167c-0.12-0.378,0.282-0.424,0.519-0.497c0.616-0.191,1.247-0.338,1.871-0.51
	c0.122-0.033,0.264-0.045,0.387-0.241c-1.166-0.142-2.277,0.181-3.395,0.123C70.827,90.166,70.828,89.948,70.936,89.733z
	 M74.389,76.924c-0.15-0.11-0.212-0.294-0.072-0.392c0.392-0.272,0.095-0.428-0.067-0.615c0.233-0.529,0.26-0.547,0.757-0.303
	c0.14,0.07,0.211,0.029,0.303-0.058c0.141-0.135,0.297-0.144,0.459-0.035c-0.25,0.305-0.323,0.601,0.032,0.886
	c0.098,0.078,0.148,0.177,0.092,0.314c-0.047,0.116-0.128,0.288,0.09,0.298c0.168,0.008,0.18-0.161,0.18-0.298
	c0.001-0.118,0.027-0.25-0.075-0.335c-0.268-0.226-0.245-0.498-0.146-0.787c0.27-0.067,0.345,0.319,0.61,0.262
	c0.578,0.152,1.047,0.535,1.588,0.769c0.061-0.104-0.014-0.164-0.042-0.231c-0.075-0.182-0.042-0.339,0.103-0.466
	c0.135-0.12,0.285-0.103,0.443-0.036c0.444,0.186,0.795,0.519,1.213,0.746c1.006,0.547,1.532,1.45,1.863,2.497
	c0.053,0.169,0.166,0.256,0.314,0.329c0.707,0.35,1.478,0.489,2.235,0.661c1.799,0.408,3.628,0.7,5.313,1.513
	c0.839,0.404,1.63,0.898,2.31,1.518c0.847,0.771,1.85,1.08,2.93,1.256c1.214,0.199,2.334,0.668,3.397,1.264
	c0.461,0.26,0.886,0.387,1.423,0.271c1.938-0.414,3.74,0.055,5.468,0.924c0.223,0.113,0.445,0.227,0.716,0.363
	c-0.335,0.145-0.634,0.193-0.944,0.195c-0.83,0.002-1.664-0.046-2.459,0.286c-0.149,0.062-0.34,0.045-0.51,0.038
	c-2.05-0.094-4.063,0.211-6.036,0.693c-1.09,0.267-1.992,0.048-2.886-0.506c-0.824-0.51-1.688-0.884-2.656-1.077
	c-1.797-0.36-3.414-1.19-4.93-2.194c-1.479-0.977-3.015-1.845-4.587-2.662c-0.604-0.313-1.228-0.523-1.871-0.727
	c-0.881-0.279-1.718-0.642-2.334-1.41c-0.351-0.437-0.818-0.783-1.244-1.159c-0.18-0.16-0.352-0.325-0.476-0.528
	c-0.145-0.24-0.171-0.469,0.218-0.552c-0.146-0.154-0.271-0.285-0.396-0.417c0.091-0.357,0.192-0.398,0.454-0.171
	c0.099,0.084,0.167,0.203,0.263,0.29c0.052,0.047,0.131,0.117,0.208,0.052c0.074-0.063,0.023-0.145-0.013-0.214
	C75.331,76.613,74.873,76.519,74.389,76.924z M75.941,75.598c-0.099,0.29-0.122,0.562,0.146,0.787
	c0.103,0.085,0.076,0.218,0.075,0.335c0,0.137-0.011,0.306-0.18,0.298c-0.218-0.01-0.137-0.182-0.09-0.298
	c0.056-0.137,0.005-0.236-0.092-0.314c-0.354-0.285-0.282-0.581-0.032-0.886C75.826,75.546,75.883,75.573,75.941,75.598z
	 M118.328,115.533c-0.002-0.055-0.006-0.111-0.008-0.168c0.141-0.141-0.023-0.361,0.148-0.529c0.109,0.137,0.186,0.26,0.24,0.428
	c0.1,0.295,0.189,0.631,0.559,0.736l0.002-0.006c0.01,0.664,0.551,1.025,0.861,1.521h-0.002c-0.021,0.162,0.033,0.305,0.102,0.453
	c0.449,1.002,0.795,2.043,1.068,3.105c0.156,0.609,0.248,1.234,0.396,1.844c0.191,0.777,0.395,1.521-0.156,2.238
	c-0.115,0.15-0.123,0.363,0.084,0.43c0.594,0.189,0.791,0.621,0.904,1.191c0.064,0.326,0.18,0.703,0.531,0.896l0.004,0.004
	c-0.016,0.486,0.383,0.777,0.568,1.17c0.174,0.367,0.369,0.705,0.389,1.127c0.027,0.602,0.111,1.203,0.129,1.805
	c0.029,0.898,0.408,1.684,0.787,2.459c0.141,0.289,0.232,0.664,0.604,0.799v0.002c0.002,0.162,0.064,0.295,0.158,0.432
	c0.33,0.48,0.676,0.955,0.953,1.465c0.574,1.055,0.732,2.266,1.199,3.369c0.283,0.67,0.465,1.375,0.801,2.039
	c0.264,0.523,0.504,1.076,0.693,1.643c0.072,0.213,0.057,0.521,0.375,0.594c0,0,0.004,0.012,0.004,0.01
	c-0.045,0.246,0.199,0.527-0.109,0.752c-0.059,0.043,0.066,0.113,0.148,0.082c0.094-0.037,0.16-0.139,0.277-0.131
	c0.213,0.346,0.381,0.719,0.643,1.035c0.268,0.328,0.592,0.582,1.021,0.613c1.074,0.082,2.141,0.26,3.223,0.264
	c0.611,0.002,1.207-0.07,1.801-0.188c0.807-0.156,0.879-0.113,1.102,0.676c-0.117,0.35-0.414,0.527-0.689,0.723
	c-0.85,0.594-1.787,1.014-2.752,1.385l-0.033-0.01l-0.025,0.029l0.008-0.004c-0.18,0.027-0.361,0.057-0.543,0.084
	c-1.023,0.15-1.922,0.521-2.518,1.428c-0.615,0.508-1.221,1.035-2.104,0.949c-0.455-0.229-0.707-0.607-0.832-1.09
	c-0.111-0.422-0.176-0.85-0.236-1.281c-0.127-0.91-0.695-1.609-1.158-2.357c-1.041-1.686-2.299-3.215-3.57-4.729
	c-1.752-2.09-2.826-4.484-3.344-7.156c-0.213-1.098-0.492-2.188-1.002-3.201c-0.246-0.486-0.609-0.891-0.898-1.348
	c-0.555-0.879-0.605-1.896-0.805-2.871c-0.037-0.176,0.023-0.395,0.131-0.57c0.234-0.18,0.398-0.457,0.414-0.709
	c0.025-0.467,0-0.92,0.369-1.279c0.041-0.041,0.057-0.121,0.057-0.184c-0.006-0.67,0.111-1.322,0.219-1.982
	c0.156-0.957,0.201-1.932,0.186-2.906c-0.016-0.803-0.014-1.605,0-2.408c0.012-0.752-0.156-1.488-0.182-2.236
	C118.516,115.834,118.541,115.609,118.328,115.533z M118.541,129.496c0.213,0.004,0.408-0.068,0.502-0.256
	c0.09-0.178,0.09-0.383-0.025-0.566c-0.213-0.338-0.598-0.516-0.803-0.865c-0.033-0.053-0.115-0.066-0.176-0.014
	c-0.051,0.045-0.029,0.1,0,0.143c0.078,0.105,0.148,0.219,0.244,0.307c0.188,0.166,0.367,0.336,0.5,0.553
	c0.137,0.219-0.033,0.322-0.168,0.412c-0.186,0.121-0.303-0.016-0.369-0.168c-0.039-0.09-0.018-0.207-0.025-0.313
	c-0.008-0.096,0.039-0.238-0.123-0.236c-0.127,0.002-0.158,0.131-0.18,0.23C117.85,129.055,118.209,129.494,118.541,129.496z
	 M119.926,127.088c0.191-0.039,0.084,0.465,0.328,0.166c0.096-0.117,0.131-0.432-0.09-0.568c-0.201-0.127-0.342,0.045-0.457,0.191
	c-0.131,0.168-0.164,0.344-0.064,0.551c0.24,0.502,0.797,0.539,1.172,0.07c0.059-0.074,0.145-0.15,0.07-0.24
	c-0.098-0.115-0.186-0.021-0.266,0.049c-0.049,0.043-0.1,0.088-0.141,0.137c-0.133,0.156-0.277,0.184-0.449,0.064
	C119.855,127.389,119.859,127.244,119.926,127.088z M121.938,126.363c-0.127-0.273-0.328-0.463-0.563-0.594
	c-0.207-0.113-0.451-0.172-0.643,0.059c-0.205,0.246-0.197,0.535-0.02,0.766c0.158,0.203,0.396,0.357,0.693,0.236
	c0.107-0.043,0.256-0.105,0.201-0.246c-0.068-0.172-0.182-0.053-0.283,0.002c-0.26,0.139-0.363-0.078-0.457-0.238
	c-0.084-0.143-0.008-0.307,0.137-0.361c0.213-0.082,0.375,0.074,0.514,0.205C121.633,126.301,121.723,126.428,121.938,126.363z
	 M119.129,127.475c-0.105,0.059-0.174,0.145-0.191,0.275c-0.043,0.328,0.17,0.502,0.393,0.672c0.084,0.064,0.158,0.252,0.275,0.143
	c0.127-0.121-0.012-0.225-0.119-0.311c-0.209-0.17-0.406-0.346-0.252-0.662C119.266,127.527,119.223,127.465,119.129,127.475z
	 M131.275,151.328c0.596-0.906,1.494-1.277,2.518-1.428c0.182-0.027,0.363-0.057,0.543-0.084
	C133.35,150.387,132.365,150.965,131.275,151.328z M134.328,149.82l0.025-0.029l0.033,0.01
	C134.369,149.809,134.35,149.816,134.328,149.82z M120.627,93.896c-0.215,0.273-0.328,0.601-0.469,0.91
	c-0.604,1.328-1.408,2.584-1.586,4.072c-0.146,1.223-0.428,2.415-0.721,3.608c-0.191,0.781-0.412,1.572-0.367,2.379
	c0.131,2.264-0.055,4.543,0.365,6.795c0.127,0.674,0.119,1.369-0.006,2.051c-0.213,1.166-0.004,2.316,0.104,3.471
	c0.322,3.455,0.07,6.855-1.006,10.17c-0.506-0.801-1.094-1.545-1.619-2.328c-0.436-0.65-0.721-1.398-1.076-2.104
	c-0.539-1.068-1.07-2.143-1.625-3.203c-0.309-0.592-0.457-1.234-0.666-1.857c-0.16-0.486-0.322-0.971-0.615-1.4
	c-0.215-0.314-0.494-0.418-0.852-0.359c-0.701,0.113-1.229,0.471-1.627,1.07c-1.047,1.58-2.185,3.096-3.334,4.604
	c-0.965,1.264-2.005,2.477-2.825,3.848c-0.047,0.08-0.081,0.135-0.176,0.074c-0.033-1.4,0.021-2.799,0.027-4.197
	c0.007-1.48,0.004-2.957,0.104-4.434c0.138-2.041,0.56-4.018,1.287-5.928c0.373-0.982,0.414-2.012,0.442-3.039
	c0.026-0.938,0.095-1.871,0.15-2.807c0.052-0.877-0.099-1.736-0.281-2.588c-0.291-1.354-0.535-2.716-0.711-4.09
	c-0.078-0.607-0.325-1.166-0.53-1.737c0.278,0.11,0.553,0.284,0.856,0.076c0.105-0.071,0.271-0.163,0.194-0.3
	c-0.105-0.188-0.22-0.018-0.312,0.059c-0.163,0.135-0.32,0.125-0.45-0.031c-0.125-0.15-0.146-0.313,0.026-0.463
	c0.109,0.125-0.012,0.43,0.214,0.357c0.173-0.055,0.06-0.329,0.065-0.504c0.004-0.141-0.076-0.2-0.236-0.175
	c-0.35,0.056-0.435,0.332-0.54,0.599c-0.423-0.709-0.654-1.506-1.04-2.231c0.007-0.068-0.013-0.123-0.076-0.157l-0.001-0.002
	c-0.1-0.539-0.388-0.998-0.657-1.459c-0.39-0.668-0.764-1.359-1.451-1.794c-0.371-0.235-0.811-0.319-1.187-0.534
	c-0.466-0.269-1.002-0.318-1.486-0.533c-0.515-0.229-1.056-0.404-1.56-0.664c1.358-0.332,2.734-0.57,4.121-0.736
	c0.75-0.09,1.504-0.074,2.256-0.065c0.4,0.006,0.792-0.024,1.165-0.179c0.429-0.178,0.881-0.162,1.329-0.152
	c0.584,0.012,1.167-0.01,1.726-0.186c1.057-0.334,1.975-0.842,2.257-2.057c0.624,0.457,1.208,0.887,1.885,1.156
	c0.617,0.246,1.248,0.245,1.85-0.027c0.688-0.311,1.328-0.702,1.865-1.232c0.141,0.031,0.102,0.151,0.127,0.229
	c0.443,1.341,1.539,1.792,2.777,2.044c0.363,0.072,0.734,0.086,1.105,0.07c0.572-0.023,1.135,0.008,1.672,0.237
	c0.172,0.072,0.357,0.098,0.545,0.089c2.115-0.108,4.182,0.256,6.24,0.678c0.166,0.034,0.35,0.004,0.494,0.123
	c-0.83,0.421-1.686,0.783-2.557,1.109c-0.563,0.211-1.127,0.434-1.664,0.703c-0.996,0.498-1.381,1.475-1.797,2.415
	C120.695,93.509,120.549,93.679,120.627,93.896z M97.175,122.6c0.258-1.08,0.685-2.1,1.114-3.117
	c0.689-1.633,1.572-3.154,2.683-4.537c0.551-0.686,1.151-1.33,1.776-1.951l-0.002-0.002c-0.133,0.668-0.281,1.336-0.395,2.008
	c-0.327,1.93-0.33,3.877-0.335,5.826c-0.003,1.094-0.041,2.186-0.062,3.277c-0.034-0.068-0.076-0.135-0.101-0.207
	c-0.422-1.26-1.552-1.969-2.842-1.932C98.337,121.984,97.733,122.232,97.175,122.6z M97.175,122.6
	c0.558-0.367,1.163-0.615,1.835-0.635c1.291-0.037,2.42,0.672,2.842,1.932c0.024,0.072,0.067,0.139,0.101,0.207
	c0.006,0.502,0.011,1.004,0.017,1.506c-0.235,0.316-0.29,0.75-0.644,0.992c-0.104,0.072-0.17,0.203-0.322,0.197
	c-0.006-0.17,0.019-0.322,0.107-0.486c0.662-1.227,0.419-2.416-0.614-3.152c-0.768-0.549-1.604-0.578-2.393-0.193
	c-0.792,0.387-1.188,1.104-1.069,2.025c0.19,1.463,1.434,1.996,2.561,1.438c0.62-0.309,0.756-0.852,0.698-1.498
	c-0.04-0.451-0.316-0.678-0.68-0.842c-0.398-0.178-0.985,0.006-1.196,0.357c-0.203,0.338-0.137,0.813,0.131,1.057
	c0.149,0.135,0.316,0.143,0.48,0.084c0.193-0.07,0.128-0.221,0.084-0.365c-0.054-0.182,0.04-0.313,0.201-0.381
	c0.203-0.086,0.292,0.082,0.361,0.217c0.122,0.236,0.061,0.467-0.103,0.662c-0.372,0.443-1.361,0.373-1.67-0.121
	c-0.391-0.627-0.301-1.131,0.048-1.707c0.251-0.414,1.152-0.684,1.641-0.533c1.347,0.414,1.886,1.939,0.898,3.17
	c-0.194,0.242-0.489,0.352-0.683,0.584c-0.065,0.004-0.124,0.018-0.158,0.082c-0.086,0.008-0.18-0.01-0.238,0.078
	c-0.212,0.029-0.422,0.059-0.634,0.088c-0.106,0-0.211,0-0.317,0c-0.079-0.002-0.158-0.006-0.237-0.008
	c-0.74-0.164-1.312-0.574-1.746-1.188c-0.036-0.141-0.052-0.287-0.164-0.396c-0.042-0.188-0.101-0.375-0.078-0.572
	C96.663,124.371,96.849,123.461,97.175,122.6z M94.57,127.434c-0.052,0.4-0.172,0.777-0.434,1.088
	c-0.24,0.283-0.339,0.617-0.446,0.959c-0.079,0.254-0.436,0.238-0.556,0.488c-0.035,0.072-0.125,0.121-0.147,0.221
	c-0.087,0.385-0.09,0.383-0.469,0.479c-0.012,0.004-0.031,0.014-0.033,0.021c-0.052,0.408-0.579,0.488-0.623,0.914
	c-0.018,0.17-0.054,0.363-0.321,0.369c-0.187,0.002-0.167,0.209-0.211,0.338c-0.034,0.096,0.02,0.254-0.078,0.293
	c-0.592,0.236-0.613,0.9-0.993,1.291c-0.018,0.018-0.045,0.027-0.066,0.039c0.164-0.693,0.596-1.248,0.967-1.834
	c0.707-1.115,1.696-2.008,2.46-3.082C93.978,128.512,94.168,127.91,94.57,127.434z M89.245,136.605
	c-0.008,0.352-0.027,0.684-0.11,1.043c-0.196,0.846-0.502,1.691-0.435,2.588c0.014,0.178-0.11,0.291-0.164,0.434
	c-0.178,0.461-0.118,0.99-0.415,1.414c-0.045,0.064-0.064,0.145-0.035,0.227c0.096,0.275-0.083,0.281-0.272,0.275
	c0.274-1.045,0.534-2.092,0.745-3.15c0.165-0.826,0.361-1.646,0.541-2.469C89.127,136.838,89.15,136.707,89.245,136.605z
	 M102.833,96.494c0.104-0.267,0.19-0.543,0.54-0.599c0.16-0.025,0.24,0.034,0.236,0.175c-0.005,0.175,0.108,0.449-0.065,0.504
	c-0.227,0.072-0.105-0.232-0.214-0.357c-0.173,0.15-0.151,0.313-0.026,0.463c0.13,0.156,0.287,0.166,0.45,0.031
	c0.092-0.076,0.207-0.246,0.312-0.059c0.077,0.137-0.088,0.229-0.194,0.3c-0.304,0.208-0.578,0.034-0.856-0.076
	C102.914,96.767,102.875,96.629,102.833,96.494z M102.943,143.455c0.132,0.068,0.269,0.107,0.419,0.094
	c0.186-0.02,0.275,0.068,0.252,0.254c-0.014,0.121,0.075,0.295-0.089,0.35c-0.198,0.064-0.085-0.223-0.254-0.252
	c-0.076,0.188-0.021,0.379,0.106,0.482c0.128,0.104,0.3,0.025,0.423-0.1c0.064-0.068,0.154-0.143,0.24-0.061
	c0.106,0.104,0.003,0.188-0.061,0.271c-0.177,0.229-0.432,0.146-0.662,0.168C103.139,144.277,103.05,143.863,102.943,143.455z
	 M87.735,142.82c0.09,0.484-0.22,0.885-0.284,1.344c-0.042,0.293-0.309,0.539-0.675,0.551
	C87.095,144.084,87.415,143.453,87.735,142.82z M90.047,134.182c0.024,0.043,0.081,0.105,0.068,0.127
	c-0.271,0.484-0.209,1.086-0.547,1.541c-0.092,0.123,0.024,0.248-0.051,0.373c-0.077,0.129-0.06,0.32-0.271,0.34
	C89.41,135.734,89.665,134.936,90.047,134.182z M84.957,145.963c0.021,0.225-0.193,0.424-0.282,0.461
	c-0.444,0.186-0.596,0.719-1.065,0.846c-0.017-0.252,0.153-0.406,0.314-0.553C84.24,146.428,84.56,146.141,84.957,145.963z
	 M95.818,125.75c0.051,0.145-0.003,0.258-0.11,0.352c-0.368,0.322-0.672,0.689-0.856,1.148c-0.045,0.111-0.146,0.188-0.283,0.184
	C94.867,126.783,95.25,126.199,95.818,125.75z M85.998,145.285c-0.006,0.195-0.209,0.219-0.299,0.342
	c-0.037,0.051-0.122,0.078-0.137,0.131c-0.099,0.342-0.094,0.342-0.464,0.174c-0.023-0.012-0.051-0.012-0.077-0.016
	C85.313,145.656,85.622,145.418,85.998,145.285z M96.237,125.197c-0.022,0.197,0.036,0.385,0.078,0.572
	c-0.165-0.006-0.329-0.016-0.494-0.023C95.906,125.523,96.011,125.314,96.237,125.197z M86.612,144.875
	c0.034,0.492-0.355,0.357-0.616,0.412C86.196,145.141,86.38,144.971,86.612,144.875z M86.776,144.717
	c0.021,0.127-0.03,0.182-0.159,0.156C86.627,144.779,86.674,144.721,86.776,144.717z M102.015,126.324
	c-0.087-0.104-0.086-0.209-0.005-0.316C102.011,126.113,102.013,126.221,102.015,126.324z M87.819,142.586
	c0.003,0.092,0.028,0.191-0.086,0.24C87.728,142.734,87.727,142.643,87.819,142.586z M101.717,94.105
	c0.063,0.034,0.083,0.089,0.076,0.157C101.722,94.232,101.702,94.177,101.717,94.105z M90.197,133.934
	c-0.026,0.029-0.053,0.057-0.079,0.086C90.145,133.99,90.171,133.963,90.197,133.934z M102.745,112.992
	c0.006-0.008,0.012-0.018,0.019-0.025c-0.005,0.01-0.011,0.018-0.017,0.027L102.745,112.992z M109.095,75.457
	c0.174,0.334,0.187,0.554-0.275,0.68c-0.344,0.094-0.673,0.309-0.786,0.712c-0.016,0.058-0.058,0.128-0.109,0.156
	c-0.447,0.244-0.493,0.686-0.462,1.096c0.04,0.554,0.078,1.099-0.018,1.649c-0.028,0.163-0.083,0.359,0.069,0.486
	c0.151,0.126,0.24-0.13,0.388-0.101l0.006,0.005c-0.024,0.06-0.041,0.126-0.073,0.181c-0.139,0.229-0.42,0.391-0.273,0.748
	c0.05,0.121-0.104,0.161-0.249,0.131c-0.305-0.064-0.397,0.082-0.281,0.354c0.059,0.138,0.043,0.292,0.092,0.419
	c0.096,0.247-0.06,0.639,0.262,0.736c0.403,0.122,0.443,0.408,0.532,0.732c0.285,1.043,0.691,2.004,1.819,2.423
	c0.201,0.075,0.439,0.077,0.596,0.271c0.139,0.174,1.148,0.315,1.227,0.149c0.236-0.508,0.764-0.295,1.105-0.516
	c0.014,0.015,0.025,0.029,0.039,0.044c-0.326,0.25-0.674,0.462-1.059,0.606c-0.344,0.129-0.717,0.182-1.051,0.059
	c-1.002-0.366-1.937-0.842-2.46-1.855c-0.16-0.311-0.229-0.646-0.294-0.98c-0.047-0.242-0.149-0.413-0.364-0.529
	c-0.327-0.178-0.492-0.457-0.523-0.832c-0.031-0.365-0.174-0.716-0.152-1.092c0.01-0.168,0.03-0.368,0.204-0.386
	c0.33-0.036,0.268-0.242,0.264-0.447c-0.015-0.699-0.088-1.397-0.035-2.098c0.083-1.088,0.586-1.896,1.574-2.386
	c0.047-0.022,0.091-0.051,0.136-0.077c0.01-0.007,0.015-0.021,0.067-0.098 M120.627,93.896c-0.078-0.217,0.068-0.387,0.145-0.558
	c0.416-0.94,0.801-1.917,1.797-2.415c0.537-0.27,1.102-0.492,1.664-0.703c0.871-0.326,1.727-0.688,2.557-1.109
	c0.469,0.053,0.941,0.094,1.41,0.16c1.406,0.199,2.779,0.02,4.158-0.276c1.459-0.315,2.93-0.259,4.41-0.079
	c1.609,0.193,3.234,0.332,4.855,0.248c1.066-0.055,1.953-0.527,2.471-1.533c0.211-0.409,0.498-0.721,0.957-0.888
	c0.438-0.159,0.75-0.529,1.125-0.798c0.404-0.291,0.527-0.246,0.707,0.225c-0.029,0.158-0.057,0.316-0.086,0.476
	c-0.016,0.016-0.02,0.034-0.016,0.056c-0.289,0.332-0.686,0.531-1.008,0.82c-0.266,0.238-0.234,0.412,0.1,0.543
	c0.109,0.041,0.229,0.062,0.344,0.092c1.08,0.289,2.133-0.006,3.193-0.16c0.08-0.006,0.162-0.01,0.242-0.016
	c0.313,0.045,0.635-0.029,0.939,0.092c0.129,0.052,0.23,0.129,0.246,0.28c0.014,0.157-0.08,0.246-0.209,0.3
	c-0.135,0.053-0.27,0.111-0.41,0.137c-0.531,0.102-1.066,0.152-1.607,0.166c-0.23,0.006-0.438,0.078-0.65,0.15
	c-0.084,0.027-0.135,0.08-0.127,0.173c0.012,0.099,0.084,0.127,0.168,0.134c0.092,0.009,0.184,0.019,0.275,0.015
	c0.938-0.038,1.865,0.047,2.787,0.216c0.301,0.273,0.324,0.545,0,0.818c-1.027-0.16-2.059-0.291-3.102-0.217
	c-0.033,0.002-0.063,0.043-0.117,0.081c0.436,0.273,0.932,0.299,1.391,0.436c0.365,0.108,0.744,0.183,1.092,0.348
	c0.158,0.076,0.383,0.129,0.311,0.38c-0.066,0.239-0.279,0.276-0.482,0.238c-0.672-0.129-1.348-0.25-2.002-0.459
	c-0.148-0.049-0.305-0.078-0.459-0.109c-0.111-0.023-0.254-0.108-0.311,0.05c-0.061,0.165,0.061,0.278,0.197,0.339
	c0.398,0.18,0.801,0.346,1.201,0.516c0.172,0.071,0.342,0.139,0.484,0.264c0.133,0.117,0.203,0.256,0.125,0.42
	c-0.072,0.156-0.234,0.174-0.377,0.14c-0.23-0.056-0.48-0.096-0.676-0.218c-1.07-0.666-2.27-0.725-3.471-0.771
	c-0.348-0.014-0.691-0.047-1.01-0.174c-0.547-0.22-1.086-0.134-1.633-0.023c-1.076,0.215-2.109,0.578-3.152,0.909
	c-1.707,0.542-3.453,0.832-5.246,0.878c-1.588,0.041-3.168-0.125-4.754-0.096c-1.295,0.023-2.572,0.22-3.857,0.344
	c-0.785,0.076-1.553,0.006-2.32-0.154c-0.461-0.097-0.914-0.229-1.404-0.123C121.156,93.531,120.898,93.719,120.627,93.896z
	 M143.018,81.395c-0.064,0.003-0.131,0.006-0.195,0.009c-0.266,0.023-0.529,0.05-0.746,0.231l-0.023-0.006l-0.023,0.012
	c-0.193,0.015-0.34,0.124-0.482,0.239c-1.936,0.919-3.738,2.064-5.549,3.201c-1.459,0.916-3.033,1.605-4.752,1.893
	c-0.793,0.135-1.451,0.544-2.117,0.946c-0.443,0.269-0.932,0.435-1.391,0.669c-0.182,0.092-0.389,0.045-0.584,0.009
	c-1.605-0.302-3.203-0.657-4.838-0.797c-0.727-0.063-1.451-0.012-2.178-0.042c-0.131-0.006-0.277,0.012-0.391-0.038
	c-0.701-0.307-1.441-0.296-2.182-0.288c-0.436,0.004-0.863-0.053-1.313-0.207c0.156-0.174,0.361-0.188,0.529-0.252
	c0.861-0.326,1.652-0.82,2.58-0.996c0.957-0.18,1.908-0.267,2.865-0.055c0.592,0.131,1.121,0.09,1.658-0.246
	c1.074-0.673,2.26-1.084,3.512-1.281c1.123-0.18,2.088-0.629,2.961-1.381c1.426-1.232,3.133-1.926,4.963-2.336
	c1.271-0.285,2.543-0.58,3.814-0.874c0.18-0.042,0.359-0.096,0.531-0.161c0.363-0.138,0.635-0.317,0.777-0.751
	c0.303-0.915,0.768-1.739,1.705-2.187c0.221-0.104,0.4-0.297,0.598-0.449c0.104-0.017,0.189-0.059,0.238-0.16l0,0
	c0.084-0.032,0.172-0.059,0.252-0.099c0.188-0.092,0.383-0.228,0.588-0.095c0.225,0.145,0.096,0.378,0.088,0.578
	c-0.02,0.03-0.037,0.06-0.055,0.09c-0.01,0.027-0.02,0.055-0.029,0.083c-0.229,1.026,0.268,2.6,1.779,3.008
	c-0.191,0.21-0.385,0.42-0.574,0.632c-0.408,0.454-1.002,0.584-1.506,0.872c-0.025,0.008-0.051,0.015-0.076,0.023
	c-0.025,0.02-0.051,0.039-0.076,0.059l0,0C143.244,81.266,143.098,81.249,143.018,81.395z M146.805,75.678
	c0.07,0,0.141,0,0.211,0.001c0.182,0.108,0.455,0.018,0.57,0.266c-0.055,0.221-0.16,0.445,0.131,0.603
	c0.041,0.023,0.018,0.169,0.023,0.258c-0.213-0.026-0.32-0.215-0.492-0.308c-0.391-0.21-0.809-0.105-1.137,0.308
	c-0.281,0.354-0.264,0.741,0.039,1.063c0.15,0.159,0.33,0.167,0.508,0.097c0.193-0.075,0.092-0.229,0.072-0.37
	c-0.039-0.264,0.199-0.406,0.463-0.288c-0.006,0.168-0.199,0.187-0.268,0.333c0.418,0.053,0.227,0.373,0.27,0.594l-0.006,0.006
	c-0.023,0.024-0.049,0.049-0.072,0.073c-0.045,0.027-0.092,0.054-0.139,0.082c-0.234-0.001-0.471,0.003-0.707-0.004
	c-0.287-0.01-0.545-0.125-0.713-0.347c-0.623-0.815-0.127-2.02,0.787-2.266C146.496,75.738,146.65,75.712,146.805,75.678z
	 M143.83,76.656c0.363-0.044,0.607-0.364,0.967-0.417c-0.33,0.687-0.172,1.917,0.576,2.468c0.252,0.185,0.596,0.154,0.787,0.417
	c-0.031,0.071-0.061,0.14-0.09,0.209c-0.049,0.032-0.1,0.064-0.15,0.096c-0.104,0.078-0.207,0.155-0.311,0.233
	C144.098,79.256,143.602,77.682,143.83,76.656z M146.16,79.125c-0.191-0.263-0.535-0.233-0.787-0.417
	c-0.748-0.551-0.906-1.782-0.576-2.468c0.229-0.273,0.609-0.302,0.863-0.533c0.197-0.072,0.391-0.16,0.592-0.214
	c0.217-0.059,0.455-0.128,0.553,0.186c-0.154,0.034-0.309,0.06-0.459,0.102c-0.914,0.246-1.41,1.451-0.787,2.266
	c0.168,0.223,0.426,0.337,0.713,0.347c0.236,0.007,0.473,0.003,0.707,0.004c-0.008,0.029-0.016,0.059-0.025,0.087
	c-0.213,0.154-0.41,0.324-0.563,0.542C146.314,79.059,146.236,79.092,146.16,79.125z M112.514,75.699
	c0.363,0.214,0.725,0.43,1.088,0.645l0.002-0.004c0.029,0.026,0.059,0.054,0.088,0.08l-0.004-0.004
	c0.027,0.026,0.057,0.054,0.086,0.08l-0.004-0.004c0.029,0.024,0.059,0.049,0.088,0.073c0.027,0.027,0.055,0.055,0.08,0.081
	c0.025,0.028,0.051,0.054,0.076,0.082v-0.001c0.025,0.029,0.051,0.058,0.078,0.086c0.043,0.055,0.086,0.109,0.131,0.164
	c0.031,0.104,0.086,0.192,0.176,0.255c-0.004,0.021,0.004,0.039,0.021,0.051c0.02,0.038,0.037,0.074,0.057,0.112
	c0.02,0.047,0.039,0.094,0.061,0.141c0.027,0.076,0.053,0.152,0.08,0.229c0.014,0.052,0.027,0.103,0.041,0.153
	c0.008,0.195-0.041,0.396,0.057,0.581c0.004,0.674,0.008,1.347,0.008,2.021c0,0.143,0.006,0.247,0.199,0.258
	c0.217,0.011,0.27,0.193,0.275,0.372c0.02,0.535-0.141,1.042-0.256,1.555c-0.035,0.155-0.178,0.271-0.318,0.341
	c-0.365,0.18-0.459,0.504-0.529,0.866c-0.166,0.846-0.596,1.513-1.391,1.904c-0.014-0.015-0.025-0.029-0.039-0.044
	c0.17-0.286,0.473-0.445,0.674-0.697c0.146-0.18,0.449-0.315,0.229-0.641c-0.049-0.071-0.002-0.166,0.113-0.132
	c0.168,0.05,0.176-0.056,0.178-0.169c0.004-0.37,0.264-0.655,0.336-1.004c0.023-0.107,0.104-0.258,0.193-0.287
	c0.543-0.185,0.447-0.694,0.529-1.082c0.033-0.152,0.121-0.498-0.059-0.556c-0.354-0.112-0.307-0.32-0.291-0.578
	c0.02-0.303,0.057-0.619-0.008-0.908c-0.098-0.441,0.07-0.897-0.09-1.313c-0.092-0.242-0.396-0.418-0.07-0.704
	c0.059-0.05-0.029-0.165-0.086-0.243c-0.432-0.591-0.918-1.113-1.611-1.41c-0.104-0.044-0.395-0.098-0.195-0.357L112.514,75.699z
	 M149.41,87.996c-1.061,0.154-2.113,0.449-3.193,0.16c-0.115-0.03-0.234-0.051-0.344-0.092c-0.334-0.131-0.365-0.305-0.1-0.543
	c0.322-0.289,0.719-0.488,1.008-0.82c0.025,0.141,0.002,0.299-0.125,0.348c-0.332,0.125-0.307,0.637-0.73,0.65
	c-0.053,0.002-0.07,0.07-0.047,0.127c0.039,0.09,0.09,0.154,0.197,0.168c0.873,0.103,1.744,0.124,2.613-0.037
	C148.934,87.912,149.178,87.853,149.41,87.996z M145.609,79.664c0.104-0.078,0.207-0.155,0.311-0.233
	c-0.045,0.333,0.16,0.346,0.393,0.295c0.174-0.04,0.34-0.11,0.543,0c-0.182,0.168-0.373,0.181-0.568,0.175
	c-0.477-0.016-0.895,0.139-1.16,0.54c-0.209,0.32-0.631,0.343-0.838,0.695c-0.07,0.119-0.496,0.027-0.76,0.033
	c0.504-0.288,1.098-0.418,1.506-0.872C145.225,80.084,145.418,79.874,145.609,79.664z M147.74,76.806
	c-0.006-0.089,0.018-0.235-0.023-0.258c-0.291-0.157-0.186-0.382-0.131-0.603c0.053-0.005,0.105-0.01,0.158-0.013l-0.008,0.011
	c0.031,0.021,0.063,0.041,0.092,0.061c0.201,0.182,0.379,0.383,0.506,0.625c-0.242,0-0.467,0.022-0.506,0.338
	c-0.021,0.175-0.176,0.204-0.314,0.244c0-0.001-0.023-0.023-0.023-0.023C147.52,77.025,147.76,77.001,147.74,76.806z M74.389,76.924
	c0.484-0.405,0.941-0.311,1.237,0.253c0.037,0.069,0.087,0.151,0.013,0.214c-0.077,0.065-0.156-0.005-0.208-0.052
	c-0.096-0.086-0.164-0.205-0.263-0.29c-0.261-0.228-0.363-0.186-0.454,0.171C74.568,77.162,74.417,77.111,74.389,76.924z
	 M147.195,78.237c-0.043-0.222,0.148-0.542-0.27-0.594c0.068-0.146,0.262-0.165,0.268-0.334c0.1-0.04,0.199-0.08,0.297-0.12
	c0,0,0.023,0.022,0.023,0.023c-0.047,0.24-0.113,0.476-0.09,0.726C147.439,78.099,147.377,78.215,147.195,78.237z M146.797,86.645
	c0.029-0.159,0.057-0.317,0.086-0.476c0.373-0.043,0.344,0.227,0.287,0.43C147.109,86.813,146.906,86.463,146.797,86.645z
	 M146.16,79.125c0.076-0.033,0.154-0.066,0.23-0.099c0.055,0.001,0.109,0.002,0.162,0.003c-0.092,0.209-0.148,0.478-0.482,0.305
	C146.1,79.265,146.129,79.196,146.16,79.125z M146.553,79.029c-0.053-0.001-0.107-0.002-0.162-0.003
	c0.152-0.217,0.35-0.387,0.563-0.542C146.955,78.765,146.703,78.861,146.553,79.029z M142.076,81.636
	c0.217-0.181,0.48-0.208,0.746-0.231C142.643,81.701,142.326,81.562,142.076,81.636z M141.547,81.881
	c0.143-0.115,0.289-0.224,0.482-0.239C141.99,81.968,141.738,81.865,141.547,81.881z M143.018,81.395
	c0.08-0.146,0.227-0.129,0.359-0.146C143.334,81.485,143.154,81.388,143.018,81.395z M114.715,78.498
	c-0.098-0.185-0.049-0.385-0.057-0.581C114.795,78.1,114.715,78.303,114.715,78.498z M142.986,76.098
	c-0.049,0.101-0.135,0.143-0.238,0.16C142.748,76.087,142.863,76.087,142.986,76.098z M148.695,78.314
	c-0.059-0.011-0.125-0.008-0.119-0.096c0-0.01,0.014-0.025,0.023-0.025C148.688,78.188,148.684,78.255,148.695,78.314
	L148.695,78.314z M148.695,78.313c0.057,0.01,0.125,0.008,0.119,0.096c0,0.009-0.016,0.023-0.023,0.024
	C148.703,78.438,148.705,78.37,148.695,78.313L148.695,78.313z M113.77,76.492c0.029,0.024,0.059,0.049,0.088,0.073
	C113.828,76.541,113.799,76.517,113.77,76.492z M113.688,76.416c0.027,0.026,0.057,0.054,0.086,0.08
	C113.744,76.47,113.715,76.442,113.688,76.416z M113.604,76.34c0.029,0.026,0.059,0.054,0.088,0.08
	C113.662,76.394,113.633,76.366,113.604,76.34z M147.117,78.316c0.023-0.024,0.049-0.049,0.072-0.073
	C147.166,78.267,147.141,78.292,147.117,78.316z M114.42,77.283c0.02,0.038,0.037,0.074,0.057,0.112
	C114.457,77.357,114.439,77.32,114.42,77.283z M143.453,81.19c-0.025,0.02-0.051,0.039-0.076,0.059
	C143.402,81.229,143.428,81.21,143.453,81.19z M114.014,76.728c-0.025-0.027-0.051-0.053-0.076-0.082
	C113.963,76.675,113.988,76.701,114.014,76.728z M114.014,76.727c0.025,0.029,0.051,0.058,0.078,0.086
	C114.064,76.785,114.039,76.756,114.014,76.727z M99.808,127.113c0.194-0.232,0.489-0.342,0.683-0.584
	c0.988-1.23,0.449-2.756-0.898-3.17c-0.489-0.15-1.39,0.119-1.641,0.533c-0.349,0.576-0.439,1.08-0.048,1.707
	c0.309,0.494,1.299,0.564,1.67,0.121c0.164-0.195,0.225-0.426,0.103-0.662c-0.07-0.135-0.158-0.303-0.361-0.217
	c-0.162,0.068-0.255,0.199-0.201,0.381c0.043,0.145,0.108,0.295-0.084,0.365c-0.165,0.059-0.332,0.051-0.48-0.084
	c-0.269-0.244-0.334-0.719-0.131-1.057c0.211-0.352,0.798-0.535,1.196-0.357c0.363,0.164,0.64,0.391,0.68,0.842
	c0.058,0.646-0.078,1.189-0.698,1.498c-1.127,0.559-2.371,0.025-2.561-1.438c-0.119-0.922,0.276-1.639,1.069-2.025
	c0.789-0.385,1.625-0.355,2.393,0.193c1.033,0.736,1.275,1.926,0.614,3.152c-0.088,0.164-0.113,0.316-0.107,0.486
	C100.639,127.035,100.296,127.354,99.808,127.113z M96.479,126.166c0.434,0.613,1.006,1.023,1.746,1.188
	c-0.457,0.297-1.176-0.203-1.586-0.686C96.531,126.541,96.351,126.389,96.479,126.166z M98.461,127.361c0.105,0,0.211,0,0.317,0
	C98.672,127.582,98.567,127.582,98.461,127.361z M99.412,127.273c0.058-0.088,0.152-0.07,0.238-0.078
	C99.62,127.367,99.544,127.408,99.412,127.273z M123.059,127.674c-0.352-0.193-0.467-0.57-0.531-0.896
	c-0.113-0.57-0.311-1.002-0.904-1.191c-0.207-0.066-0.199-0.279-0.084-0.43c0.551-0.717,0.348-1.461,0.156-2.238
	c-0.148-0.609-0.24-1.234-0.396-1.844c-0.273-1.063-0.619-2.104-1.068-3.105c-0.068-0.148-0.123-0.291-0.102-0.453
	c0.277,0.359,0.408,0.793,0.57,1.207c0.721,1.865,1.107,3.814,1.467,5.775C122.363,125.582,122.51,126.686,123.059,127.674z
	 M118.328,115.533c0.213,0.076,0.188,0.301,0.191,0.436c0.025,0.748,0.193,1.484,0.182,2.236c-0.014,0.803-0.016,1.605,0,2.408
	c0.016,0.975-0.029,1.949-0.186,2.906c-0.107,0.66-0.225,1.313-0.219,1.982c0,0.063-0.016,0.143-0.057,0.184
	c-0.369,0.359-0.344,0.813-0.369,1.279c-0.016,0.252-0.18,0.529-0.414,0.709c0.197-0.82,0.398-1.639,0.59-2.461
	c0.299-1.275,0.439-2.57,0.525-3.875c0.121-1.893-0.035-3.771-0.254-5.646C118.313,115.639,118.324,115.586,118.328,115.533z
	 M129.719,144.58c-0.318-0.072-0.303-0.381-0.375-0.594c-0.189-0.566-0.43-1.119-0.693-1.643c-0.336-0.664-0.518-1.369-0.801-2.039
	c-0.467-1.104-0.625-2.314-1.199-3.369c-0.277-0.51-0.623-0.984-0.953-1.465c-0.094-0.137-0.156-0.27-0.158-0.432
	c0.582,0.568,0.953,1.277,1.305,1.994c0.441,0.902,0.676,1.881,1.012,2.822c0.535,1.512,1.188,2.977,1.785,4.465
	C129.674,144.404,129.693,144.494,129.719,144.58z M125.539,135.037c-0.371-0.135-0.463-0.51-0.604-0.799
	c-0.379-0.775-0.758-1.561-0.787-2.459c-0.018-0.602-0.102-1.203-0.129-1.805c-0.02-0.422-0.215-0.76-0.389-1.127
	c-0.186-0.393-0.584-0.684-0.568-1.17c0.75,0.801,1.125,1.754,1.18,2.848c0.043,0.881,0.031,1.768,0.344,2.615
	c0.193,0.521,0.441,1.014,0.748,1.477C125.424,134.748,125.516,134.875,125.539,135.037z M119.268,116
	c-0.369-0.105-0.459-0.441-0.559-0.736c-0.055-0.168-0.131-0.291-0.24-0.428c-0.172,0.168-0.008,0.389-0.148,0.529
	c-0.051-0.363-0.014-0.727,0.068-1.117C118.682,114.832,118.977,115.414,119.268,116z M120.131,117.516
	c-0.311-0.496-0.852-0.857-0.861-1.521C119.664,116.439,119.953,116.945,120.131,117.516z M130.039,145.293
	c-0.117-0.008-0.184,0.094-0.277,0.131c-0.082,0.031-0.207-0.039-0.148-0.082c0.309-0.225,0.064-0.506,0.109-0.752
	C129.867,144.809,130.002,145.029,130.039,145.293z M118.541,129.496c-0.332-0.002-0.691-0.441-0.623-0.773
	c0.021-0.1,0.053-0.229,0.18-0.23c0.162-0.002,0.115,0.141,0.123,0.236c0.008,0.105-0.014,0.223,0.025,0.313
	c0.066,0.152,0.184,0.289,0.369,0.168c0.135-0.09,0.305-0.193,0.168-0.412c-0.133-0.217-0.313-0.387-0.5-0.553
	c-0.096-0.088-0.166-0.201-0.244-0.307c-0.029-0.043-0.051-0.098,0-0.143c0.061-0.053,0.143-0.039,0.176,0.014
	c0.205,0.35,0.59,0.527,0.803,0.865c0.115,0.184,0.115,0.389,0.025,0.566C118.949,129.428,118.754,129.5,118.541,129.496z
	 M119.926,127.088c-0.066,0.156-0.07,0.301,0.104,0.42c0.172,0.119,0.316,0.092,0.449-0.064c0.041-0.049,0.092-0.094,0.141-0.137
	c0.08-0.07,0.168-0.164,0.266-0.049c0.074,0.09-0.012,0.166-0.07,0.24c-0.375,0.469-0.932,0.432-1.172-0.07
	c-0.1-0.207-0.066-0.383,0.064-0.551c0.115-0.146,0.256-0.318,0.457-0.191c0.221,0.137,0.186,0.451,0.09,0.568
	C120.01,127.553,120.117,127.049,119.926,127.088z M121.938,126.363c-0.215,0.064-0.305-0.063-0.42-0.172
	c-0.139-0.131-0.301-0.287-0.514-0.205c-0.145,0.055-0.221,0.219-0.137,0.361c0.094,0.16,0.197,0.377,0.457,0.238
	c0.102-0.055,0.215-0.174,0.283-0.002c0.055,0.141-0.094,0.203-0.201,0.246c-0.297,0.121-0.535-0.033-0.693-0.236
	c-0.178-0.23-0.186-0.52,0.02-0.766c0.191-0.23,0.436-0.172,0.643-0.059C121.609,125.9,121.811,126.09,121.938,126.363z
	 M119.129,127.475c0.094-0.01,0.137,0.053,0.105,0.117c-0.154,0.316,0.043,0.492,0.252,0.662c0.107,0.086,0.246,0.189,0.119,0.311
	c-0.117,0.109-0.191-0.078-0.275-0.143c-0.223-0.17-0.436-0.344-0.393-0.672C118.955,127.619,119.023,127.533,119.129,127.475z
	 M147.744,75.932c-0.053,0.003-0.105,0.008-0.158,0.013c-0.115-0.249-0.389-0.158-0.57-0.266c0.115-0.238,0.332-0.254,0.541-0.208
	C147.814,75.529,147.729,75.757,147.744,75.932z M147.736,75.943c0.031,0.021,0.063,0.041,0.092,0.061
	C147.799,75.984,147.768,75.964,147.736,75.943z M112.506,75.691c-0.199,0.259,0.092,0.313,0.195,0.357
	c0.693,0.297,1.18,0.819,1.611,1.41c0.057,0.078,0.145,0.193,0.086,0.243c-0.326,0.286-0.021,0.462,0.07,0.704
	c0.16,0.416-0.008,0.872,0.09,1.313c0.064,0.29,0.027,0.605,0.008,0.908c-0.016,0.257-0.063,0.466,0.291,0.578
	c0.18,0.058,0.092,0.403,0.059,0.556c-0.082,0.387,0.014,0.897-0.529,1.082c-0.09,0.029-0.17,0.18-0.193,0.287
	c-0.072,0.349-0.332,0.634-0.336,1.004c-0.002,0.113-0.01,0.219-0.178,0.169c-0.115-0.034-0.162,0.061-0.113,0.132
	c0.221,0.325-0.082,0.461-0.229,0.641c-0.201,0.252-0.504,0.411-0.674,0.697c-0.342,0.221-0.869,0.008-1.105,0.516
	c-0.078,0.166-1.088,0.024-1.227-0.149c-0.156-0.194-0.395-0.196-0.596-0.271c-1.128-0.419-1.534-1.38-1.819-2.423
	c-0.088-0.324-0.128-0.61-0.532-0.732c-0.322-0.098-0.167-0.489-0.262-0.736c-0.049-0.128-0.033-0.281-0.092-0.419
	c-0.116-0.272-0.023-0.418,0.281-0.354c0.145,0.03,0.299-0.01,0.249-0.131c-0.146-0.357,0.134-0.519,0.273-0.748
	c0.033-0.055,0.049-0.121,0.073-0.181c0.183-0.027,0.288-0.134,0.318-0.316c0.231-0.046,0.343-0.235,0.476-0.398
	c0.026-0.026,0.053-0.053,0.079-0.078c0.026-0.052,0.054-0.105,0.081-0.157c0.053-0.028,0.105-0.055,0.158-0.083
	c0.026-0.026,0.053-0.052,0.08-0.079c0.004-0.012,0.01-0.024,0.014-0.037c-0.006,0.01-0.014,0.02-0.021,0.03
	c-0.025,0.026-0.053,0.053-0.079,0.079c-0.054,0.027-0.106,0.055-0.159,0.082c-0.026,0.053-0.054,0.105-0.08,0.158
	c-0.026,0.026-0.053,0.053-0.078,0.078c-0.263,0.008-0.411,0.153-0.478,0.396c-0.182,0.031-0.289,0.135-0.316,0.319
	c-0.148-0.029-0.237,0.227-0.388,0.101c-0.151-0.127-0.097-0.324-0.069-0.486c0.096-0.551,0.058-1.096,0.018-1.649
	c-0.03-0.411,0.015-0.853,0.462-1.096c0.051-0.027,0.093-0.098,0.109-0.156c0.113-0.403,0.442-0.618,0.786-0.712
	c0.461-0.126,0.449-0.346,0.275-0.68 M109.33,78.785c-0.006,0.013-0.01,0.025-0.015,0.039c0.007-0.01,0.015-0.021,0.021-0.031
	c0.005-0.012,0.01-0.025,0.015-0.038C109.345,78.765,109.337,78.775,109.33,78.785z M107.769,78.224
	c0.065-0.155,0.092-0.263-0.047-0.363C107.659,77.993,107.629,78.095,107.769,78.224z M143.859,76.572
	c0.018-0.03,0.035-0.06,0.055-0.09C143.895,76.512,143.877,76.542,143.859,76.572z M147.49,77.188
	c-0.098,0.04-0.197,0.081-0.297,0.12c-0.264-0.118-0.502,0.024-0.463,0.289c0.02,0.14,0.121,0.294-0.072,0.37
	c-0.178,0.069-0.357,0.062-0.508-0.097c-0.303-0.322-0.32-0.709-0.039-1.063c0.328-0.414,0.746-0.518,1.137-0.308
	c0.172,0.093,0.279,0.282,0.492,0.308C147.76,77.001,147.52,77.025,147.49,77.188z M108.702,79.427
	c-0.132,0.164-0.245,0.353-0.476,0.398l-0.008-0.008c0.067-0.244,0.214-0.388,0.478-0.396L108.702,79.427z M107.769,78.224
	c-0.14-0.129-0.11-0.231-0.047-0.363C107.861,77.96,107.834,78.068,107.769,78.224z M108.226,79.825
	c-0.03,0.182-0.135,0.289-0.318,0.316l-0.006-0.005c0.027-0.184,0.134-0.288,0.316-0.319L108.226,79.825z M108.854,79.184
	c0.053-0.027,0.105-0.054,0.159-0.082l0.007,0.006c-0.053,0.028-0.105,0.055-0.158,0.082L108.854,79.184z M108.774,79.342
	c0.026-0.053,0.054-0.105,0.08-0.158l0.007,0.007c-0.026,0.053-0.054,0.105-0.081,0.158L108.774,79.342z M109.013,79.103
	c0.026-0.026,0.054-0.053,0.079-0.079l0.008,0.007c-0.027,0.026-0.054,0.053-0.08,0.079L109.013,79.103z M109.092,79.023
	c0.008-0.01,0.016-0.02,0.021-0.03c-0.004,0.012-0.01,0.024-0.014,0.037L109.092,79.023z M109.337,78.792
	c-0.007,0.01-0.015,0.021-0.021,0.031c0.005-0.013,0.009-0.025,0.015-0.039L109.337,78.792z M109.33,78.785
	c0.007-0.009,0.015-0.02,0.021-0.03c-0.005,0.012-0.01,0.025-0.015,0.038L109.33,78.785z M108.781,79.349
	c-0.026,0.025-0.053,0.052-0.079,0.078l-0.006-0.006c0.025-0.025,0.052-0.052,0.078-0.078L108.781,79.349z"/>
<linearGradient id="SVGID_1_" gradientUnits="userSpaceOnUse" x1="111.4043" y1="115.7578" x2="111.4043" y2="98.1016">
	<stop  offset="0" style="stop-color:#ACADB0"/>
	<stop  offset="0.2765" style="stop-color:#DADBDC"/>
	<stop  offset="0.4301" style="stop-color:#FBFDFF"/>
	<stop  offset="0.5053" style="stop-color:#E5E5E6"/>
	<stop  offset="0.6351" style="stop-color:#C9C9CB"/>
	<stop  offset="0.7627" style="stop-color:#B6B7B9"/>
	<stop  offset="0.886" style="stop-color:#ABADB0"/>
	<stop  offset="1" style="stop-color:#A7A9AC"/>
</linearGradient>
<path fill="url(#SVGID_1_)" d="M66.05,98.101h4.54l-0.806,5.776l6.382-5.776h6.356l-13.672,12.36l-0.731,5.297h-4.541L66.05,98.101z
	 M74.854,106.199l6.558,9.559H75.51l-4.364-6.355L74.854,106.199z M93.015,106.93l-0.857-3.178l-3.582,6.154l10.746-5.348
	l-5.095,6.658l-9.031,4.541h-4.792l10.24-17.657h4.794l1.867,6.76L93.015,106.93z M95.438,115.758l-1.061-3.506l3.632-4.691
	l2.221,8.197H95.438z M102.348,102.641c0.379-2.723,2.447-4.54,5.172-4.54h9.006c2.723,0,4.287,1.816,3.908,4.54l-1.211,8.576
	c-0.379,2.725-2.445,4.541-5.17,4.541h-9.006c-2.723,0-4.287-1.816-3.91-4.541L102.348,102.641z M107.948,112.227h4.136
	c1.465,0,2.625-1.084,2.852-2.725l0.705-5.145c0.229-1.641-0.578-2.725-2.043-2.725h-4.137c-1.462,0-2.598,1.084-2.824,2.725
	l-0.707,5.145C105.703,111.143,106.484,112.227,107.948,112.227z M125.857,101.633h-2.926l-2.496-3.532h16.395l-2.496,3.532h-3.936
	l-1.969,14.125h-4.539L125.857,101.633z M137.285,104.055l5.045-3.658l-2.145,15.361h-4.541L137.285,104.055z M137.436,102.943
	l0.68-4.842h4.541l-0.15,1.186L137.436,102.943z M146.795,115.758c-2.725,0-4.289-1.816-3.912-4.541l1.213-8.576
	c0.379-2.723,2.447-4.54,5.17-4.54h9.965l-2.498,3.532h-5.523c-1.463,0-2.6,1.084-2.826,2.725l-0.705,5.145
	c-0.229,1.641,0.555,2.725,2.018,2.725h5.902l2.496,3.531H146.795z"/>
</svg>
